SplineFontDB: 3.2
FontName: ExtraCalories
FullName: ExtraCalories
FamilyName: ExtraCalories
Weight: Regular
Copyright: No Copyright (Cc) 2020 Met Sender / Mehmet PINARCI
UComments: "Type set is named '' Extra Calories '' Have Fun ! "
Version: 001.000
ItalicAngle: 0
UnderlinePosition: -102
UnderlineWidth: 51
Ascent: 819
Descent: 205
InvalidEm: 0
LayerCount: 2
Layer: 0 1 "Back" 1
Layer: 1 1 "Fore" 0
XUID: [1021 66 1585159542 1819]
FSType: 0
OS2Version: 0
OS2_WeightWidthSlopeOnly: 0
OS2_UseTypoMetrics: 1
CreationTime: 1582664074
ModificationTime: 1582685040
PfmFamily: 17
TTFWeight: 200
TTFWidth: 5
LineGap: 94
VLineGap: 0
OS2TypoAscent: 0
OS2TypoAOffset: 1
OS2TypoDescent: 0
OS2TypoDOffset: 1
OS2TypoLinegap: 94
OS2WinAscent: 0
OS2WinAOffset: 1
OS2WinDescent: 0
OS2WinDOffset: 1
HheadAscent: 0
HheadAOffset: 1
HheadDescent: 0
HheadDOffset: 1
OS2Vendor: 'PfEd'
MarkAttachClasses: 1
DEI: 91125
LangName: 1033
Encoding: ISO8859-1
UnicodeInterp: none
NameList: AGL For New Fonts
DisplaySize: -48
AntiAlias: 1
FitToEm: 0
WinInfo: 0 38 14
BeginPrivate: 0
EndPrivate
TeXData: 1 0 1024 460800 524288 349525 851444 1048576 349525 783286 444596 497025 792723 393216 433062 380633 303038 157286 324010 404750 52429 2506097 1059062 262144
BeginChars: 262 105

StartChar: A
Encoding: 65 65 0
Width: 1094
VWidth: 0
Flags: W
LayerCount: 2
Fore
SplineSet
105.359375 753.359375 m 1,0,-1
 -0.390625 526.21875 l 1,1,-1
 35.953125 461.953125 l 1,2,-1
 364.421875 456.03125 l 1,3,-1
 608.09375 631.0625 l 1,4,-1
 617.03125 637.484375 l 1,5,-1
 615.984375 626.53125 l 1,6,-1
 605.96875 521.53125 l 1,7,-1
 605.703125 518.65625 l 1,8,-1
 603.078125 517.453125 l 1,9,-1
 376.09375 413.453125 l 1,10,-1
 375.03125 412.96875 l 1,11,-1
 373.875 413 l 1,12,-1
 84.703125 420.921875 l 1,13,-1
 29.140625 332.390625 l 1,14,-1
 58.859375 296.1875 l 1,15,-1
 60.078125 294.6875 l 1,16,-1
 60 292.765625 l 1,17,-1
 52 122.75 l 1,18,-1
 51.828125 119.28125 l 1,19,-1
 48.515625 118.234375 l 1,20,-1
 -21.578125 95.84375 l 1,21,-1
 -31.125 78.3125 l 1,22,-1
 18.625 7 l 1,23,-1
 742.28125 5.015625 l 1,24,-1
 753.640625 42.59375 l 1,25,-1
 580.484375 405.84375 l 1,26,-1
 577.078125 413 l 1,27,-1
 585 413 l 1,28,-1
 723.984375 413 l 1,29,-1
 729.34375 413 l 1,30,-1
 728.984375 407.671875 l 1,31,-1
 720.984375 288.65625 l 1,32,-1
 720.84375 286.59375 l 1,33,-1
 719.28125 285.21875 l 1,34,-1
 691.109375 260.6875 l 1,35,-1
 782.265625 63.875 l 1,36,-1
 1037 54.1875 l 1,37,-1
 1037 274.28125 l 1,38,-1
 783.640625 599.625 l 1,39,-1
 632.34375 519.578125 l 1,40,-1
 623.375 514.828125 l 1,41,-1
 625.0625 524.84375 l 1,42,-1
 641.0625 618.84375 l 1,43,-1
 641.703125 622.59375 l 1,44,-1
 645.484375 622.96875 l 1,45,-1
 791.5 637.96875 l 1,46,-1
 794.28125 638.25 l 1,47,-1
 795.96875 636.03125 l 1,48,-1
 1011.265625 354.421875 l 1,49,-1
 1016.984375 658.390625 l 1,50,-1
 982.109375 792.0625 l 1,51,-1
 513.234375 801 l 1,52,-1
 105.359375 753.359375 l 1,0,-1
101.421875 762.96875 m 1,53,-1
 512.421875 810.96875 l 1,54,-1
 513.09375 811 l 1,55,-1
 986.09375 802 l 1,56,-1
 989.875 801.921875 l 1,57,-1
 990.828125 798.265625 l 1,58,-1
 1026.84375 660.25 l 1,59,-1
 1027.015625 659.59375 l 1,60,-1
 1027 658.890625 l 1,61,-1
 1021 339.90625 l 1,62,-1
 1020.734375 325.59375 l 1,63,-1
 1012.03125 336.96875 l 1,64,-1
 789.734375 627.734375 l 1,65,-1
 650.28125 613.421875 l 1,66,-1
 636.625 533.15625 l 1,67,-1
 782.671875 610.421875 l 1,68,-1
 786.375 612.375 l 1,69,-1
 788.953125 609.078125 l 1,70,-1
 1045.9375 279.078125 l 1,71,-1
 1047 277.71875 l 1,72,-1
 1047 276 l 1,73,-1
 1047 49 l 1,74,-1
 1047 43.8125 l 1,75,-1
 1041.8125 44 l 1,76,-1
 778.8125 54 l 1,77,-1
 775.765625 54.125 l 1,78,-1
 774.46875 56.90625 l 1,79,-1
 680.46875 259.890625 l 1,80,-1
 678.890625 263.296875 l 1,81,-1
 681.71875 265.765625 l 1,82,-1
 711.15625 291.40625 l 1,83,-1
 718.640625 403 l 1,84,-1
 592.921875 403 l 1,85,-1
 763.5 45.15625 l 1,86,-1
 764.34375 43.40625 l 1,87,-1
 763.78125 41.5625 l 1,88,-1
 750.78125 -1.453125 l 1,89,-1
 749.703125 -5.015625 l 1,90,-1
 745.984375 -5 l 1,91,-1
 16 -3 l 1,92,-1
 13.390625 -3 l 1,93,-1
 11.90625 -0.859375 l 1,94,-1
 -41.109375 75.125 l 1,95,-1
 -42.875 77.671875 l 1,96,-1
 -41.390625 80.390625 l 1,97,-1
 -29.390625 102.390625 l 1,98,-1
 -28.4375 104.15625 l 1,99,-1
 -26.53125 104.765625 l 1,100,-1
 42.171875 126.703125 l 1,101,-1
 49.921875 291.328125 l 1,102,-1
 19.125 328.828125 l 1,103,-1
 16.84375 331.609375 l 1,104,-1
 18.75 334.65625 l 1,105,-1
 77.75 428.65625 l 1,106,-1
 79.28125 431.078125 l 1,107,-1
 82.125 431 l 1,108,-1
 372.984375 423.03125 l 1,109,-1
 596.296875 525.34375 l 1,110,-1
 604.984375 616.515625 l 1,111,-1
 368.90625 446.9375 l 1,112,-1
 367.5625 445.96875 l 1,113,-1
 365.90625 446 l 1,114,-1
 32.90625 452 l 1,115,-1
 30.0625 452.046875 l 1,116,-1
 28.65625 454.546875 l 1,117,-1
 -10.359375 523.53125 l 1,118,-1
 -11.625 525.78125 l 1,119,-1
 -10.546875 528.109375 l 1,120,-1
 97.46875 760.109375 l 1,121,-1
 98.640625 762.640625 l 1,122,-1
 101.421875 762.96875 l 1,53,-1
33 457 m 1,123,-1
 36.53125 460.53125 l 1,124,-1
 78.59375 418.484375 l 1,125,-1
 75.0625 414.953125 l 1,126,-1
 71.515625 411.40625 l 1,127,-1
 29.46875 453.46875 l 1,128,-1
 33 457 l 1,123,-1
366 451 m 1,129,-1
 369.53125 454.53125 l 1,130,-1
 394.671875 429.390625 l 1,131,-1
 391.140625 425.859375 l 1,132,-1
 387.609375 422.3125 l 1,133,-1
 362.453125 447.46875 l 1,134,-1
 366 451 l 1,129,-1
746 0 m 1,135,-1
 749.53125 3.53125 l 1,136,-1
 820.25 -67.171875 l 1,137,-1
 816.703125 -70.71875 l 1,138,-1
 813.171875 -74.25 l 1,139,-1
 742.46875 -3.53125 l 1,140,-1
 746 0 l 1,135,-1
758.984375 43 m 1,141,-1
 762.53125 46.53125 l 1,142,-1
 833.234375 -24.171875 l 1,143,-1
 829.703125 -27.703125 l 1,144,-1
 826.171875 -31.25 l 1,145,-1
 755.453125 39.46875 l 1,146,-1
 758.984375 43 l 1,141,-1
585 408 m 1,147,-1
 588.53125 411.53125 l 1,148,-1
 659.25 340.828125 l 1,149,-1
 655.703125 337.296875 l 1,150,-1
 652.171875 333.75 l 1,151,-1
 581.46875 404.46875 l 1,152,-1
 585 408 l 1,147,-1
1042 49 m 1,153,-1
 1045.53125 52.53125 l 1,154,-1
 1116.25 -18.171875 l 1,155,-1
 1112.703125 -21.703125 l 1,156,-1
 1109.171875 -25.25 l 1,157,-1
 1038.46875 45.46875 l 1,158,-1
 1042 49 l 1,153,-1
1042 276 m 1,159,-1
 1045.53125 279.53125 l 1,160,-1
 1116.25 208.828125 l 1,161,-1
 1112.703125 205.296875 l 1,162,-1
 1109.171875 201.75 l 1,163,-1
 1038.46875 272.46875 l 1,164,-1
 1042 276 l 1,159,-1
646 618 m 1,165,-1
 649.53125 621.53125 l 1,166,-1
 705.46875 565.59375 l 1,167,-1
 701.9375 562.0625 l 1,168,-1
 698.40625 558.515625 l 1,169,-1
 642.46875 614.46875 l 1,170,-1
 646 618 l 1,165,-1
1022 658.984375 m 1,171,-1
 1025.53125 662.53125 l 1,172,-1
 1096.25 591.8125 l 1,173,-1
 1092.71875 588.28125 l 1,174,-1
 1089.171875 584.75 l 1,175,-1
 1018.46875 655.453125 l 1,176,-1
 1022 658.984375 l 1,171,-1
986 797 m 1,177,-1
 989.53125 800.53125 l 1,178,-1
 1060.234375 729.828125 l 1,179,-1
 1061.203125 728.859375 l 1,180,-1
 1061.546875 727.546875 l 1,181,-1
 1097.546875 589.546875 l 1,182,-1
 1097.71875 588.875 l 1,183,-1
 1097.71875 588.1875 l 1,184,-1
 1091.71875 269.203125 l 1,185,-1
 1091.484375 257.453125 l 1,186,-1
 1083.171875 265.765625 l 1,187,-1
 1012.46875 336.46875 l 1,188,-1
 1016 340 l 1,189,-1
 1019.53125 343.546875 l 1,190,-1
 1081.9375 281.140625 l 1,191,-1
 1087.703125 587.6875 l 1,192,-1
 1052.203125 723.71875 l 1,193,-1
 982.453125 793.46875 l 1,194,-1
 986 797 l 1,177,-1
847.28125 560.703125 m 1,195,-1
 847.78125 555.71875 l 1,196,-1
 832.40625 554.140625 l 1,197,-1
 831.890625 559.125 l 1,198,-1
 831.375 564.09375 l 1,199,-1
 846.765625 565.671875 l 1,200,-1
 847.28125 560.703125 l 1,195,-1
785.015625 606 m 1,201,-1
 788.546875 609.53125 l 1,202,-1
 859.25 538.828125 l 1,203,-1
 859.671875 538.359375 l 1,204,-1
 1116.65625 208.359375 l 1,205,-1
 1117.703125 207.015625 l 1,206,-1
 1117.703125 205.296875 l 1,207,-1
 1117.703125 -21.703125 l 1,208,-1
 1117.703125 -26.90625 l 1,209,-1
 1112.515625 -26.703125 l 1,210,-1
 849.53125 -16.703125 l 1,211,-1
 847.578125 -16.640625 l 1,212,-1
 846.1875 -15.25 l 1,213,-1
 775.46875 55.46875 l 1,214,-1
 779.015625 59 l 1,215,-1
 782.546875 62.53125 l 1,216,-1
 851.875 -6.796875 l 1,217,-1
 1107.703125 -16.515625 l 1,218,-1
 1107.703125 203.578125 l 1,219,-1
 851.96875 531.96875 l 1,220,-1
 781.46875 602.46875 l 1,221,-1
 785.015625 606 l 1,201,-1
719.25 337.296875 m 1,222,-1
 719.25 332.296875 l 1,223,-1
 663.625 332.296875 l 1,224,-1
 694.171875 268.203125 l 1,225,-1
 689.671875 266.0625 l 1,226,-1
 685.15625 263.90625 l 1,227,-1
 651.1875 335.140625 l 1,228,-1
 647.78125 342.296875 l 1,229,-1
 655.703125 342.296875 l 1,230,-1
 719.25 342.296875 l 1,231,-1
 719.25 337.296875 l 1,222,-1
796.890625 41.125 m 1,232,-1
 801.40625 43.265625 l 1,233,-1
 834.21875 -25.5625 l 1,234,-1
 835.046875 -27.3125 l 1,235,-1
 834.78125 -28.203125 l 1,236,-1
 821.5 -72.15625 l 1,237,-1
 820.421875 -75.71875 l 1,238,-1
 816.6875 -75.71875 l 1,239,-1
 86.703125 -73.71875 l 1,240,-1
 84.640625 -73.703125 l 1,241,-1
 83.1875 -72.25 l 1,242,-1
 12.46875 -1.53125 l 1,243,-1
 16.015625 2 l 1,244,-1
 19.546875 5.53125 l 1,245,-1
 88.796875 -63.71875 l 1,246,-1
 813 -65.703125 l 1,247,-1
 824.359375 -28.109375 l 1,248,-1
 792.375 38.96875 l 1,249,-1
 796.890625 41.125 l 1,232,-1
EndSplineSet
Validated: 524293
EndChar

StartChar: B
Encoding: 66 66 1
Width: 1094
VWidth: 0
Flags: W
LayerCount: 2
Fore
SplineSet
104.828125 792.28125 m 1,0,-1
 5.046875 647.5 l 1,1,-1
 10.890625 458.453125 l 1,2,-1
 56.8125 440.65625 l 1,3,-1
 60.875 439.078125 l 1,4,-1
 59.859375 434.84375 l 1,5,-1
 24.859375 287.84375 l 1,6,-1
 24.1875 285 l 1,7,-1
 21.375 284.203125 l 1,8,-1
 -2.328125 277.421875 l 1,9,-1
 43.203125 5.1875 l 1,10,-1
 643.78125 32 l 1,11,-1
 644.671875 32.03125 l 1,12,-1
 645.53125 31.765625 l 1,13,-1
 727.640625 5.375 l 1,14,-1
 1037.09375 155.171875 l 1,15,-1
 1043.859375 382.40625 l 1,16,-1
 860.828125 397.828125 l 1,17,-1
 582.453125 131.390625 l 1,18,-1
 581 130 l 1,19,-1
 579 130 l 1,20,-1
 509 130 l 1,21,-1
 499.515625 130 l 1,22,-1
 504.875 137.828125 l 1,23,-1
 643.875 340.828125 l 1,24,-1
 645.28125 342.875 l 1,25,-1
 647.75 342.984375 l 1,26,-1
 770.84375 348.90625 l 1,27,-1
 856.5 433.5625 l 1,28,-1
 858.21875 435.265625 l 1,29,-1
 860.625 434.953125 l 1,30,-1
 999.6875 417.578125 l 1,31,-1
 1026.8125 627.90625 l 1,32,-1
 943.03125 767.25 l 1,33,-1
 377.703125 817.5625 l 1,34,-1
 373.1875 738 l 1,35,-1
 777.234375 536.46875 l 1,36,-1
 780 535.09375 l 1,37,-1
 780 532 l 1,38,-1
 780 453 l 1,39,-1
 780 444.5625 l 1,40,-1
 772.59375 448.609375 l 1,41,-1
 350.59375 679.609375 l 1,42,-1
 348.421875 680.796875 l 1,43,-1
 348.0625 683.25 l 1,44,-1
 327.78125 817.484375 l 1,45,-1
 104.828125 792.28125 l 1,0,-1
101.4375 801.96875 m 1,46,-1
 331.4375 827.96875 l 1,47,-1
 336.21875 828.5 l 1,48,-1
 336.9375 823.75 l 1,49,-1
 357.578125 687.1875 l 1,50,-1
 770 461.4375 l 1,51,-1
 770 528.90625 l 1,52,-1
 365.78125 730.515625 l 1,53,-1
 362.828125 731.984375 l 1,54,-1
 363.015625 735.28125 l 1,55,-1
 368 823.28125 l 1,56,-1
 368.296875 828.4375 l 1,57,-1
 373.4375 827.984375 l 1,58,-1
 946.4375 776.984375 l 1,59,-1
 948.96875 776.765625 l 1,60,-1
 950.28125 774.578125 l 1,61,-1
 1036.28125 631.5625 l 1,62,-1
 1037.1875 630.078125 l 1,63,-1
 1036.953125 628.359375 l 1,64,-1
 1008.96875 411.359375 l 1,65,-1
 1008.328125 406.421875 l 1,66,-1
 1003.375 407.03125 l 1,67,-1
 861.796875 424.734375 l 1,68,-1
 776.515625 340.453125 l 1,69,-1
 775.15625 339.109375 l 1,70,-1
 773.234375 339.015625 l 1,71,-1
 650.71875 333.125 l 1,72,-1
 518.484375 140 l 1,73,-1
 576.984375 140 l 1,74,-1
 855.546875 406.625 l 1,75,-1
 857.171875 408.171875 l 1,76,-1
 859.421875 407.984375 l 1,77,-1
 1049.421875 391.984375 l 1,78,-1
 1054.140625 391.578125 l 1,79,-1
 1054 386.84375 l 1,80,-1
 1047 151.84375 l 1,81,-1
 1046.90625 148.8125 l 1,82,-1
 1044.171875 147.5 l 1,83,-1
 730.1875 -4.5 l 1,84,-1
 728.390625 -5.375 l 1,85,-1
 726.484375 -4.765625 l 1,86,-1
 643.328125 21.96875 l 1,87,-1
 39.21875 -5 l 1,88,-1
 34.796875 -5.1875 l 1,89,-1
 34.0625 -0.828125 l 1,90,-1
 -12.9375 280.1875 l 1,91,-1
 -13.671875 284.59375 l 1,92,-1
 -9.375 285.8125 l 1,93,-1
 15.8125 293.015625 l 1,94,-1
 49.125 432.90625 l 1,95,-1
 4.1875 450.328125 l 1,96,-1
 1.109375 451.53125 l 1,97,-1
 1 454.84375 l 1,98,-1
 -5 648.84375 l 1,99,-1
 -5.046875 650.484375 l 1,100,-1
 -4.125 651.828125 l 1,101,-1
 97.875 799.828125 l 1,102,-1
 99.171875 801.703125 l 1,103,-1
 101.4375 801.96875 l 1,46,-1
6 454.984375 m 1,104,-1
 9.53125 458.53125 l 1,105,-1
 52.765625 415.296875 l 1,106,-1
 49.234375 411.765625 l 1,107,-1
 45.6875 408.21875 l 1,108,-1
 2.46875 451.453125 l 1,109,-1
 6 454.984375 l 1,104,-1
644 27 m 1,110,-1
 647.53125 30.53125 l 1,111,-1
 718.25 -40.171875 l 1,112,-1
 714.703125 -43.703125 l 1,113,-1
 711.171875 -47.25 l 1,114,-1
 640.46875 23.46875 l 1,115,-1
 644 27 l 1,110,-1
728.015625 0 m 1,116,-1
 731.546875 3.53125 l 1,117,-1
 802.25 -67.171875 l 1,118,-1
 798.71875 -70.71875 l 1,119,-1
 795.1875 -74.25 l 1,120,-1
 724.46875 -3.53125 l 1,121,-1
 728.015625 0 l 1,116,-1
1042 152 m 1,122,-1
 1045.53125 155.53125 l 1,123,-1
 1116.25 84.8125 l 1,124,-1
 1112.703125 81.28125 l 1,125,-1
 1109.171875 77.75 l 1,126,-1
 1038.46875 148.453125 l 1,127,-1
 1042 152 l 1,122,-1
648 338 m 1,128,-1
 651.53125 341.53125 l 1,129,-1
 721.515625 271.5625 l 1,130,-1
 717.96875 268.015625 l 1,131,-1
 714.4375 264.484375 l 1,132,-1
 644.46875 334.46875 l 1,133,-1
 648 338 l 1,128,-1
773 344 m 1,134,-1
 776.53125 347.546875 l 1,135,-1
 788.453125 335.625 l 1,136,-1
 784.90625 332.09375 l 1,137,-1
 781.375 328.5625 l 1,138,-1
 769.46875 340.46875 l 1,139,-1
 773 344 l 1,134,-1
860 430 m 1,140,-1
 863.546875 433.53125 l 1,141,-1
 893.109375 403.96875 l 1,142,-1
 889.578125 400.4375 l 1,143,-1
 886.046875 396.890625 l 1,144,-1
 856.46875 426.46875 l 1,145,-1
 860 430 l 1,140,-1
1004 412 m 1,146,-1
 1007.53125 415.53125 l 1,147,-1
 1030.703125 392.375 l 1,148,-1
 1027.171875 388.84375 l 1,149,-1
 1023.625 385.296875 l 1,150,-1
 1000.46875 408.46875 l 1,151,-1
 1004 412 l 1,146,-1
1032 629 m 1,152,-1
 1035.53125 632.53125 l 1,153,-1
 1106.25 561.8125 l 1,154,-1
 1102.71875 558.28125 l 1,155,-1
 1099.171875 554.75 l 1,156,-1
 1028.46875 625.453125 l 1,157,-1
 1032 629 l 1,152,-1
332 823 m 1,158,-1
 335.53125 826.53125 l 1,159,-1
 374.328125 787.734375 l 1,160,-1
 370.796875 784.203125 l 1,161,-1
 367.265625 780.65625 l 1,162,-1
 328.46875 819.453125 l 1,163,-1
 332 823 l 1,158,-1
411.96875 691.03125 m 1,164,-1
 416.90625 691.78125 l 1,165,-1
 423.390625 648.921875 l 1,166,-1
 418.4375 648.171875 l 1,167,-1
 413.5 647.421875 l 1,168,-1
 407.015625 690.28125 l 1,169,-1
 411.96875 691.03125 l 1,164,-1
775 496.5625 m 1,170,-1
 772.765625 492.078125 l 1,171,-1
 436.109375 660 l 1,172,-1
 435.75 660.171875 l 1,173,-1
 435.1875 660.75 l 1,174,-1
 364.46875 731.453125 l 1,175,-1
 368 735 l 1,176,-1
 371.546875 738.53125 l 1,177,-1
 441.671875 668.390625 l 1,178,-1
 777.234375 501.03125 l 1,179,-1
 775 496.5625 l 1,170,-1
946 772 m 1,180,-1
 949.53125 775.546875 l 1,181,-1
 1020.25 704.828125 l 1,182,-1
 1020.671875 704.390625 l 1,183,-1
 1107 560.859375 l 1,184,-1
 1107.890625 559.375 l 1,185,-1
 1107.671875 557.640625 l 1,186,-1
 1081.953125 358.359375 l 1,187,-1
 1077 359 l 1,188,-1
 1072.046875 359.640625 l 1,189,-1
 1097.53125 557.203125 l 1,190,-1
 1012.734375 698.1875 l 1,191,-1
 942.46875 768.46875 l 1,192,-1
 946 772 l 1,180,-1
1049 387 m 1,193,-1
 1052.53125 390.53125 l 1,194,-1
 1123.25 319.828125 l 1,195,-1
 1124.78125 318.296875 l 1,196,-1
 1124.71875 316.140625 l 1,197,-1
 1117.703125 81.140625 l 1,198,-1
 1117.625 78.109375 l 1,199,-1
 1114.890625 76.78125 l 1,200,-1
 800.90625 -75.21875 l 1,201,-1
 799.09375 -76.078125 l 1,202,-1
 797.1875 -75.46875 l 1,203,-1
 714.03125 -48.75 l 1,204,-1
 109.9375 -75.703125 l 1,205,-1
 107.734375 -75.796875 l 1,206,-1
 106.171875 -74.25 l 1,207,-1
 35.46875 -3.53125 l 1,208,-1
 39 0 l 1,209,-1
 42.53125 3.53125 l 1,210,-1
 111.6875 -65.625 l 1,211,-1
 714.484375 -38.71875 l 1,212,-1
 715.375 -38.671875 l 1,213,-1
 716.234375 -38.953125 l 1,214,-1
 798.34375 -65.34375 l 1,215,-1
 1107.796875 84.46875 l 1,216,-1
 1114.65625 314.28125 l 1,217,-1
 1045.46875 383.46875 l 1,218,-1
 1049 387 l 1,193,-1
EndSplineSet
Validated: 524293
EndChar

StartChar: C
Encoding: 67 67 2
Width: 1096
VWidth: 0
Flags: W
LayerCount: 2
Fore
SplineSet
-6.203125 804.953125 m 1,0,-1
 -30.90625 225.03125 l 1,1,-1
 187.03125 13 l 1,2,-1
 842.828125 13 l 1,3,-1
 1029.734375 212.546875 l 1,4,-1
 796.234375 406.953125 l 1,5,-1
 368.0625 396.046875 l 1,6,-1
 338.484375 367.40625 l 1,7,-1
 337.140625 366.109375 l 1,8,-1
 335.265625 366 l 1,9,-1
 298.265625 364 l 1,10,-1
 295.796875 363.875 l 1,11,-1
 294.1875 365.765625 l 1,12,-1
 261.1875 404.765625 l 1,13,-1
 260.09375 406.03125 l 1,14,-1
 260 407.703125 l 1,15,-1
 256 478.734375 l 1,16,-1
 255.703125 484.015625 l 1,17,-1
 261 484.015625 l 1,18,-1
 456 484 l 1,19,-1
 458.4375 484 l 1,20,-1
 459.9375 482.078125 l 1,21,-1
 501.34375 429.109375 l 1,22,-1
 819.78125 443 l 1,23,-1
 821.609375 443.078125 l 1,24,-1
 823.0625 441.96875 l 1,25,-1
 873.53125 402.921875 l 1,26,-1
 1022.640625 480.375 l 1,27,-1
 1055.375 620.890625 l 1,28,-1
 796.390625 808 l 1,29,-1
 199.46875 806.015625 l 1,30,-1
 167.6875 721.25 l 1,31,-1
 166.46875 718 l 1,32,-1
 163 718 l 1,33,-1
 102 718 l 1,34,-1
 98.203125 718 l 1,35,-1
 97.1875 721.65625 l 1,36,-1
 74.1875 804.03125 l 1,37,-1
 -6.203125 804.953125 l 1,0,-1
-10.9375 815 m 1,38,-1
 78.0625 814 l 1,39,-1
 81.8125 813.953125 l 1,40,-1
 82.8125 810.34375 l 1,41,-1
 105.796875 728 l 1,42,-1
 159.53125 728 l 1,43,-1
 191.3125 812.765625 l 1,44,-1
 192.53125 816 l 1,45,-1
 195.984375 816 l 1,46,-1
 797.984375 818 l 1,47,-1
 799.609375 818.015625 l 1,48,-1
 800.9375 817.0625 l 1,49,-1
 1063.9375 627.046875 l 1,50,-1
 1066.625 625.09375 l 1,51,-1
 1065.875 621.859375 l 1,52,-1
 1031.859375 475.859375 l 1,53,-1
 1031.34375 473.625 l 1,54,-1
 1029.296875 472.5625 l 1,55,-1
 875.3125 392.5625 l 1,56,-1
 872.46875 391.09375 l 1,57,-1
 869.9375 393.046875 l 1,58,-1
 818.390625 432.9375 l 1,59,-1
 499.21875 419 l 1,60,-1
 496.640625 418.890625 l 1,61,-1
 495.0625 420.921875 l 1,62,-1
 453.5625 474 l 1,63,-1
 266.28125 474.015625 l 1,64,-1
 269.890625 409.9375 l 1,65,-1
 300.21875 374.125 l 1,66,-1
 332.875 375.890625 l 1,67,-1
 362.515625 404.59375 l 1,68,-1
 363.921875 405.9375 l 1,69,-1
 365.875 406 l 1,70,-1
 797.859375 417 l 1,71,-1
 799.75 417.046875 l 1,72,-1
 801.1875 415.84375 l 1,73,-1
 1040.203125 216.84375 l 1,74,-1
 1044.28125 213.453125 l 1,75,-1
 1040.65625 209.59375 l 1,76,-1
 848.640625 4.578125 l 1,77,-1
 847.15625 3 l 1,78,-1
 845 3 l 1,79,-1
 185 3 l 1,80,-1
 182.96875 3 l 1,81,-1
 181.515625 4.421875 l 1,82,-1
 -39.484375 219.421875 l 1,83,-1
 -41.09375 220.984375 l 1,84,-1
 -40.984375 223.21875 l 1,85,-1
 -15.984375 810.21875 l 1,86,-1
 -15.78125 815.0625 l 1,87,-1
 -10.9375 815 l 1,38,-1
185 8 m 1,88,-1
 188.53125 11.53125 l 1,89,-1
 259.25 -59.171875 l 1,90,-1
 255.703125 -62.71875 l 1,91,-1
 252.171875 -66.25 l 1,92,-1
 181.46875 4.46875 l 1,93,-1
 185 8 l 1,88,-1
845 8 m 1,94,-1
 848.53125 11.53125 l 1,95,-1
 919.234375 -59.171875 l 1,96,-1
 915.703125 -62.71875 l 1,97,-1
 912.171875 -66.25 l 1,98,-1
 841.453125 4.46875 l 1,99,-1
 845 8 l 1,94,-1
265 407.984375 m 1,100,-1
 268.53125 411.53125 l 1,101,-1
 307.21875 372.84375 l 1,102,-1
 303.6875 369.3125 l 1,103,-1
 300.140625 365.765625 l 1,104,-1
 261.46875 404.453125 l 1,105,-1
 265 407.984375 l 1,100,-1
261 479.015625 m 1,106,-1
 264.53125 482.546875 l 1,107,-1
 335.25 411.828125 l 1,108,-1
 331.703125 408.296875 l 1,109,-1
 328.171875 404.765625 l 1,110,-1
 257.46875 475.46875 l 1,111,-1
 261 479.015625 l 1,106,-1
499 424 m 1,112,-1
 502.53125 427.53125 l 1,113,-1
 521.65625 408.40625 l 1,114,-1
 518.125 404.875 l 1,115,-1
 514.59375 401.34375 l 1,116,-1
 495.46875 420.46875 l 1,117,-1
 499 424 l 1,112,-1
820 438.015625 m 1,118,-1
 823.53125 441.546875 l 1,119,-1
 894.25 370.828125 l 1,120,-1
 890.71875 367.296875 l 1,121,-1
 887.171875 363.765625 l 1,122,-1
 816.46875 434.46875 l 1,123,-1
 820 438.015625 l 1,118,-1
873 397 m 1,124,-1
 876.53125 400.546875 l 1,125,-1
 947.25 329.828125 l 1,126,-1
 943.71875 326.296875 l 1,127,-1
 940.171875 322.765625 l 1,128,-1
 869.46875 393.46875 l 1,129,-1
 873 397 l 1,124,-1
1027 477 m 1,130,-1
 1030.53125 480.53125 l 1,131,-1
 1101.234375 409.828125 l 1,132,-1
 1097.703125 406.28125 l 1,133,-1
 1094.171875 402.75 l 1,134,-1
 1023.453125 473.46875 l 1,135,-1
 1027 477 l 1,130,-1
78 809 m 1,136,-1
 81.53125 812.53125 l 1,137,-1
 152.25 741.828125 l 1,138,-1
 153.171875 740.890625 l 1,139,-1
 153.53125 739.625 l 1,140,-1
 157.796875 724.34375 l 1,141,-1
 152.984375 723 l 1,142,-1
 148.15625 721.65625 l 1,143,-1
 144.25 735.671875 l 1,144,-1
 74.46875 805.46875 l 1,145,-1
 78 809 l 1,136,-1
1061 623 m 1,146,-1
 1064.53125 626.53125 l 1,147,-1
 1135.25 555.8125 l 1,148,-1
 1137.21875 553.859375 l 1,149,-1
 1136.578125 551.15625 l 1,150,-1
 1102.578125 405.15625 l 1,151,-1
 1102.046875 402.90625 l 1,152,-1
 1100.015625 401.84375 l 1,153,-1
 946.015625 321.859375 l 1,154,-1
 943.1875 320.390625 l 1,155,-1
 940.65625 322.34375 l 1,156,-1
 889.09375 362.21875 l 1,157,-1
 853.84375 360.6875 l 1,158,-1
 853.625 365.6875 l 1,159,-1
 853.40625 370.671875 l 1,160,-1
 890.5 372.296875 l 1,161,-1
 892.328125 372.375 l 1,162,-1
 893.765625 371.25 l 1,163,-1
 944.25 332.203125 l 1,164,-1
 1093.359375 409.65625 l 1,165,-1
 1126.21875 550.71875 l 1,166,-1
 1057.46875 619.453125 l 1,167,-1
 1061 623 l 1,146,-1
514.703125 408.28125 m 1,168,-1
 514.703125 403.28125 l 1,169,-1
 337 403.296875 l 1,170,-1
 338.8125 371.21875 l 1,171,-1
 333.8125 370.9375 l 1,172,-1
 328.828125 370.65625 l 1,173,-1
 326.71875 408.015625 l 1,174,-1
 326.421875 413.296875 l 1,175,-1
 331.71875 413.296875 l 1,176,-1
 514.703125 413.28125 l 1,177,-1
 514.703125 408.28125 l 1,168,-1
1037 213 m 1,178,-1
 1040.546875 216.546875 l 1,179,-1
 1111.25 145.828125 l 1,180,-1
 1114.671875 142.40625 l 1,181,-1
 1111.359375 138.875 l 1,182,-1
 919.359375 -66.125 l 1,183,-1
 917.875 -67.71875 l 1,184,-1
 915.703125 -67.71875 l 1,185,-1
 255.703125 -67.71875 l 1,186,-1
 253.671875 -67.71875 l 1,187,-1
 252.21875 -66.296875 l 1,188,-1
 31.203125 148.734375 l 1,189,-1
 -39.53125 219.46875 l 1,190,-1
 -36 223 l 1,191,-1
 -32.46875 226.53125 l 1,192,-1
 38.21875 155.859375 l 1,193,-1
 257.734375 -57.71875 l 1,194,-1
 913.53125 -57.71875 l 1,195,-1
 1100.765625 142.1875 l 1,196,-1
 1033.46875 209.46875 l 1,197,-1
 1037 213 l 1,178,-1
EndSplineSet
Validated: 524293
EndChar

StartChar: D
Encoding: 68 68 3
Width: 1096
VWidth: 0
Flags: W
LayerCount: 2
Fore
SplineSet
66.828125 800.953125 m 1,0,-1
 6.109375 574.453125 l 1,1,-1
 318.546875 485.46875 l 1,2,-1
 326.015625 569.4375 l 1,3,-1
 326.21875 571.84375 l 1,4,-1
 328.234375 573.171875 l 1,5,-1
 387.234375 612.171875 l 1,6,-1
 392.46875 615.625 l 1,7,-1
 394.671875 609.765625 l 1,8,-1
 480.6875 380.75 l 1,9,-1
 481.1875 379.40625 l 1,10,-1
 480.90625 378 l 1,11,-1
 447.90625 216 l 1,12,-1
 447.234375 212.734375 l 1,13,-1
 443.96875 212.09375 l 1,14,-1
 372.96875 198.09375 l 1,15,-1
 370.09375 197.53125 l 1,16,-1
 368.1875 199.78125 l 1,17,-1
 335.1875 238.765625 l 1,18,-1
 334.1875 239.953125 l 1,19,-1
 334.03125 241.484375 l 1,20,-1
 313.359375 445.15625 l 1,21,-1
 -1.265625 538.375 l 1,22,-1
 -13.90625 222.921875 l 1,23,-1
 187.125 13 l 1,24,-1
 842.375 13 l 1,25,-1
 1000.203125 241.84375 l 1,26,-1
 1049.671875 618.734375 l 1,27,-1
 796.359375 807.984375 l 1,28,-1
 235.515625 802.046875 l 1,29,-1
 204.703125 717.28125 l 1,30,-1
 203.5 714 l 1,31,-1
 200 714 l 1,32,-1
 177 714 l 1,33,-1
 173.203125 714 l 1,34,-1
 172.1875 717.65625 l 1,35,-1
 149.1875 800.03125 l 1,36,-1
 66.828125 800.953125 l 1,0,-1
63.046875 810.984375 m 1,37,-1
 153.0625 810 l 1,38,-1
 156.8125 809.953125 l 1,39,-1
 157.8125 806.34375 l 1,40,-1
 180.796875 724 l 1,41,-1
 196.5 724 l 1,42,-1
 227.296875 808.71875 l 1,43,-1
 228.484375 811.96875 l 1,44,-1
 231.9375 812 l 1,45,-1
 797.953125 818 l 1,46,-1
 799.640625 818.03125 l 1,47,-1
 801 817.015625 l 1,48,-1
 1058 625 l 1,49,-1
 1060.34375 623.25 l 1,50,-1
 1059.96875 620.34375 l 1,51,-1
 1009.953125 239.34375 l 1,52,-1
 1009.796875 238.15625 l 1,53,-1
 1009.109375 237.15625 l 1,54,-1
 849.109375 5.15625 l 1,55,-1
 847.625 3 l 1,56,-1
 845 3 l 1,57,-1
 185 3 l 1,58,-1
 182.859375 3 l 1,59,-1
 181.390625 4.546875 l 1,60,-1
 -22.609375 217.546875 l 1,61,-1
 -24.078125 219.078125 l 1,62,-1
 -23.984375 221.203125 l 1,63,-1
 -11 545.1875 l 1,64,-1
 -10.734375 551.609375 l 1,65,-1
 -4.578125 549.78125 l 1,66,-1
 319.421875 453.78125 l 1,67,-1
 322.640625 452.828125 l 1,68,-1
 322.96875 449.5 l 1,69,-1
 343.8125 244.046875 l 1,70,-1
 373.921875 208.484375 l 1,71,-1
 438.765625 221.25 l 1,72,-1
 470.8125 378.59375 l 1,73,-1
 387.515625 600.375 l 1,74,-1
 335.765625 566.15625 l 1,75,-1
 327.96875 478.5625 l 1,76,-1
 327.4375 472.53125 l 1,77,-1
 321.625 474.1875 l 1,78,-1
 -1.375 566.1875 l 1,79,-1
 -6.109375 567.53125 l 1,80,-1
 -4.828125 572.28125 l 1,81,-1
 58.171875 807.28125 l 1,82,-1
 59.171875 811.03125 l 1,83,-1
 63.046875 810.984375 l 1,37,-1
-0 570.984375 m 1,84,-1
 3.53125 574.53125 l 1,85,-1
 43 535.0625 l 1,86,-1
 39.46875 531.515625 l 1,87,-1
 35.9375 527.984375 l 1,88,-1
 -3.53125 567.453125 l 1,89,-1
 -0 570.984375 l 1,84,-1
323 479 m 1,90,-1
 326.53125 482.53125 l 1,91,-1
 397.234375 411.828125 l 1,92,-1
 393.703125 408.28125 l 1,93,-1
 390.171875 404.75 l 1,94,-1
 319.453125 475.46875 l 1,95,-1
 323 479 l 1,90,-1
331 569 m 1,96,-1
 334.53125 572.53125 l 1,97,-1
 405.234375 501.828125 l 1,98,-1
 401.703125 498.28125 l 1,99,-1
 398.171875 494.75 l 1,100,-1
 327.453125 565.46875 l 1,101,-1
 331 569 l 1,96,-1
845 8 m 1,102,-1
 848.53125 11.53125 l 1,103,-1
 919.234375 -59.171875 l 1,104,-1
 915.703125 -62.71875 l 1,105,-1
 912.171875 -66.25 l 1,106,-1
 841.453125 4.46875 l 1,107,-1
 845 8 l 1,102,-1
1005 240 m 1,108,-1
 1008.53125 243.53125 l 1,109,-1
 1079.25 172.828125 l 1,110,-1
 1075.703125 169.28125 l 1,111,-1
 1072.171875 165.75 l 1,112,-1
 1001.46875 236.46875 l 1,113,-1
 1005 240 l 1,108,-1
153 805 m 1,114,-1
 156.53125 808.53125 l 1,115,-1
 213.9375 751.140625 l 1,116,-1
 210.40625 747.59375 l 1,117,-1
 206.859375 744.0625 l 1,118,-1
 149.46875 801.46875 l 1,119,-1
 153 805 l 1,114,-1
1055 621 m 1,120,-1
 1058.53125 624.53125 l 1,121,-1
 1129.25 553.8125 l 1,122,-1
 1131 552.078125 l 1,123,-1
 1130.671875 549.625 l 1,124,-1
 1080.671875 168.640625 l 1,125,-1
 1080.515625 167.4375 l 1,126,-1
 1079.828125 166.453125 l 1,127,-1
 919.8125 -65.546875 l 1,128,-1
 918.328125 -67.71875 l 1,129,-1
 915.703125 -67.71875 l 1,130,-1
 255.703125 -67.71875 l 1,131,-1
 253.640625 -67.71875 l 1,132,-1
 252.171875 -66.25 l 1,133,-1
 181.46875 4.46875 l 1,134,-1
 185 8 l 1,135,-1
 188.53125 11.53125 l 1,136,-1
 257.78125 -57.71875 l 1,137,-1
 913.078125 -57.71875 l 1,138,-1
 1070.90625 171.125 l 1,139,-1
 1120.4375 548.484375 l 1,140,-1
 1051.46875 617.453125 l 1,141,-1
 1055 621 l 1,120,-1
318 448.984375 m 1,142,-1
 321.53125 452.53125 l 1,143,-1
 392.25 381.8125 l 1,144,-1
 393.5 380.5625 l 1,145,-1
 393.6875 378.78125 l 1,146,-1
 410.796875 210.171875 l 1,147,-1
 405.8125 209.671875 l 1,148,-1
 400.84375 209.15625 l 1,149,-1
 383.921875 376 l 1,150,-1
 314.46875 445.453125 l 1,151,-1
 318 448.984375 l 1,142,-1
425.328125 513.90625 m 1,152,-1
 428.09375 509.734375 l 1,153,-1
 406.46875 495.453125 l 1,154,-1
 398.6875 407.84375 l 1,155,-1
 398.15625 401.828125 l 1,156,-1
 392.328125 403.484375 l 1,157,-1
 343.390625 417.421875 l 1,158,-1
 344.765625 422.21875 l 1,159,-1
 346.125 427.03125 l 1,160,-1
 389.265625 414.75 l 1,161,-1
 396.71875 498.734375 l 1,162,-1
 396.9375 501.125 l 1,163,-1
 398.546875 502.1875 l 1,164,-1
 422.578125 518.078125 l 1,165,-1
 425.328125 513.90625 l 1,152,-1
EndSplineSet
Validated: 524293
EndChar

StartChar: E
Encoding: 69 69 4
Width: 1096
VWidth: 0
Flags: W
LayerCount: 2
Fore
SplineSet
-3.21875 808.953125 m 1,0,-1
 -27.921875 228.75 l 1,1,-1
 153.328125 16.984375 l 1,2,-1
 865.546875 9.03125 l 1,3,-1
 1020.90625 212.546875 l 1,4,-1
 1015.21875 307.265625 l 1,5,-1
 804.6875 373.53125 l 1,6,-1
 658.640625 282.75 l 1,7,-1
 657.4375 282 l 1,8,-1
 656.03125 282 l 1,9,-1
 376.3125 280.015625 l 1,10,-1
 340.796875 238.75 l 1,11,-1
 336.09375 233.28125 l 1,12,-1
 332.625 239.59375 l 1,13,-1
 293.625 310.59375 l 1,14,-1
 289.578125 317.953125 l 1,15,-1
 297.96875 318 l 1,16,-1
 622.65625 319.984375 l 1,17,-1
 842.546875 446.34375 l 1,18,-1
 755.546875 504.953125 l 1,19,-1
 321.15625 491 l 1,20,-1
 318.28125 490.90625 l 1,21,-1
 316.765625 493.34375 l 1,22,-1
 262.765625 579.328125 l 1,23,-1
 257.953125 587 l 1,24,-1
 267 587 l 1,25,-1
 462 587 l 1,26,-1
 464.453125 587 l 1,27,-1
 465.953125 585.046875 l 1,28,-1
 507.375 531.109375 l 1,29,-1
 825.765625 545.984375 l 1,30,-1
 827.25 546.0625 l 1,31,-1
 828.515625 545.3125 l 1,32,-1
 902.78125 501.921875 l 1,33,-1
 1018.34375 581.5625 l 1,34,-1
 1043.28125 619.84375 l 1,35,-1
 796.3125 808.015625 l 1,36,-1
 164.453125 810 l 1,37,-1
 132.671875 725.25 l 1,38,-1
 131.46875 722 l 1,39,-1
 128 722 l 1,40,-1
 105 722 l 1,41,-1
 101.203125 722 l 1,42,-1
 100.1875 725.65625 l 1,43,-1
 77.1875 808.046875 l 1,44,-1
 -3.21875 808.953125 l 1,0,-1
-7.953125 819 m 1,45,-1
 81.046875 818 l 1,46,-1
 84.796875 817.96875 l 1,47,-1
 85.8125 814.34375 l 1,48,-1
 108.796875 732 l 1,49,-1
 124.53125 732 l 1,50,-1
 156.3125 816.765625 l 1,51,-1
 157.53125 820.015625 l 1,52,-1
 161.015625 820 l 1,53,-1
 798.015625 818 l 1,54,-1
 799.703125 818 l 1,55,-1
 801.03125 816.984375 l 1,56,-1
 1053.03125 624.984375 l 1,57,-1
 1056.71875 622.171875 l 1,58,-1
 1054.1875 618.28125 l 1,59,-1
 1026.1875 575.28125 l 1,60,-1
 1025.65625 574.453125 l 1,61,-1
 1024.84375 573.890625 l 1,62,-1
 905.84375 491.890625 l 1,63,-1
 903.234375 490.078125 l 1,64,-1
 900.484375 491.6875 l 1,65,-1
 824.75 535.921875 l 1,66,-1
 505.234375 521 l 1,67,-1
 502.625 520.875 l 1,68,-1
 501.046875 522.953125 l 1,69,-1
 459.53125 577 l 1,70,-1
 276.046875 577 l 1,71,-1
 323.703125 501.09375 l 1,72,-1
 756.84375 515 l 1,73,-1
 758.453125 515.046875 l 1,74,-1
 759.796875 514.140625 l 1,75,-1
 854.796875 450.15625 l 1,76,-1
 861.453125 445.671875 l 1,77,-1
 854.484375 441.671875 l 1,78,-1
 626.484375 310.65625 l 1,79,-1
 625.34375 310 l 1,80,-1
 624.03125 310 l 1,81,-1
 306.421875 308.0625 l 1,82,-1
 337.921875 250.734375 l 1,83,-1
 370.21875 288.265625 l 1,84,-1
 371.703125 289.984375 l 1,85,-1
 373.96875 290 l 1,86,-1
 654.546875 291.984375 l 1,87,-1
 801.34375 383.25 l 1,88,-1
 803.296875 384.453125 l 1,89,-1
 805.5 383.765625 l 1,90,-1
 1021.5 315.765625 l 1,91,-1
 1024.78125 314.734375 l 1,92,-1
 1025 311.296875 l 1,93,-1
 1031 211.296875 l 1,94,-1
 1031.109375 209.4375 l 1,95,-1
 1029.96875 207.953125 l 1,96,-1
 871.96875 0.96875 l 1,97,-1
 870.453125 -1.03125 l 1,98,-1
 867.9375 -1 l 1,99,-1
 150.9375 7.015625 l 1,100,-1
 148.671875 7.03125 l 1,101,-1
 147.203125 8.765625 l 1,102,-1
 -36.796875 223.734375 l 1,103,-1
 -38.078125 225.234375 l 1,104,-1
 -38 227.203125 l 1,105,-1
 -13 814.21875 l 1,106,-1
 -12.796875 819.0625 l 1,107,-1
 -7.953125 819 l 1,45,-1
868 4 m 1,108,-1
 871.53125 7.53125 l 1,109,-1
 942.25 -63.171875 l 1,110,-1
 938.703125 -66.71875 l 1,111,-1
 935.171875 -70.25 l 1,112,-1
 864.453125 0.46875 l 1,113,-1
 868 4 l 1,108,-1
1026 211 m 1,114,-1
 1029.53125 214.53125 l 1,115,-1
 1100.25 143.8125 l 1,116,-1
 1096.71875 140.28125 l 1,117,-1
 1093.171875 136.75 l 1,118,-1
 1022.46875 207.453125 l 1,119,-1
 1026 211 l 1,114,-1
298 313 m 1,120,-1
 301.53125 316.546875 l 1,121,-1
 355.34375 262.734375 l 1,122,-1
 351.796875 259.203125 l 1,123,-1
 348.265625 255.671875 l 1,124,-1
 294.46875 309.46875 l 1,125,-1
 298 313 l 1,120,-1
624 315 m 1,126,-1
 627.53125 318.53125 l 1,127,-1
 655.5625 290.5 l 1,128,-1
 652.03125 286.96875 l 1,129,-1
 648.484375 283.4375 l 1,130,-1
 620.46875 311.453125 l 1,131,-1
 624 315 l 1,126,-1
267 582 m 1,132,-1
 270.53125 585.53125 l 1,133,-1
 341.25 514.8125 l 1,134,-1
 337.703125 511.28125 l 1,135,-1
 334.171875 507.75 l 1,136,-1
 263.46875 578.453125 l 1,137,-1
 267 582 l 1,132,-1
505 526 m 1,138,-1
 508.546875 529.53125 l 1,139,-1
 531.875 506.1875 l 1,140,-1
 528.34375 502.65625 l 1,141,-1
 524.8125 499.125 l 1,142,-1
 501.46875 522.46875 l 1,143,-1
 505 526 l 1,138,-1
826 541 m 1,144,-1
 829.53125 544.53125 l 1,145,-1
 900.25 473.8125 l 1,146,-1
 896.71875 470.28125 l 1,147,-1
 893.171875 466.75 l 1,148,-1
 822.46875 537.453125 l 1,149,-1
 826 541 l 1,144,-1
903.015625 496 m 1,150,-1
 906.546875 499.53125 l 1,151,-1
 977.25 428.828125 l 1,152,-1
 973.71875 425.296875 l 1,153,-1
 970.1875 421.75 l 1,154,-1
 899.46875 492.46875 l 1,155,-1
 903.015625 496 l 1,150,-1
1022 578 m 1,156,-1
 1025.53125 581.546875 l 1,157,-1
 1096.25 510.828125 l 1,158,-1
 1092.71875 507.296875 l 1,159,-1
 1089.171875 503.765625 l 1,160,-1
 1018.46875 574.46875 l 1,161,-1
 1022 578 l 1,156,-1
81 813 m 1,162,-1
 84.53125 816.546875 l 1,163,-1
 142.171875 758.90625 l 1,164,-1
 138.640625 755.375 l 1,165,-1
 135.09375 751.828125 l 1,166,-1
 77.46875 809.46875 l 1,167,-1
 81 813 l 1,162,-1
1050 621 m 1,168,-1
 1053.53125 624.546875 l 1,169,-1
 1124.25 553.828125 l 1,170,-1
 1127.109375 550.96875 l 1,171,-1
 1124.90625 547.5625 l 1,172,-1
 1096.90625 504.5625 l 1,173,-1
 1096.359375 503.734375 l 1,174,-1
 1095.546875 503.171875 l 1,175,-1
 976.5625 421.171875 l 1,176,-1
 973.9375 419.375 l 1,177,-1
 971.203125 420.96875 l 1,178,-1
 895.46875 465.21875 l 1,179,-1
 821.4375 461.765625 l 1,180,-1
 821.203125 466.75 l 1,181,-1
 820.96875 471.75 l 1,182,-1
 896.484375 475.28125 l 1,183,-1
 897.953125 475.34375 l 1,184,-1
 899.234375 474.59375 l 1,185,-1
 973.5 431.21875 l 1,186,-1
 1089.0625 510.84375 l 1,187,-1
 1114.3125 549.625 l 1,188,-1
 1046.46875 617.46875 l 1,189,-1
 1050 621 l 1,168,-1
519.71875 511.296875 m 1,190,-1
 519.71875 506.296875 l 1,191,-1
 346.75 506.28125 l 1,192,-1
 351.015625 499.484375 l 1,193,-1
 346.78125 496.828125 l 1,194,-1
 342.546875 494.171875 l 1,195,-1
 333.46875 508.625 l 1,196,-1
 328.671875 516.28125 l 1,197,-1
 336.5625 516.28125 l 1,198,-1
 519.71875 516.296875 l 1,199,-1
 519.71875 511.296875 l 1,190,-1
852 446 m 1,200,-1
 855.53125 449.546875 l 1,201,-1
 926.25 378.828125 l 1,202,-1
 930.859375 374.21875 l 1,203,-1
 925.203125 370.96875 l 1,204,-1
 887.34375 349.203125 l 1,205,-1
 884.84375 353.546875 l 1,206,-1
 882.359375 357.875 l 1,207,-1
 914.5625 376.375 l 1,208,-1
 848.46875 442.46875 l 1,209,-1
 852 446 l 1,200,-1
1020 311 m 1,210,-1
 1023.53125 314.53125 l 1,211,-1
 1094.25 243.8125 l 1,212,-1
 1095.59375 242.484375 l 1,213,-1
 1095.703125 240.578125 l 1,214,-1
 1101.703125 140.578125 l 1,215,-1
 1101.8125 138.734375 l 1,216,-1
 1100.6875 137.25 l 1,217,-1
 942.6875 -69.75 l 1,218,-1
 941.15625 -71.734375 l 1,219,-1
 938.65625 -71.71875 l 1,220,-1
 221.65625 -63.703125 l 1,221,-1
 219.625 -63.671875 l 1,222,-1
 218.171875 -62.234375 l 1,223,-1
 147.46875 8.46875 l 1,224,-1
 151 12.015625 l 1,225,-1
 154.53125 15.546875 l 1,226,-1
 223.8125 -53.71875 l 1,227,-1
 936.25 -61.6875 l 1,228,-1
 1091.609375 141.84375 l 1,229,-1
 1085.828125 238.09375 l 1,230,-1
 1016.46875 307.453125 l 1,231,-1
 1020 311 l 1,210,-1
EndSplineSet
Validated: 524293
EndChar

StartChar: F
Encoding: 70 70 5
Width: 1096
VWidth: 0
Flags: W
LayerCount: 2
Fore
SplineSet
18.21875 782.828125 m 1,0,-1
 -25.984375 515.65625 l 1,1,-1
 -15.0625 68.609375 l 1,2,-1
 53.671875 18.96875 l 1,3,-1
 684.140625 5.109375 l 1,4,-1
 688.859375 177 l 1,5,-1
 587 177 l 1,6,-1
 582 177 l 1,7,-1
 582 182 l 1,8,-1
 582 205 l 1,9,-1
 582 210.09375 l 1,10,-1
 587.09375 210 l 1,11,-1
 810 206.09375 l 1,12,-1
 810 352.125 l 1,13,-1
 664.75 516.984375 l 1,14,-1
 322.84375 515.03125 l 1,15,-1
 319 398.84375 l 1,16,-1
 318.8125 393.484375 l 1,17,-1
 313.484375 394.03125 l 1,18,-1
 284.484375 397.03125 l 1,19,-1
 279.96875 397.5 l 1,20,-1
 280 402.03125 l 1,21,-1
 281 545.03125 l 1,22,-1
 281 545.828125 l 1,23,-1
 281.265625 546.578125 l 1,24,-1
 291.25 576.578125 l 1,25,-1
 292.453125 580.15625 l 1,26,-1
 296.203125 580 l 1,27,-1
 685.203125 564 l 1,28,-1
 687.390625 563.90625 l 1,29,-1
 688.8125 562.234375 l 1,30,-1
 840.3125 384 l 1,31,-1
 1021.3125 384 l 1,32,-1
 1037.921875 648.0625 l 1,33,-1
 975.796875 783 l 1,34,-1
 274.09375 783 l 1,35,-1
 257.46875 749.765625 l 1,36,-1
 253.859375 742.53125 l 1,37,-1
 249 749 l 1,38,-1
 229.421875 775.09375 l 1,39,-1
 18.21875 782.828125 l 1,0,-1
14.1875 792.984375 m 1,40,-1
 232.1875 785 l 1,41,-1
 234.5625 784.90625 l 1,42,-1
 236 783 l 1,43,-1
 252.140625 761.46875 l 1,44,-1
 266.53125 790.234375 l 1,45,-1
 267.90625 793 l 1,46,-1
 271 793 l 1,47,-1
 979 793 l 1,48,-1
 982.203125 793 l 1,49,-1
 983.546875 790.078125 l 1,50,-1
 1047.53125 651.09375 l 1,51,-1
 1048.0625 649.953125 l 1,52,-1
 1047.984375 648.6875 l 1,53,-1
 1030.984375 378.6875 l 1,54,-1
 1030.703125 374 l 1,55,-1
 1026 374 l 1,56,-1
 838 374 l 1,57,-1
 835.6875 374 l 1,58,-1
 834.1875 375.765625 l 1,59,-1
 682.609375 554.09375 l 1,60,-1
 299.5625 569.84375 l 1,61,-1
 291 544.171875 l 1,62,-1
 290.03125 406.515625 l 1,63,-1
 309.1875 404.53125 l 1,64,-1
 313 520.171875 l 1,65,-1
 313.15625 524.984375 l 1,66,-1
 317.96875 525.015625 l 1,67,-1
 666.96875 527 l 1,68,-1
 669.25 527.015625 l 1,69,-1
 670.75 525.3125 l 1,70,-1
 818.75 357.3125 l 1,71,-1
 820 355.890625 l 1,72,-1
 820 354 l 1,73,-1
 820 201 l 1,74,-1
 820 195.921875 l 1,75,-1
 814.90625 196 l 1,76,-1
 592 199.921875 l 1,77,-1
 592 187 l 1,78,-1
 694 187 l 1,79,-1
 699.125 187 l 1,80,-1
 698.984375 181.859375 l 1,81,-1
 694 -0.140625 l 1,82,-1
 693.875 -5.109375 l 1,83,-1
 688.90625 -5 l 1,84,-1
 51.890625 9 l 1,85,-1
 50.34375 9.03125 l 1,86,-1
 49.078125 9.9375 l 1,87,-1
 -22.921875 61.953125 l 1,88,-1
 -24.9375 63.40625 l 1,89,-1
 -25 65.875 l 1,90,-1
 -35.984375 515.875 l 1,91,-1
 -36 516.34375 l 1,92,-1
 9.0625 788.8125 l 1,93,-1
 9.78125 793.15625 l 1,94,-1
 14.1875 792.984375 l 1,40,-1
52 14 m 1,95,-1
 55.546875 17.53125 l 1,96,-1
 126.25 -53.171875 l 1,97,-1
 122.71875 -56.71875 l 1,98,-1
 119.1875 -60.25 l 1,99,-1
 48.46875 10.46875 l 1,100,-1
 52 14 l 1,95,-1
587 205 m 1,101,-1
 590.53125 208.546875 l 1,102,-1
 613.53125 185.53125 l 1,103,-1
 610 182 l 1,104,-1
 606.46875 178.46875 l 1,105,-1
 583.46875 201.46875 l 1,106,-1
 587 205 l 1,101,-1
815 201 m 1,107,-1
 818.53125 204.546875 l 1,108,-1
 889.25 133.828125 l 1,109,-1
 885.703125 130.296875 l 1,110,-1
 882.171875 126.765625 l 1,111,-1
 811.453125 197.46875 l 1,112,-1
 815 201 l 1,107,-1
815 354 m 1,113,-1
 818.53125 357.546875 l 1,114,-1
 889.25 286.828125 l 1,115,-1
 885.703125 283.296875 l 1,116,-1
 882.171875 279.765625 l 1,117,-1
 811.453125 350.46875 l 1,118,-1
 815 354 l 1,113,-1
286 545 m 1,119,-1
 289.53125 548.53125 l 1,120,-1
 321.3125 516.765625 l 1,121,-1
 317.78125 513.234375 l 1,122,-1
 314.234375 509.6875 l 1,123,-1
 282.46875 541.46875 l 1,124,-1
 286 545 l 1,119,-1
296 575 m 1,125,-1
 299.53125 578.53125 l 1,126,-1
 354.34375 523.734375 l 1,127,-1
 350.796875 520.203125 l 1,128,-1
 347.265625 516.65625 l 1,129,-1
 292.46875 571.46875 l 1,130,-1
 296 575 l 1,125,-1
1026 379 m 1,131,-1
 1029.53125 382.53125 l 1,132,-1
 1100.25 311.828125 l 1,133,-1
 1096.71875 308.28125 l 1,134,-1
 1093.171875 304.75 l 1,135,-1
 1022.46875 375.46875 l 1,136,-1
 1026 379 l 1,131,-1
1043 649 m 1,137,-1
 1046.53125 652.53125 l 1,138,-1
 1117.234375 581.828125 l 1,139,-1
 1113.703125 578.296875 l 1,140,-1
 1110.171875 574.75 l 1,141,-1
 1039.453125 645.46875 l 1,142,-1
 1043 649 l 1,137,-1
253 752 m 1,143,-1
 256.53125 755.53125 l 1,144,-1
 327.25 684.828125 l 1,145,-1
 323.71875 681.28125 l 1,146,-1
 320.171875 677.75 l 1,147,-1
 249.46875 748.46875 l 1,148,-1
 253 752 l 1,143,-1
232 780 m 1,149,-1
 235.53125 783.546875 l 1,150,-1
 258.875 760.203125 l 1,151,-1
 255.328125 756.671875 l 1,152,-1
 251.796875 753.125 l 1,153,-1
 228.46875 776.46875 l 1,154,-1
 232 780 l 1,149,-1
979 788 m 1,155,-1
 982.53125 791.53125 l 1,156,-1
 1053.25 720.8125 l 1,157,-1
 1053.875 720.1875 l 1,158,-1
 1054.25 719.375 l 1,159,-1
 1118.25 580.375 l 1,160,-1
 1118.78125 579.234375 l 1,161,-1
 1118.6875 577.984375 l 1,162,-1
 1101.703125 307.96875 l 1,163,-1
 1101.40625 303.28125 l 1,164,-1
 1096.71875 303.28125 l 1,165,-1
 908.703125 303.28125 l 1,166,-1
 906.640625 303.28125 l 1,167,-1
 905.171875 304.75 l 1,168,-1
 834.46875 375.46875 l 1,169,-1
 838 379 l 1,170,-1
 841.53125 382.53125 l 1,171,-1
 910.78125 313.28125 l 1,172,-1
 1092.015625 313.28125 l 1,173,-1
 1108.640625 577.34375 l 1,174,-1
 1045.546875 714.375 l 1,175,-1
 975.46875 784.453125 l 1,176,-1
 979 788 l 1,155,-1
744.71875 488.75 m 1,177,-1
 744.515625 483.75 l 1,178,-1
 698.140625 485.65625 l 1,179,-1
 698.34375 490.65625 l 1,180,-1
 698.5625 495.640625 l 1,181,-1
 744.921875 493.734375 l 1,182,-1
 744.71875 488.75 l 1,177,-1
667 522 m 1,183,-1
 670.53125 525.53125 l 1,184,-1
 741.25 454.828125 l 1,185,-1
 741.46875 454.59375 l 1,186,-1
 889.453125 286.59375 l 1,187,-1
 890.703125 285.1875 l 1,188,-1
 890.703125 283.296875 l 1,189,-1
 890.703125 130.296875 l 1,190,-1
 890.703125 125.203125 l 1,191,-1
 885.625 125.296875 l 1,192,-1
 743.109375 127.796875 l 1,193,-1
 743.203125 132.796875 l 1,194,-1
 743.28125 137.796875 l 1,195,-1
 880.703125 135.390625 l 1,196,-1
 880.703125 281.40625 l 1,197,-1
 734.0625 447.859375 l 1,198,-1
 663.46875 518.46875 l 1,199,-1
 667 522 l 1,183,-1
694 182 m 1,200,-1
 697.53125 185.53125 l 1,201,-1
 768.234375 114.828125 l 1,202,-1
 769.765625 113.3125 l 1,203,-1
 769.703125 111.15625 l 1,204,-1
 764.71875 -70.84375 l 1,205,-1
 764.578125 -75.8125 l 1,206,-1
 759.609375 -75.703125 l 1,207,-1
 122.609375 -61.71875 l 1,208,-1
 121.046875 -61.671875 l 1,209,-1
 119.78125 -60.765625 l 1,210,-1
 47.78125 -8.765625 l 1,211,-1
 47.171875 -8.25 l 1,212,-1
 -23.53125 62.46875 l 1,213,-1
 -20 66 l 1,214,-1
 -16.46875 69.53125 l 1,215,-1
 53.96875 -0.890625 l 1,216,-1
 124.375 -51.75 l 1,217,-1
 754.859375 -65.609375 l 1,218,-1
 759.640625 109.28125 l 1,219,-1
 690.453125 178.46875 l 1,220,-1
 694 182 l 1,200,-1
EndSplineSet
Validated: 524293
EndChar

StartChar: G
Encoding: 71 71 6
Width: 1096
VWidth: 0
Flags: W
LayerCount: 2
Fore
SplineSet
6.78125 804.953125 m 1,0,-1
 -17.921875 224.765625 l 1,1,-1
 163.265625 13.03125 l 1,2,-1
 865.484375 24.953125 l 1,3,-1
 1019.9375 227.296875 l 1,4,-1
 908.296875 408.84375 l 1,5,-1
 627.34375 394.171875 l 1,6,-1
 606.65625 347 l 1,7,-1
 728 347 l 1,8,-1
 730.234375 347 l 1,9,-1
 731.734375 345.34375 l 1,10,-1
 773.71875 298.328125 l 1,11,-1
 780.5 290.75 l 1,12,-1
 770.359375 290.015625 l 1,13,-1
 577.359375 276.015625 l 1,14,-1
 575.125 275.859375 l 1,15,-1
 573.515625 277.421875 l 1,16,-1
 472.515625 375.40625 l 1,17,-1
 469.421875 378.421875 l 1,18,-1
 471.953125 381.921875 l 1,19,-1
 549.9375 489.921875 l 1,20,-1
 551.40625 491.953125 l 1,21,-1
 553.90625 492 l 1,22,-1
 919.90625 498.984375 l 1,23,-1
 921.328125 499.015625 l 1,24,-1
 922.546875 498.296875 l 1,25,-1
 969.03125 470.78125 l 1,26,-1
 1011.625 495.25 l 1,27,-1
 1044.421875 635.109375 l 1,28,-1
 819.25 819.953125 l 1,29,-1
 174.484375 806.0625 l 1,30,-1
 142.671875 721.234375 l 1,31,-1
 141.46875 718 l 1,32,-1
 138 718 l 1,33,-1
 116 718 l 1,34,-1
 112.25 718 l 1,35,-1
 111.203125 721.609375 l 1,36,-1
 87.234375 804.03125 l 1,37,-1
 6.78125 804.953125 l 1,0,-1
2.0625 815 m 1,38,-1
 91.046875 814 l 1,39,-1
 94.765625 813.953125 l 1,40,-1
 95.796875 810.390625 l 1,41,-1
 119.75 728 l 1,42,-1
 134.53125 728 l 1,43,-1
 166.3125 812.75 l 1,44,-1
 167.5 815.921875 l 1,45,-1
 170.890625 816 l 1,46,-1
 820.890625 830 l 1,47,-1
 822.734375 830.03125 l 1,48,-1
 824.171875 828.859375 l 1,49,-1
 1053.171875 640.875 l 1,50,-1
 1055.578125 638.890625 l 1,51,-1
 1054.859375 635.859375 l 1,52,-1
 1020.875 490.84375 l 1,53,-1
 1020.375 488.734375 l 1,54,-1
 1018.484375 487.65625 l 1,55,-1
 971.484375 460.65625 l 1,56,-1
 968.953125 459.21875 l 1,57,-1
 966.4375 460.703125 l 1,58,-1
 918.671875 488.96875 l 1,59,-1
 556.59375 482.046875 l 1,60,-1
 482.59375 379.578125 l 1,61,-1
 578.875 286.15625 l 1,62,-1
 759.5 299.25 l 1,63,-1
 725.765625 337 l 1,64,-1
 599 337 l 1,65,-1
 591.34375 337 l 1,66,-1
 594.421875 344.015625 l 1,67,-1
 619.421875 401.015625 l 1,68,-1
 620.65625 403.84375 l 1,69,-1
 623.734375 404 l 1,70,-1
 910.75 419 l 1,71,-1
 913.71875 419.15625 l 1,72,-1
 915.265625 416.625 l 1,73,-1
 1030.265625 229.609375 l 1,74,-1
 1032.0625 226.6875 l 1,75,-1
 1029.96875 223.953125 l 1,76,-1
 871.96875 16.96875 l 1,77,-1
 870.5 15.046875 l 1,78,-1
 868.078125 15 l 1,79,-1
 161.078125 3 l 1,80,-1
 158.734375 2.953125 l 1,81,-1
 157.203125 4.75 l 1,82,-1
 -26.796875 219.75 l 1,83,-1
 -28.078125 221.25 l 1,84,-1
 -28 223.21875 l 1,85,-1
 -3 810.21875 l 1,86,-1
 -2.78125 815.0625 l 1,87,-1
 2.0625 815 l 1,38,-1
868 20 m 1,88,-1
 871.53125 23.53125 l 1,89,-1
 942.25 -47.171875 l 1,90,-1
 938.703125 -50.71875 l 1,91,-1
 935.171875 -54.25 l 1,92,-1
 864.453125 16.46875 l 1,93,-1
 868 20 l 1,88,-1
1026 227 m 1,94,-1
 1029.53125 230.53125 l 1,95,-1
 1100.25 159.8125 l 1,96,-1
 1096.71875 156.28125 l 1,97,-1
 1093.171875 152.75 l 1,98,-1
 1022.46875 223.453125 l 1,99,-1
 1026 227 l 1,94,-1
599 342 m 1,100,-1
 602.53125 345.546875 l 1,101,-1
 657.921875 290.15625 l 1,102,-1
 654.390625 286.625 l 1,103,-1
 650.84375 283.078125 l 1,104,-1
 595.46875 338.46875 l 1,105,-1
 599 342 l 1,100,-1
554 487 m 1,106,-1
 557.53125 490.53125 l 1,107,-1
 628.25 419.828125 l 1,108,-1
 624.703125 416.28125 l 1,109,-1
 621.171875 412.75 l 1,110,-1
 550.46875 483.46875 l 1,111,-1
 554 487 l 1,106,-1
920 493.984375 m 1,112,-1
 923.53125 497.53125 l 1,113,-1
 994.25 426.8125 l 1,114,-1
 990.71875 423.28125 l 1,115,-1
 987.171875 419.75 l 1,116,-1
 916.46875 490.453125 l 1,117,-1
 920 493.984375 l 1,112,-1
968.984375 465 m 1,118,-1
 972.53125 468.53125 l 1,119,-1
 1043.234375 397.828125 l 1,120,-1
 1039.703125 394.28125 l 1,121,-1
 1036.171875 390.75 l 1,122,-1
 965.453125 461.46875 l 1,123,-1
 968.984375 465 l 1,118,-1
1016 491.984375 m 1,124,-1
 1019.53125 495.53125 l 1,125,-1
 1090.25 424.8125 l 1,126,-1
 1086.71875 421.28125 l 1,127,-1
 1083.171875 417.75 l 1,128,-1
 1012.46875 488.453125 l 1,129,-1
 1016 491.984375 l 1,124,-1
91 809 m 1,130,-1
 94.53125 812.53125 l 1,131,-1
 152.171875 754.890625 l 1,132,-1
 148.640625 751.359375 l 1,133,-1
 145.09375 747.828125 l 1,134,-1
 87.453125 805.46875 l 1,135,-1
 91 809 l 1,130,-1
1050 637 m 1,136,-1
 1053.53125 640.53125 l 1,137,-1
 1124.25 569.828125 l 1,138,-1
 1126.21875 567.859375 l 1,139,-1
 1125.578125 565.15625 l 1,140,-1
 1091.578125 420.140625 l 1,141,-1
 1091.078125 418.03125 l 1,142,-1
 1089.203125 416.9375 l 1,143,-1
 1042.1875 389.953125 l 1,144,-1
 1039.65625 388.5 l 1,145,-1
 1037.15625 389.984375 l 1,146,-1
 989.390625 418.25 l 1,147,-1
 627.296875 411.34375 l 1,148,-1
 551.65625 306.59375 l 1,149,-1
 547.609375 309.53125 l 1,150,-1
 543.5625 312.453125 l 1,151,-1
 620.65625 419.21875 l 1,152,-1
 622.109375 421.234375 l 1,153,-1
 624.609375 421.28125 l 1,154,-1
 990.609375 428.28125 l 1,155,-1
 992.03125 428.3125 l 1,156,-1
 993.265625 427.578125 l 1,157,-1
 1039.734375 400.078125 l 1,158,-1
 1082.34375 424.53125 l 1,159,-1
 1115.203125 564.71875 l 1,160,-1
 1046.46875 633.46875 l 1,161,-1
 1050 637 l 1,136,-1
911 414 m 1,162,-1
 914.546875 417.53125 l 1,163,-1
 985.25 346.828125 l 1,164,-1
 985.671875 346.40625 l 1,165,-1
 985.984375 345.90625 l 1,166,-1
 1100.96875 158.90625 l 1,167,-1
 1102.765625 155.96875 l 1,168,-1
 1100.6875 153.25 l 1,169,-1
 942.6875 -53.75 l 1,170,-1
 941.21875 -55.671875 l 1,171,-1
 938.796875 -55.71875 l 1,172,-1
 231.796875 -67.71875 l 1,173,-1
 229.671875 -67.75 l 1,174,-1
 228.171875 -66.25 l 1,175,-1
 157.46875 4.46875 l 1,176,-1
 161 8 l 1,177,-1
 164.53125 11.53125 l 1,178,-1
 233.75 -57.671875 l 1,179,-1
 936.203125 -45.75 l 1,180,-1
 1090.65625 156.59375 l 1,181,-1
 977.765625 340.171875 l 1,182,-1
 907.46875 410.46875 l 1,183,-1
 911 414 l 1,162,-1
EndSplineSet
Validated: 524293
EndChar

StartChar: H
Encoding: 72 72 7
Width: 1094
VWidth: 0
Flags: W
LayerCount: 2
Fore
SplineSet
-18.9375 733.40625 m 1,0,-1
 -2.0625 76 l 1,1,-1
 50.1875 19.015625 l 1,2,-1
 471.125 22.953125 l 1,3,-1
 477 253.953125 l 1,4,-1
 475.25 291.6875 l 1,5,-1
 384.3125 286 l 1,6,-1
 379.25 285.6875 l 1,7,-1
 379.015625 290.75 l 1,8,-1
 377.015625 331.75 l 1,9,-1
 376.765625 336.84375 l 1,10,-1
 381.859375 337 l 1,11,-1
 522.859375 341 l 1,12,-1
 528 341.140625 l 1,13,-1
 528 336 l 1,14,-1
 528 263 l 1,15,-1
 627.34375 24.96875 l 1,16,-1
 931.234375 23.015625 l 1,17,-1
 1060.875 128.265625 l 1,18,-1
 1030.109375 689.765625 l 1,19,-1
 932.953125 783.03125 l 1,20,-1
 540.296875 787.96875 l 1,21,-1
 479.34375 715.59375 l 1,22,-1
 529.203125 450.6875 l 1,23,-1
 577.375 447 l 1,24,-1
 582.3125 446.609375 l 1,25,-1
 581.984375 441.671875 l 1,26,-1
 578.984375 396.65625 l 1,27,-1
 578.703125 392.421875 l 1,28,-1
 574.46875 392.015625 l 1,29,-1
 447.46875 380.015625 l 1,30,-1
 440.875 379.390625 l 1,31,-1
 442.078125 385.90625 l 1,32,-1
 447.078125 412.90625 l 1,33,-1
 447.84375 417 l 1,34,-1
 452 417 l 1,35,-1
 484.3125 417 l 1,36,-1
 434.609375 800.046875 l 1,37,-1
 84.515625 803.984375 l 1,38,-1
 -18.9375 733.40625 l 1,0,-1
477 253.953125 m 1,39,-1
 477 253.953125 l 1,39,-1
-26.828125 740.125 m 1,40,-1
 80.171875 813.125 l 1,41,-1
 81.484375 814.015625 l 1,42,-1
 83.046875 814 l 1,43,-1
 439.0625 810 l 1,44,-1
 443.40625 809.953125 l 1,45,-1
 443.96875 805.640625 l 1,46,-1
 494.96875 412.640625 l 1,47,-1
 495.6875 407 l 1,48,-1
 490 407 l 1,49,-1
 456.15625 407 l 1,50,-1
 453.125 390.59375 l 1,51,-1
 569.28125 401.578125 l 1,52,-1
 571.6875 437.40625 l 1,53,-1
 524.609375 441.015625 l 1,54,-1
 520.78125 441.3125 l 1,55,-1
 520.078125 445.078125 l 1,56,-1
 469.078125 716.0625 l 1,57,-1
 468.640625 718.40625 l 1,58,-1
 470.171875 720.21875 l 1,59,-1
 534.171875 796.21875 l 1,60,-1
 535.703125 798.03125 l 1,61,-1
 538.0625 798 l 1,62,-1
 935.0625 793 l 1,63,-1
 937.03125 792.984375 l 1,64,-1
 938.453125 791.609375 l 1,65,-1
 1038.453125 695.609375 l 1,66,-1
 1039.875 694.25 l 1,67,-1
 1039.984375 692.28125 l 1,68,-1
 1071 126.265625 l 1,69,-1
 1071.140625 123.71875 l 1,70,-1
 1069.15625 122.109375 l 1,71,-1
 936.140625 14.109375 l 1,72,-1
 934.75 12.984375 l 1,73,-1
 932.96875 13 l 1,74,-1
 623.96875 15 l 1,75,-1
 620.65625 15.015625 l 1,76,-1
 619.390625 18.078125 l 1,77,-1
 518.390625 260.0625 l 1,78,-1
 518 261 l 1,79,-1
 518 262 l 1,80,-1
 518 330.859375 l 1,81,-1
 387.25 327.140625 l 1,82,-1
 388.75 296.296875 l 1,83,-1
 479.6875 301.984375 l 1,84,-1
 484.765625 302.296875 l 1,85,-1
 485 297.234375 l 1,86,-1
 487 254.234375 l 1,87,-1
 487 253.875 l 1,88,-1
 481 17.875 l 1,89,-1
 480.875 13.046875 l 1,90,-1
 476.046875 13 l 1,91,-1
 48.046875 9 l 1,92,-1
 45.828125 8.984375 l 1,93,-1
 44.3125 10.625 l 1,94,-1
 -10.6875 70.625 l 1,95,-1
 -11.953125 72 l 1,96,-1
 -12 73.875 l 1,97,-1
 -29 735.875 l 1,98,-1
 -29.078125 738.59375 l 1,99,-1
 -26.828125 740.125 l 1,40,-1
476 18 m 1,100,-1
 479.546875 21.53125 l 1,101,-1
 550.25 -49.171875 l 1,102,-1
 546.71875 -52.71875 l 1,103,-1
 543.1875 -56.25 l 1,104,-1
 472.46875 14.46875 l 1,105,-1
 476 18 l 1,100,-1
482 254 m 1,106,-1
 485.53125 257.546875 l 1,107,-1
 556.25 186.828125 l 1,108,-1
 552.71875 183.296875 l 1,109,-1
 549.171875 179.765625 l 1,110,-1
 478.46875 250.46875 l 1,111,-1
 482 254 l 1,106,-1
480 297 m 1,112,-1
 483.53125 300.53125 l 1,113,-1
 532.265625 251.796875 l 1,114,-1
 528.734375 248.265625 l 1,115,-1
 525.203125 244.734375 l 1,116,-1
 476.46875 293.453125 l 1,117,-1
 480 297 l 1,112,-1
382 332 m 1,118,-1
 385.53125 335.53125 l 1,119,-1
 424.25 296.828125 l 1,120,-1
 420.71875 293.296875 l 1,121,-1
 417.171875 289.75 l 1,122,-1
 378.46875 328.46875 l 1,123,-1
 382 332 l 1,118,-1
933 18 m 1,124,-1
 936.53125 21.53125 l 1,125,-1
 1007.234375 -49.171875 l 1,126,-1
 1003.703125 -52.71875 l 1,127,-1
 1000.171875 -56.25 l 1,128,-1
 929.453125 14.46875 l 1,129,-1
 933 18 l 1,124,-1
1066 126 m 1,130,-1
 1069.546875 129.53125 l 1,131,-1
 1140.25 58.828125 l 1,132,-1
 1136.71875 55.28125 l 1,133,-1
 1133.1875 51.75 l 1,134,-1
 1062.46875 122.46875 l 1,135,-1
 1066 126 l 1,130,-1
525 446 m 1,136,-1
 528.53125 449.53125 l 1,137,-1
 577.53125 400.53125 l 1,138,-1
 574 397 l 1,139,-1
 570.453125 393.46875 l 1,140,-1
 521.453125 442.46875 l 1,141,-1
 525 446 l 1,136,-1
452 412 m 1,142,-1
 455.53125 415.53125 l 1,143,-1
 479.765625 391.296875 l 1,144,-1
 476.234375 387.765625 l 1,145,-1
 472.703125 384.21875 l 1,146,-1
 448.453125 408.46875 l 1,147,-1
 452 412 l 1,142,-1
490 412 m 1,148,-1
 493.53125 415.53125 l 1,149,-1
 514.5 394.578125 l 1,150,-1
 510.96875 391.046875 l 1,151,-1
 507.421875 387.5 l 1,152,-1
 486.46875 408.46875 l 1,153,-1
 490 412 l 1,148,-1
439 805 m 1,154,-1
 442.53125 808.53125 l 1,155,-1
 501.765625 749.3125 l 1,156,-1
 498.234375 745.765625 l 1,157,-1
 494.6875 742.234375 l 1,158,-1
 435.46875 801.46875 l 1,159,-1
 439 805 l 1,154,-1
550.421875 420.5625 m 1,160,-1
 555.390625 421.203125 l 1,161,-1
 558.6875 395.71875 l 1,162,-1
 553.734375 395.078125 l 1,163,-1
 548.78125 394.4375 l 1,164,-1
 545.46875 419.921875 l 1,165,-1
 550.421875 420.5625 l 1,160,-1
1035 692 m 1,166,-1
 1038.53125 695.53125 l 1,167,-1
 1109.234375 624.828125 l 1,168,-1
 1110.59375 623.46875 l 1,169,-1
 1110.703125 621.5625 l 1,170,-1
 1141.71875 55.5625 l 1,171,-1
 1141.84375 53.015625 l 1,172,-1
 1139.875 51.40625 l 1,173,-1
 1006.859375 -56.59375 l 1,174,-1
 1005.46875 -57.71875 l 1,175,-1
 1003.671875 -57.71875 l 1,176,-1
 694.671875 -55.71875 l 1,177,-1
 692.625 -55.703125 l 1,178,-1
 691.171875 -54.25 l 1,179,-1
 620.46875 16.46875 l 1,180,-1
 624 20 l 1,181,-1
 627.53125 23.53125 l 1,182,-1
 696.796875 -45.71875 l 1,183,-1
 1001.9375 -47.703125 l 1,184,-1
 1131.59375 57.5625 l 1,185,-1
 1100.8125 619.109375 l 1,186,-1
 1031.453125 688.46875 l 1,187,-1
 1035 692 l 1,166,-1
523 263.28125 m 1,188,-1
 523.140625 258.28125 l 1,189,-1
 514.125 258.03125 l 1,190,-1
 513.96875 263.03125 l 1,191,-1
 513.828125 268.015625 l 1,192,-1
 522.859375 268.28125 l 1,193,-1
 523 263.28125 l 1,188,-1
552.328125 191.75 m 1,194,-1
 557.3125 191.984375 l 1,195,-1
 557.703125 183.53125 l 1,196,-1
 557.71875 183.171875 l 1,197,-1
 551.71875 -52.84375 l 1,198,-1
 551.59375 -57.671875 l 1,199,-1
 546.765625 -57.71875 l 1,200,-1
 118.765625 -61.71875 l 1,201,-1
 116.671875 -61.734375 l 1,202,-1
 115.1875 -60.25 l 1,203,-1
 44.46875 10.46875 l 1,204,-1
 48 14 l 1,205,-1
 51.546875 17.53125 l 1,206,-1
 120.765625 -51.6875 l 1,207,-1
 541.84375 -47.75 l 1,208,-1
 547.71875 183.25 l 1,209,-1
 547.328125 191.515625 l 1,210,-1
 552.328125 191.75 l 1,194,-1
EndSplineSet
Validated: 524293
EndChar

StartChar: I
Encoding: 73 73 8
Width: 1094
VWidth: 0
Flags: W
HStem: -12 51<-18 174> 23 153<764 948> 824 20G<672.355 1030.42> 824 20G<672.355 1030.42>
LayerCount: 2
Fore
SplineSet
-12.890625 777.3125 m 1,0,-1
 -7.09375 522.25 l 1,1,-1
 117.34375 501.34375 l 1,2,-1
 148.515625 531.59375 l 1,3,-1
 149.96875 533 l 1,4,-1
 152 533 l 1,5,-1
 195 533 l 1,6,-1
 199.78125 533 l 1,7,-1
 199.984375 528.21875 l 1,8,-1
 202 481.21875 l 1,9,-1
 202.140625 478.0625 l 1,10,-1
 199.359375 476.59375 l 1,11,-1
 154.34375 452.59375 l 1,12,-1
 153.203125 451.984375 l 1,13,-1
 151.90625 452 l 1,14,-1
 49.90625 453.90625 l 1,15,-1
 44.078125 84.546875 l 1,16,-1
 122.84375 77.21875 l 1,17,-1
 141.15625 99.1875 l 1,18,-1
 144.03125 102.640625 l 1,19,-1
 147.78125 100.15625 l 1,20,-1
 180.765625 78.15625 l 1,21,-1
 183.28125 76.484375 l 1,22,-1
 182.96875 73.46875 l 1,23,-1
 178.96875 36.46875 l 1,24,-1
 178.484375 31.953125 l 1,25,-1
 173.953125 32 l 1,26,-1
 -13.203125 33.953125 l 1,27,-1
 -14.796875 -6.8125 l 1,28,-1
 945.75 27.90625 l 1,29,-1
 1017.046875 104.03125 l 1,30,-1
 1018.875 174.921875 l 1,31,-1
 764.078125 171 l 1,32,-1
 760.015625 170.9375 l 1,33,-1
 759.125 174.921875 l 1,34,-1
 753.109375 201.921875 l 1,35,-1
 751.796875 207.84375 l 1,36,-1
 757.859375 208 l 1,37,-1
 896.875 211.859375 l 1,38,-1
 887.109375 587.265625 l 1,39,-1
 820.71875 591.015625 l 1,40,-1
 816.421875 591.25 l 1,41,-1
 816.015625 595.546875 l 1,42,-1
 812.015625 638.546875 l 1,43,-1
 811.484375 644.28125 l 1,44,-1
 817.25 644 l 1,45,-1
 974.953125 636.109375 l 1,46,-1
 1005.25 668.25 l 1,47,-1
 1027.265625 838.671875 l 1,48,-1
 474.28125 808 l 1,49,-1
 -12.890625 777.3125 l 1,0,-1
-18.3125 787 m 1,50,-1
 473.703125 817.984375 l 1,51,-1
 1032.71875 848.984375 l 1,52,-1
 1038.71875 849.328125 l 1,53,-1
 1037.953125 843.359375 l 1,54,-1
 1014.96875 665.359375 l 1,55,-1
 1014.75 663.75 l 1,56,-1
 1013.640625 662.5625 l 1,57,-1
 980.640625 627.578125 l 1,58,-1
 979.0625 625.890625 l 1,59,-1
 976.75 626.015625 l 1,60,-1
 822.515625 633.71875 l 1,61,-1
 825.578125 600.75 l 1,62,-1
 892.28125 597 l 1,63,-1
 896.875 596.734375 l 1,64,-1
 896.984375 592.125 l 1,65,-1
 907 207.140625 l 1,66,-1
 907.125 202.140625 l 1,67,-1
 902.140625 202 l 1,68,-1
 764.1875 198.171875 l 1,69,-1
 768 181.0625 l 1,70,-1
 1023.921875 185 l 1,71,-1
 1029.140625 185.078125 l 1,72,-1
 1029 179.875 l 1,73,-1
 1026.984375 101.875 l 1,74,-1
 1026.9375 99.96875 l 1,75,-1
 1025.640625 98.578125 l 1,76,-1
 951.640625 19.578125 l 1,77,-1
 950.234375 18.0625 l 1,78,-1
 948.171875 18 l 1,79,-1
 -19.8125 -17 l 1,80,-1
 -25.203125 -17.1875 l 1,81,-1
 -25 -11.796875 l 1,82,-1
 -23 39.203125 l 1,83,-1
 -22.8125 44.046875 l 1,84,-1
 -17.953125 44 l 1,85,-1
 169.515625 42.046875 l 1,86,-1
 172.703125 71.53125 l 1,87,-1
 145.96875 89.34375 l 1,88,-1
 128.828125 68.796875 l 1,89,-1
 127.140625 66.78125 l 1,90,-1
 124.53125 67.03125 l 1,91,-1
 38.53125 75.015625 l 1,92,-1
 33.921875 75.4375 l 1,93,-1
 34 80.0625 l 1,94,-1
 39.984375 459.078125 l 1,95,-1
 40.0625 464.09375 l 1,96,-1
 45.078125 464 l 1,97,-1
 150.78125 462.03125 l 1,98,-1
 191.875 483.9375 l 1,99,-1
 190.203125 523 l 1,100,-1
 154.015625 523 l 1,101,-1
 122.484375 492.40625 l 1,102,-1
 120.671875 490.65625 l 1,103,-1
 118.171875 491.078125 l 1,104,-1
 -12.828125 513.0625 l 1,105,-1
 -16.90625 513.75 l 1,106,-1
 -17 517.890625 l 1,107,-1
 -23 781.890625 l 1,108,-1
 -23.109375 786.6875 l 1,109,-1
 -18.3125 787 l 1,50,-1
-12 518 m 1,110,-1
 -8.46875 521.53125 l 1,111,-1
 50.578125 462.5 l 1,112,-1
 47.03125 458.96875 l 1,113,-1
 43.5 455.421875 l 1,114,-1
 -15.53125 514.46875 l 1,115,-1
 -12 518 l 1,110,-1
119 496 m 1,116,-1
 122.53125 499.53125 l 1,117,-1
 159.453125 462.625 l 1,118,-1
 155.921875 459.09375 l 1,119,-1
 152.375 455.5625 l 1,120,-1
 115.46875 492.46875 l 1,121,-1
 119 496 l 1,116,-1
152 528 m 1,122,-1
 155.53125 531.53125 l 1,123,-1
 200.453125 486.609375 l 1,124,-1
 196.921875 483.078125 l 1,125,-1
 193.375 479.546875 l 1,126,-1
 148.453125 524.46875 l 1,127,-1
 152 528 l 1,122,-1
39 79.984375 m 1,128,-1
 42.53125 83.53125 l 1,129,-1
 84.5625 41.5 l 1,130,-1
 81.015625 37.96875 l 1,131,-1
 77.484375 34.4375 l 1,132,-1
 35.46875 76.453125 l 1,133,-1
 39 79.984375 l 1,128,-1
125 72 m 1,134,-1
 128.53125 75.53125 l 1,135,-1
 163.375 40.6875 l 1,136,-1
 159.84375 37.15625 l 1,137,-1
 156.3125 33.609375 l 1,138,-1
 121.453125 68.46875 l 1,139,-1
 125 72 l 1,134,-1
145 95.984375 m 1,140,-1
 148.53125 99.53125 l 1,141,-1
 180.453125 67.609375 l 1,142,-1
 176.921875 64.0625 l 1,143,-1
 173.390625 60.53125 l 1,144,-1
 141.46875 92.453125 l 1,145,-1
 145 95.984375 l 1,140,-1
948 23 m 1,146,-1
 951.53125 26.53125 l 1,147,-1
 1022.25 -44.1875 l 1,148,-1
 1018.703125 -47.71875 l 1,149,-1
 1015.171875 -51.25 l 1,150,-1
 944.46875 19.453125 l 1,151,-1
 948 23 l 1,146,-1
1021.984375 102 m 1,152,-1
 1025.53125 105.53125 l 1,153,-1
 1096.234375 34.828125 l 1,154,-1
 1092.703125 31.28125 l 1,155,-1
 1089.171875 27.75 l 1,156,-1
 1018.453125 98.46875 l 1,157,-1
 1021.984375 102 l 1,152,-1
758 203 m 1,158,-1
 761.53125 206.546875 l 1,159,-1
 788.21875 179.859375 l 1,160,-1
 784.6875 176.328125 l 1,161,-1
 781.140625 172.78125 l 1,162,-1
 754.46875 199.46875 l 1,163,-1
 758 203 l 1,158,-1
902 207 m 1,164,-1
 905.53125 210.546875 l 1,165,-1
 933.984375 182.09375 l 1,166,-1
 930.4375 178.5625 l 1,167,-1
 926.90625 175.03125 l 1,168,-1
 898.46875 203.46875 l 1,169,-1
 902 207 l 1,164,-1
817 639 m 1,170,-1
 820.53125 642.53125 l 1,171,-1
 865.859375 597.203125 l 1,172,-1
 862.328125 593.671875 l 1,173,-1
 858.78125 590.140625 l 1,174,-1
 813.453125 635.46875 l 1,175,-1
 817 639 l 1,170,-1
977 631 m 1,176,-1
 980.53125 634.546875 l 1,177,-1
 1051.25 563.828125 l 1,178,-1
 1047.71875 560.296875 l 1,179,-1
 1044.171875 556.75 l 1,180,-1
 973.46875 627.46875 l 1,181,-1
 977 631 l 1,176,-1
1010 666 m 1,182,-1
 1013.53125 669.53125 l 1,183,-1
 1084.25 598.8125 l 1,184,-1
 1080.71875 595.28125 l 1,185,-1
 1077.171875 591.75 l 1,186,-1
 1006.46875 662.453125 l 1,187,-1
 1010 666 l 1,182,-1
1033 844 m 1,188,-1
 1036.53125 847.53125 l 1,189,-1
 1107.234375 776.828125 l 1,190,-1
 1108.984375 775.078125 l 1,191,-1
 1108.65625 772.640625 l 1,192,-1
 1085.671875 594.640625 l 1,193,-1
 1085.46875 593.03125 l 1,194,-1
 1084.34375 591.859375 l 1,195,-1
 1051.34375 556.859375 l 1,196,-1
 1049.765625 555.1875 l 1,197,-1
 1047.46875 555.296875 l 1,198,-1
 916.921875 561.828125 l 1,199,-1
 917.171875 566.8125 l 1,200,-1
 917.421875 571.8125 l 1,201,-1
 1045.65625 565.40625 l 1,202,-1
 1075.96875 597.53125 l 1,203,-1
 1098.4375 771.484375 l 1,204,-1
 1029.453125 840.46875 l 1,205,-1
 1033 844 l 1,188,-1
892 592 m 1,206,-1
 895.53125 595.53125 l 1,207,-1
 966.234375 524.828125 l 1,208,-1
 967.65625 523.421875 l 1,209,-1
 967.703125 521.421875 l 1,210,-1
 976.59375 179.328125 l 1,211,-1
 971.59375 179.203125 l 1,212,-1
 966.59375 179.0625 l 1,213,-1
 957.75 519.171875 l 1,214,-1
 888.453125 588.46875 l 1,215,-1
 892 592 l 1,206,-1
1024 180 m 1,216,-1
 1027.53125 183.53125 l 1,217,-1
 1098.25 112.828125 l 1,218,-1
 1099.765625 111.3125 l 1,219,-1
 1099.703125 109.15625 l 1,220,-1
 1097.703125 31.15625 l 1,221,-1
 1097.65625 29.265625 l 1,222,-1
 1096.34375 27.875 l 1,223,-1
 1022.359375 -51.140625 l 1,224,-1
 1020.953125 -52.640625 l 1,225,-1
 1018.890625 -52.71875 l 1,226,-1
 50.890625 -87.703125 l 1,227,-1
 48.71875 -87.78125 l 1,228,-1
 47.171875 -86.25 l 1,229,-1
 -23.53125 -15.53125 l 1,230,-1
 -20 -12 l 1,231,-1
 -16.46875 -8.46875 l 1,232,-1
 52.703125 -77.640625 l 1,233,-1
 1016.46875 -42.796875 l 1,234,-1
 1087.75 33.3125 l 1,235,-1
 1089.65625 107.28125 l 1,236,-1
 1020.46875 176.46875 l 1,237,-1
 1024 180 l 1,216,-1
EndSplineSet
Validated: 8912901
EndChar

StartChar: J
Encoding: 74 74 9
Width: 1094
VWidth: 0
Flags: W
LayerCount: 2
Fore
SplineSet
86 791.796875 m 1,0,-1
 86 557.421875 l 1,1,-1
 155.109375 502.71875 l 1,2,-1
 425.84375 455.921875 l 1,3,-1
 426.984375 455.734375 l 1,4,-1
 427.921875 455.0625 l 1,5,-1
 713.125 249.671875 l 1,6,-1
 717 535.0625 l 1,7,-1
 717.078125 541.015625 l 1,8,-1
 722.921875 539.90625 l 1,9,-1
 759.9375 532.90625 l 1,10,-1
 764.078125 532.125 l 1,11,-1
 764 527.90625 l 1,12,-1
 758 198.921875 l 1,13,-1
 757.953125 195.890625 l 1,14,-1
 755.234375 194.53125 l 1,15,-1
 705.234375 169.515625 l 1,16,-1
 702.640625 168.21875 l 1,17,-1
 700.21875 169.828125 l 1,18,-1
 388.34375 378.09375 l 1,19,-1
 -17.015625 402.6875 l 1,20,-1
 -17 228.578125 l 1,21,-1
 110.703125 47.859375 l 1,22,-1
 950.6875 3.125 l 1,23,-1
 1037.984375 112.71875 l 1,24,-1
 1030.03125 677.5625 l 1,25,-1
 900.125 781.09375 l 1,26,-1
 155.953125 823.9375 l 1,27,-1
 86 791.796875 l 1,0,-1
78.90625 799.546875 m 1,28,-1
 152.90625 833.546875 l 1,29,-1
 154.046875 834.0625 l 1,30,-1
 155.28125 834 l 1,31,-1
 902.296875 790.984375 l 1,32,-1
 903.875 790.890625 l 1,33,-1
 905.125 789.90625 l 1,34,-1
 1038.109375 683.921875 l 1,35,-1
 1039.96875 682.4375 l 1,36,-1
 1040 680.078125 l 1,37,-1
 1048 111.0625 l 1,38,-1
 1048.03125 109.28125 l 1,39,-1
 1046.921875 107.875 l 1,40,-1
 956.90625 -5.109375 l 1,41,-1
 955.296875 -7.125 l 1,42,-1
 952.71875 -7 l 1,43,-1
 107.75 38 l 1,44,-1
 105.328125 38.140625 l 1,45,-1
 103.921875 40.109375 l 1,46,-1
 -26.078125 224.109375 l 1,47,-1
 -27 225.40625 l 1,48,-1
 -27 227 l 1,49,-1
 -27.015625 408 l 1,50,-1
 -27.015625 413.3125 l 1,51,-1
 -21.703125 412.984375 l 1,52,-1
 390.3125 387.984375 l 1,53,-1
 391.65625 387.90625 l 1,54,-1
 392.78125 387.15625 l 1,55,-1
 703.359375 179.765625 l 1,56,-1
 748.0625 202.125 l 1,57,-1
 753.921875 523.875 l 1,58,-1
 726.921875 528.96875 l 1,59,-1
 723 239.921875 l 1,60,-1
 722.875 230.328125 l 1,61,-1
 715.078125 235.9375 l 1,62,-1
 423 446.265625 l 1,63,-1
 152.15625 493.078125 l 1,64,-1
 150.890625 493.296875 l 1,65,-1
 149.890625 494.078125 l 1,66,-1
 77.890625 551.078125 l 1,67,-1
 76 552.578125 l 1,68,-1
 76 555 l 1,69,-1
 76 795 l 1,70,-1
 76 798.203125 l 1,71,-1
 78.90625 799.546875 l 1,28,-1
153 498 m 1,72,-1
 156.53125 501.53125 l 1,73,-1
 227.25 430.828125 l 1,74,-1
 223.71875 427.296875 l 1,75,-1
 220.171875 423.75 l 1,76,-1
 149.46875 494.46875 l 1,77,-1
 153 498 l 1,72,-1
425 451 m 1,78,-1
 428.53125 454.53125 l 1,79,-1
 499.234375 383.828125 l 1,80,-1
 495.703125 380.296875 l 1,81,-1
 492.171875 376.75 l 1,82,-1
 421.453125 447.46875 l 1,83,-1
 425 451 l 1,78,-1
718 240 m 1,84,-1
 721.53125 243.53125 l 1,85,-1
 756.640625 208.421875 l 1,86,-1
 753.109375 204.890625 l 1,87,-1
 749.578125 201.34375 l 1,88,-1
 714.46875 236.46875 l 1,89,-1
 718 240 l 1,84,-1
722 535 m 1,90,-1
 725.53125 538.53125 l 1,91,-1
 762 502.0625 l 1,92,-1
 758.46875 498.53125 l 1,93,-1
 754.921875 495 l 1,94,-1
 718.46875 531.453125 l 1,95,-1
 722 535 l 1,90,-1
953 -2 m 1,96,-1
 956.53125 1.53125 l 1,97,-1
 1027.234375 -69.171875 l 1,98,-1
 1023.703125 -72.71875 l 1,99,-1
 1020.171875 -76.25 l 1,100,-1
 949.453125 -5.53125 l 1,101,-1
 953 -2 l 1,96,-1
1043 111 m 1,102,-1
 1046.546875 114.53125 l 1,103,-1
 1117.25 43.8125 l 1,104,-1
 1113.71875 40.28125 l 1,105,-1
 1110.1875 36.75 l 1,106,-1
 1039.46875 107.453125 l 1,107,-1
 1043 111 l 1,102,-1
1035 680 m 1,108,-1
 1038.53125 683.546875 l 1,109,-1
 1109.234375 612.828125 l 1,110,-1
 1110.671875 611.390625 l 1,111,-1
 1110.703125 609.359375 l 1,112,-1
 1118.71875 40.359375 l 1,113,-1
 1118.734375 38.5625 l 1,114,-1
 1117.625 37.171875 l 1,115,-1
 1027.609375 -75.828125 l 1,116,-1
 1026.015625 -77.84375 l 1,117,-1
 1023.4375 -77.703125 l 1,118,-1
 178.453125 -32.703125 l 1,119,-1
 176.546875 -32.59375 l 1,120,-1
 175.1875 -31.25 l 1,121,-1
 104.46875 39.46875 l 1,122,-1
 108.015625 43 l 1,123,-1
 111.546875 46.53125 l 1,124,-1
 180.90625 -22.8125 l 1,125,-1
 1021.390625 -67.578125 l 1,126,-1
 1108.6875 42 l 1,127,-1
 1100.734375 607.1875 l 1,128,-1
 1031.453125 676.46875 l 1,129,-1
 1035 680 l 1,108,-1
749.71875 197.359375 m 1,130,-1
 746.796875 193.3125 l 1,131,-1
 493.71875 375.5625 l 1,132,-1
 222.859375 422.359375 l 1,133,-1
 221.609375 422.578125 l 1,134,-1
 220.609375 423.375 l 1,135,-1
 148.609375 480.375 l 1,136,-1
 148.171875 480.75 l 1,137,-1
 77.46875 551.46875 l 1,138,-1
 81 555 l 1,139,-1
 84.53125 558.53125 l 1,140,-1
 155.03125 488.03125 l 1,141,-1
 225.8125 432 l 1,142,-1
 496.5625 385.21875 l 1,143,-1
 497.6875 385.015625 l 1,144,-1
 498.625 384.34375 l 1,145,-1
 752.640625 201.421875 l 1,146,-1
 749.71875 197.359375 l 1,130,-1
EndSplineSet
Validated: 524293
EndChar

StartChar: K
Encoding: 75 75 10
Width: 1094
VWidth: 0
Flags: W
LayerCount: 2
Fore
SplineSet
42.140625 836.828125 m 1,0,-1
 -16.921875 706.09375 l 1,1,-1
 -7.109375 554.96875 l 1,2,-1
 52.8125 484.234375 l 1,3,-1
 54.140625 482.65625 l 1,4,-1
 53.984375 480.609375 l 1,5,-1
 45.984375 378.609375 l 1,6,-1
 45.859375 376.9375 l 1,7,-1
 44.75 375.6875 l 1,8,-1
 -6.96875 317.140625 l 1,9,-1
 -3.046875 98.375 l 1,10,-1
 64.9375 41.90625 l 1,11,-1
 467.828125 19.234375 l 1,12,-1
 472.71875 47.875 l 1,13,-1
 273.859375 343.203125 l 1,14,-1
 270.578125 348.078125 l 1,15,-1
 275.90625 350.53125 l 1,16,-1
 301.90625 362.546875 l 1,17,-1
 305.578125 364.25 l 1,18,-1
 308 361 l 1,19,-1
 524.78125 71.28125 l 1,20,-1
 579.125 16.9375 l 1,21,-1
 915.75 7.0625 l 1,22,-1
 1035 146.84375 l 1,23,-1
 1035 311.09375 l 1,24,-1
 542.15625 434.3125 l 1,25,-1
 499.125 372.15625 l 1,26,-1
 496.875 368.921875 l 1,27,-1
 493.203125 370.328125 l 1,28,-1
 314.203125 439.34375 l 1,29,-1
 309.921875 441 l 1,30,-1
 311.203125 445.40625 l 1,31,-1
 320.203125 476.390625 l 1,32,-1
 321.671875 481.46875 l 1,33,-1
 326.65625 479.71875 l 1,34,-1
 479.3125 426.234375 l 1,35,-1
 506.4375 487.03125 l 1,36,-1
 508.1875 490.9375 l 1,37,-1
 512.3125 489.828125 l 1,38,-1
 881.796875 390.5 l 1,39,-1
 1028.921875 512.28125 l 1,40,-1
 1019.15625 792.28125 l 1,41,-1
 690.578125 811.90625 l 1,42,-1
 369.0625 561.0625 l 1,43,-1
 367.5 559.828125 l 1,44,-1
 365.515625 560.03125 l 1,45,-1
 324.515625 564.03125 l 1,46,-1
 312.3125 565.21875 l 1,47,-1
 321.875 572.890625 l 1,48,-1
 538.171875 746.734375 l 1,49,-1
 517.3125 810.1875 l 1,50,-1
 42.140625 836.828125 l 1,0,-1
39.28125 847 m 1,51,-1
 521.28125 819.984375 l 1,52,-1
 524.671875 819.796875 l 1,53,-1
 525.75 816.5625 l 1,54,-1
 548.75 746.5625 l 1,55,-1
 549.84375 743.28125 l 1,56,-1
 547.140625 741.109375 l 1,57,-1
 337.703125 572.78125 l 1,58,-1
 364.5 570.171875 l 1,59,-1
 685.921875 820.953125 l 1,60,-1
 687.40625 822.109375 l 1,61,-1
 689.296875 822 l 1,62,-1
 1024.296875 801.984375 l 1,63,-1
 1028.84375 801.71875 l 1,64,-1
 1029 797.171875 l 1,65,-1
 1039 510.15625 l 1,66,-1
 1039.078125 507.703125 l 1,67,-1
 1037.1875 506.140625 l 1,68,-1
 886.1875 381.140625 l 1,69,-1
 884.203125 379.5 l 1,70,-1
 881.703125 380.171875 l 1,71,-1
 513.828125 479.0625 l 1,72,-1
 486.5625 417.96875 l 1,73,-1
 484.6875 413.765625 l 1,74,-1
 480.34375 415.28125 l 1,75,-1
 328.328125 468.53125 l 1,76,-1
 322.078125 447.015625 l 1,77,-1
 493.140625 381.078125 l 1,78,-1
 535.890625 442.84375 l 1,79,-1
 537.859375 445.6875 l 1,80,-1
 541.21875 444.84375 l 1,81,-1
 1041.21875 319.84375 l 1,82,-1
 1045 318.890625 l 1,83,-1
 1045 315 l 1,84,-1
 1045 145 l 1,85,-1
 1045 143.15625 l 1,86,-1
 1043.796875 141.75 l 1,87,-1
 921.796875 -1.25 l 1,88,-1
 920.234375 -3.0625 l 1,89,-1
 917.84375 -3 l 1,90,-1
 576.859375 7 l 1,91,-1
 574.875 7.0625 l 1,92,-1
 573.46875 8.46875 l 1,93,-1
 517.453125 64.46875 l 1,94,-1
 516.984375 65 l 1,95,-1
 302.421875 351.765625 l 1,96,-1
 285.4375 343.921875 l 1,97,-1
 482.140625 51.796875 l 1,98,-1
 483.265625 50.125 l 1,99,-1
 482.921875 48.15625 l 1,100,-1
 476.9375 13.15625 l 1,101,-1
 476.1875 8.75 l 1,102,-1
 471.71875 9 l 1,103,-1
 62.734375 32.015625 l 1,104,-1
 61.078125 32.09375 l 1,105,-1
 59.8125 33.15625 l 1,106,-1
 -11.1875 92.140625 l 1,107,-1
 -12.953125 93.609375 l 1,108,-1
 -13 95.90625 l 1,109,-1
 -17 318.90625 l 1,110,-1
 -17.03125 320.84375 l 1,111,-1
 -15.75 322.296875 l 1,112,-1
 36.140625 381.0625 l 1,113,-1
 43.859375 479.34375 l 1,114,-1
 -15.8125 549.765625 l 1,115,-1
 -16.875 551.03125 l 1,116,-1
 -16.984375 552.671875 l 1,117,-1
 -26.984375 706.6875 l 1,118,-1
 -27.0625 707.921875 l 1,119,-1
 -26.546875 709.0625 l 1,120,-1
 34.4375 844.0625 l 1,121,-1
 35.859375 847.1875 l 1,122,-1
 39.28125 847 l 1,51,-1
63.015625 37 m 1,123,-1
 66.546875 40.53125 l 1,124,-1
 137.25 -30.171875 l 1,125,-1
 133.71875 -33.703125 l 1,126,-1
 130.1875 -37.25 l 1,127,-1
 59.46875 33.46875 l 1,128,-1
 63.015625 37 l 1,123,-1
472 14 m 1,129,-1
 475.546875 17.53125 l 1,130,-1
 546.25 -53.171875 l 1,131,-1
 542.71875 -56.71875 l 1,132,-1
 539.1875 -60.25 l 1,133,-1
 468.46875 10.46875 l 1,134,-1
 472 14 l 1,129,-1
478 49 m 1,135,-1
 481.53125 52.53125 l 1,136,-1
 552.234375 -18.171875 l 1,137,-1
 548.703125 -21.703125 l 1,138,-1
 545.171875 -25.25 l 1,139,-1
 474.453125 45.46875 l 1,140,-1
 478 49 l 1,135,-1
278 346 m 1,141,-1
 281.53125 349.53125 l 1,142,-1
 352.25 278.828125 l 1,143,-1
 348.71875 275.28125 l 1,144,-1
 345.171875 271.75 l 1,145,-1
 274.46875 342.46875 l 1,146,-1
 278 346 l 1,141,-1
917.984375 2 m 1,147,-1
 921.53125 5.53125 l 1,148,-1
 992.234375 -65.171875 l 1,149,-1
 988.703125 -68.71875 l 1,150,-1
 985.171875 -72.25 l 1,151,-1
 914.453125 -1.53125 l 1,152,-1
 917.984375 2 l 1,147,-1
1040 145 m 1,153,-1
 1043.53125 148.53125 l 1,154,-1
 1114.25 77.828125 l 1,155,-1
 1110.703125 74.296875 l 1,156,-1
 1107.171875 70.75 l 1,157,-1
 1036.46875 141.46875 l 1,158,-1
 1040 145 l 1,153,-1
325 475 m 1,159,-1
 328.53125 478.53125 l 1,160,-1
 384.625 422.453125 l 1,161,-1
 381.09375 418.921875 l 1,162,-1
 377.546875 415.375 l 1,163,-1
 321.46875 471.46875 l 1,164,-1
 325 475 l 1,159,-1
511 485 m 1,165,-1
 514.546875 488.53125 l 1,166,-1
 564.875 438.203125 l 1,167,-1
 561.34375 434.65625 l 1,168,-1
 557.8125 431.125 l 1,169,-1
 507.46875 481.46875 l 1,170,-1
 511 485 l 1,165,-1
883 385 m 1,171,-1
 886.53125 388.53125 l 1,172,-1
 927.53125 347.53125 l 1,173,-1
 924 344 l 1,174,-1
 920.46875 340.453125 l 1,175,-1
 879.46875 381.46875 l 1,176,-1
 883 385 l 1,171,-1
1034 509.984375 m 1,177,-1
 1037.53125 513.53125 l 1,178,-1
 1108.25 442.8125 l 1,179,-1
 1104.71875 439.28125 l 1,180,-1
 1101.171875 435.75 l 1,181,-1
 1030.46875 506.453125 l 1,182,-1
 1034 509.984375 l 1,177,-1
544 745 m 1,183,-1
 547.546875 748.53125 l 1,184,-1
 570.640625 725.4375 l 1,185,-1
 567.109375 721.90625 l 1,186,-1
 563.5625 718.375 l 1,187,-1
 540.46875 741.46875 l 1,188,-1
 544 745 l 1,183,-1
521 815 m 1,189,-1
 524.53125 818.53125 l 1,190,-1
 595.234375 747.8125 l 1,191,-1
 596.078125 746.984375 l 1,192,-1
 596.453125 745.84375 l 1,193,-1
 597.28125 743.3125 l 1,194,-1
 592.53125 741.75 l 1,195,-1
 587.78125 740.1875 l 1,196,-1
 587.328125 741.59375 l 1,197,-1
 517.453125 811.453125 l 1,198,-1
 521 815 l 1,189,-1
1024 797 m 1,199,-1
 1027.53125 800.53125 l 1,200,-1
 1098.25 729.828125 l 1,201,-1
 1099.640625 728.4375 l 1,202,-1
 1099.703125 726.46875 l 1,203,-1
 1109.703125 439.453125 l 1,204,-1
 1109.796875 437 l 1,205,-1
 1107.90625 435.421875 l 1,206,-1
 977.578125 327.546875 l 1,207,-1
 974.375 331.40625 l 1,208,-1
 971.1875 335.25 l 1,209,-1
 1099.625 441.5625 l 1,210,-1
 1089.78125 724.140625 l 1,211,-1
 1020.46875 793.46875 l 1,212,-1
 1024 797 l 1,199,-1
1040 315 m 1,213,-1
 1043.53125 318.53125 l 1,214,-1
 1114.25 247.8125 l 1,215,-1
 1115.703125 246.359375 l 1,216,-1
 1115.703125 244.28125 l 1,217,-1
 1115.703125 74.296875 l 1,218,-1
 1115.703125 72.453125 l 1,219,-1
 1114.515625 71.046875 l 1,220,-1
 992.5 -71.953125 l 1,221,-1
 990.953125 -73.78125 l 1,222,-1
 988.5625 -73.703125 l 1,223,-1
 647.5625 -63.703125 l 1,224,-1
 645.578125 -63.65625 l 1,225,-1
 644.171875 -62.25 l 1,226,-1
 573.46875 8.46875 l 1,227,-1
 577 12 l 1,228,-1
 580.53125 15.53125 l 1,229,-1
 649.84375 -53.765625 l 1,230,-1
 986.453125 -63.640625 l 1,231,-1
 1105.703125 76.140625 l 1,232,-1
 1105.703125 242.21875 l 1,233,-1
 1036.46875 311.453125 l 1,234,-1
 1040 315 l 1,213,-1
361.484375 281.1875 m 1,235,-1
 363.578125 276.640625 l 1,236,-1
 356.140625 273.203125 l 1,237,-1
 552.84375 -18.921875 l 1,238,-1
 553.96875 -20.578125 l 1,239,-1
 553.625 -22.546875 l 1,240,-1
 547.640625 -57.5625 l 1,241,-1
 546.890625 -61.953125 l 1,242,-1
 542.4375 -61.703125 l 1,243,-1
 133.4375 -38.703125 l 1,244,-1
 131.796875 -38.609375 l 1,245,-1
 130.53125 -37.5625 l 1,246,-1
 59.515625 21.4375 l 1,247,-1
 59.171875 21.75 l 1,248,-1
 -11.53125 92.453125 l 1,249,-1
 -8 95.984375 l 1,250,-1
 -4.46875 99.53125 l 1,251,-1
 66.078125 28.984375 l 1,252,-1
 135.640625 -28.8125 l 1,253,-1
 538.546875 -51.46875 l 1,254,-1
 543.4375 -22.84375 l 1,255,-1
 343.96875 273.375 l 1,256,-1
 341.28125 277.359375 l 1,257,-1
 346.625 279.828125 l 1,258,-1
 359.390625 285.71875 l 1,259,-1
 361.484375 281.1875 l 1,235,-1
EndSplineSet
Validated: 524293
EndChar

StartChar: L
Encoding: 76 76 11
Width: 1094
VWidth: 0
Flags: W
LayerCount: 2
Fore
SplineSet
96 815.796875 m 1,0,-1
 -11 700.03125 l 1,1,-1
 -13 151.71875 l 1,2,-1
 74.59375 39.796875 l 1,3,-1
 472.015625 5.015625 l 1,4,-1
 978.703125 45.828125 l 1,5,-1
 1019.078125 88.09375 l 1,6,-1
 1032.875 413.609375 l 1,7,-1
 875.65625 533.734375 l 1,8,-1
 644.03125 497.5625 l 1,9,-1
 603.078125 337.59375 l 1,10,-1
 664.25 321.84375 l 1,11,-1
 669.15625 320.578125 l 1,12,-1
 667.828125 315.6875 l 1,13,-1
 609.828125 102.6875 l 1,14,-1
 608.8125 98.9375 l 1,15,-1
 604.921875 99 l 1,16,-1
 492.921875 101 l 1,17,-1
 486.875 101.109375 l 1,18,-1
 488.109375 107.03125 l 1,19,-1
 492.109375 126.015625 l 1,20,-1
 492.859375 129.59375 l 1,21,-1
 496.484375 129.96875 l 1,22,-1
 531.859375 133.59375 l 1,23,-1
 654.71875 716.21875 l 1,24,-1
 620.96875 777.15625 l 1,25,-1
 389.640625 790.015625 l 1,26,-1
 96 815.796875 l 1,0,-1
94.4375 825.96875 m 1,27,-1
 390.359375 799.984375 l 1,28,-1
 624.28125 786.984375 l 1,29,-1
 627.03125 786.828125 l 1,30,-1
 628.375 784.421875 l 1,31,-1
 664.375 719.421875 l 1,32,-1
 665.265625 717.796875 l 1,33,-1
 664.890625 715.96875 l 1,34,-1
 540.890625 127.953125 l 1,35,-1
 540.140625 124.390625 l 1,36,-1
 536.5 124.015625 l 1,37,-1
 501.140625 120.390625 l 1,38,-1
 499.140625 110.890625 l 1,39,-1
 601.203125 109.0625 l 1,40,-1
 656.84375 313.421875 l 1,41,-1
 595.75 329.15625 l 1,42,-1
 590.921875 330.40625 l 1,43,-1
 592.15625 335.234375 l 1,44,-1
 635.15625 503.234375 l 1,45,-1
 635.96875 506.4375 l 1,46,-1
 639.21875 506.9375 l 1,47,-1
 876.234375 543.9375 l 1,48,-1
 878.34375 544.265625 l 1,49,-1
 880.03125 542.96875 l 1,50,-1
 1041.03125 419.96875 l 1,51,-1
 1043.09375 418.390625 l 1,52,-1
 1042.984375 415.78125 l 1,53,-1
 1029 85.796875 l 1,54,-1
 1028.921875 83.90625 l 1,55,-1
 1027.609375 82.546875 l 1,56,-1
 984.609375 37.53125 l 1,57,-1
 983.296875 36.15625 l 1,58,-1
 981.40625 36 l 1,59,-1
 472.390625 -4.984375 l 1,60,-1
 471.96875 -5.015625 l 1,61,-1
 71.5625 30.015625 l 1,62,-1
 69.390625 30.203125 l 1,63,-1
 68.0625 31.921875 l 1,64,-1
 -21.9375 146.921875 l 1,65,-1
 -23 148.296875 l 1,66,-1
 -23 150.03125 l 1,67,-1
 -21 702.015625 l 1,68,-1
 -20.984375 703.96875 l 1,69,-1
 -19.671875 705.390625 l 1,70,-1
 90.328125 824.390625 l 1,71,-1
 92 826.1875 l 1,72,-1
 94.4375 825.96875 l 1,27,-1
472 0 m 1,73,-1
 475.53125 3.53125 l 1,74,-1
 546.234375 -67.171875 l 1,75,-1
 542.703125 -70.71875 l 1,76,-1
 539.171875 -74.25 l 1,77,-1
 468.453125 -3.53125 l 1,78,-1
 472 0 l 1,73,-1
981 40.984375 m 1,79,-1
 984.53125 44.53125 l 1,80,-1
 1055.25 -26.1875 l 1,81,-1
 1051.71875 -29.71875 l 1,82,-1
 1048.171875 -33.25 l 1,83,-1
 977.46875 37.453125 l 1,84,-1
 981 40.984375 l 1,79,-1
1024 86 m 1,85,-1
 1027.53125 89.53125 l 1,86,-1
 1098.25 18.828125 l 1,87,-1
 1094.71875 15.296875 l 1,88,-1
 1091.171875 11.75 l 1,89,-1
 1020.46875 82.46875 l 1,90,-1
 1024 86 l 1,85,-1
597 334 m 1,91,-1
 600.53125 337.53125 l 1,92,-1
 656.046875 282.015625 l 1,93,-1
 652.515625 278.484375 l 1,94,-1
 648.96875 274.953125 l 1,95,-1
 593.46875 330.46875 l 1,96,-1
 597 334 l 1,91,-1
497 125 m 1,97,-1
 500.53125 128.53125 l 1,98,-1
 519.9375 109.125 l 1,99,-1
 516.40625 105.578125 l 1,100,-1
 512.875 102.046875 l 1,101,-1
 493.46875 121.453125 l 1,102,-1
 497 125 l 1,97,-1
536 129 m 1,103,-1
 539.53125 132.53125 l 1,104,-1
 563.71875 108.34375 l 1,105,-1
 560.1875 104.796875 l 1,106,-1
 556.65625 101.265625 l 1,107,-1
 532.46875 125.453125 l 1,108,-1
 536 129 l 1,103,-1
660 717 m 1,109,-1
 663.53125 720.546875 l 1,110,-1
 734.25 649.828125 l 1,111,-1
 730.703125 646.296875 l 1,112,-1
 727.171875 642.765625 l 1,113,-1
 656.453125 713.46875 l 1,114,-1
 660 717 l 1,109,-1
624 782 m 1,115,-1
 627.53125 785.53125 l 1,116,-1
 698.25 714.8125 l 1,117,-1
 698.75 714.328125 l 1,118,-1
 699.078125 713.703125 l 1,119,-1
 735.078125 648.71875 l 1,120,-1
 735.984375 647.09375 l 1,121,-1
 735.59375 645.265625 l 1,122,-1
 707.21875 510.703125 l 1,123,-1
 702.328125 511.734375 l 1,124,-1
 697.4375 512.765625 l 1,125,-1
 725.4375 645.5 l 1,126,-1
 690.671875 708.25 l 1,127,-1
 620.46875 778.453125 l 1,128,-1
 624 782 l 1,115,-1
1037.984375 416 m 1,129,-1
 1041.53125 419.53125 l 1,130,-1
 1112.234375 348.828125 l 1,131,-1
 1113.78125 347.265625 l 1,132,-1
 1113.6875 345.078125 l 1,133,-1
 1099.703125 15.078125 l 1,134,-1
 1099.625 13.203125 l 1,135,-1
 1098.328125 11.84375 l 1,136,-1
 1055.328125 -33.171875 l 1,137,-1
 1054.015625 -34.546875 l 1,138,-1
 1052.109375 -34.703125 l 1,139,-1
 543.109375 -75.6875 l 1,140,-1
 542.6875 -75.734375 l 1,141,-1
 142.265625 -40.6875 l 1,142,-1
 140.453125 -40.53125 l 1,143,-1
 139.171875 -39.25 l 1,144,-1
 68.453125 31.46875 l 1,145,-1
 72 35 l 1,146,-1
 75.53125 38.53125 l 1,147,-1
 144.953125 -30.890625 l 1,148,-1
 542.71875 -65.6875 l 1,149,-1
 1049.40625 -24.890625 l 1,150,-1
 1089.796875 17.390625 l 1,151,-1
 1103.609375 343.3125 l 1,152,-1
 1034.453125 412.46875 l 1,153,-1
 1037.984375 416 l 1,129,-1
EndSplineSet
Validated: 524293
EndChar

StartChar: M
Encoding: 77 77 12
Width: 1094
VWidth: 0
Flags: W
LayerCount: 2
Fore
SplineSet
-27 834.203125 m 1,0,-1
 -27 719.125 l 1,1,-1
 5.484375 687.59375 l 1,2,-1
 7 686.125 l 1,3,-1
 7 684 l 1,4,-1
 7 379 l 1,5,-1
 7 376.921875 l 1,6,-1
 5.53125 375.46875 l 1,7,-1
 -18 351.921875 l 1,8,-1
 -18 143.578125 l 1,9,-1
 118.828125 45.84375 l 1,10,-1
 376.15625 19.21875 l 1,11,-1
 411.953125 55.015625 l 1,12,-1
 408.03125 205.5625 l 1,13,-1
 309.703125 370.4375 l 1,14,-1
 307.03125 374.90625 l 1,15,-1
 311.609375 377.390625 l 1,16,-1
 346.609375 396.390625 l 1,17,-1
 350.65625 398.59375 l 1,18,-1
 353.171875 394.75 l 1,19,-1
 474.53125 210.28125 l 1,20,-1
 530.25 215.671875 l 1,21,-1
 601.234375 433.546875 l 1,22,-1
 602.640625 437.84375 l 1,23,-1
 607.046875 436.890625 l 1,24,-1
 644.0625 428.890625 l 1,25,-1
 649.34375 427.75 l 1,26,-1
 647.796875 422.5625 l 1,27,-1
 526.765625 20.125 l 1,28,-1
 950.84375 27.96875 l 1,29,-1
 1046.015625 127.03125 l 1,30,-1
 1047.96875 470 l 1,31,-1
 1011.9375 470 l 1,32,-1
 950.859375 217.828125 l 1,33,-1
 949.75 213.25 l 1,34,-1
 945.109375 214.078125 l 1,35,-1
 923.109375 218.078125 l 1,36,-1
 917.765625 219.046875 l 1,37,-1
 919.171875 224.28125 l 1,38,-1
 1045.453125 696.59375 l 1,39,-1
 929.90625 817.953125 l 1,40,-1
 375.828125 806.0625 l 1,41,-1
 327.90625 728.046875 l 1,42,-1
 528.21875 411.6875 l 1,43,-1
 529.78125 409.203125 l 1,44,-1
 528.40625 406.625 l 1,45,-1
 494.40625 343.625 l 1,46,-1
 490.9375 337.1875 l 1,47,-1
 486.1875 342.75 l 1,48,-1
 435.1875 402.765625 l 1,49,-1
 432.796875 405.5625 l 1,50,-1
 434.765625 408.671875 l 1,51,-1
 464.109375 455.03125 l 1,52,-1
 255.96875 792.390625 l 1,53,-1
 -27 834.203125 l 1,0,-1
-31.265625 844.9375 m 1,54,-1
 259.734375 801.9375 l 1,55,-1
 262.03125 801.609375 l 1,56,-1
 263.25 799.625 l 1,57,-1
 474.265625 457.625 l 1,58,-1
 475.90625 454.96875 l 1,59,-1
 474.234375 452.328125 l 1,60,-1
 445.1875 406.4375 l 1,61,-1
 489.078125 354.8125 l 1,62,-1
 518.203125 408.796875 l 1,63,-1
 317.78125 725.328125 l 1,64,-1
 316.125 727.953125 l 1,65,-1
 317.75 730.609375 l 1,66,-1
 368.734375 813.625 l 1,67,-1
 370.171875 815.953125 l 1,68,-1
 372.890625 816 l 1,69,-1
 931.890625 828 l 1,70,-1
 934.09375 828.046875 l 1,71,-1
 935.625 826.4375 l 1,72,-1
 1054.625 701.453125 l 1,73,-1
 1056.5625 699.421875 l 1,74,-1
 1055.828125 696.71875 l 1,75,-1
 930.234375 226.9375 l 1,76,-1
 942.25 224.765625 l 1,77,-1
 1003.140625 476.171875 l 1,78,-1
 1004.0625 480 l 1,79,-1
 1008 480 l 1,80,-1
 1053 480 l 1,81,-1
 1058.015625 480 l 1,82,-1
 1058 474.96875 l 1,83,-1
 1056 124.96875 l 1,84,-1
 1056 122.984375 l 1,85,-1
 1054.609375 121.53125 l 1,86,-1
 956.609375 19.53125 l 1,87,-1
 955.171875 18.046875 l 1,88,-1
 953.09375 18 l 1,89,-1
 520.09375 10 l 1,90,-1
 513.234375 9.875 l 1,91,-1
 515.21875 16.4375 l 1,92,-1
 636.65625 420.25 l 1,93,-1
 609.34375 426.15625 l 1,94,-1
 538.75 209.453125 l 1,95,-1
 537.734375 206.34375 l 1,96,-1
 534.484375 206.03125 l 1,97,-1
 472.484375 200.03125 l 1,98,-1
 469.484375 199.734375 l 1,99,-1
 467.828125 202.25 l 1,100,-1
 347.34375 385.421875 l 1,101,-1
 320.953125 371.09375 l 1,102,-1
 417.28125 209.5625 l 1,103,-1
 417.953125 208.4375 l 1,104,-1
 418 207.140625 l 1,105,-1
 422 53.125 l 1,106,-1
 422.0625 50.984375 l 1,107,-1
 420.546875 49.46875 l 1,108,-1
 381.53125 10.46875 l 1,109,-1
 379.859375 8.78125 l 1,110,-1
 377.484375 9.03125 l 1,111,-1
 116.484375 36.03125 l 1,112,-1
 115.15625 36.15625 l 1,113,-1
 114.09375 36.9375 l 1,114,-1
 -25.90625 136.9375 l 1,115,-1
 -28 138.421875 l 1,116,-1
 -28 141 l 1,117,-1
 -28 354 l 1,118,-1
 -28 356.0625 l 1,119,-1
 -26.53125 357.53125 l 1,120,-1
 -3 381.0625 l 1,121,-1
 -3 681.890625 l 1,122,-1
 -35.484375 713.421875 l 1,123,-1
 -37 714.890625 l 1,124,-1
 -37 717 l 1,125,-1
 -37 840 l 1,126,-1
 -37 845.796875 l 1,127,-1
 -31.265625 844.9375 l 1,54,-1
117 41 m 1,128,-1
 120.53125 44.53125 l 1,129,-1
 191.234375 -26.171875 l 1,130,-1
 187.703125 -29.703125 l 1,131,-1
 184.171875 -33.25 l 1,132,-1
 113.453125 37.46875 l 1,133,-1
 117 41 l 1,128,-1
378 14 m 1,134,-1
 381.53125 17.53125 l 1,135,-1
 452.25 -53.171875 l 1,136,-1
 448.71875 -56.71875 l 1,137,-1
 445.171875 -60.25 l 1,138,-1
 374.46875 10.46875 l 1,139,-1
 378 14 l 1,134,-1
417 53 m 1,140,-1
 420.546875 56.53125 l 1,141,-1
 491.25 -14.171875 l 1,142,-1
 487.71875 -17.71875 l 1,143,-1
 484.1875 -21.25 l 1,144,-1
 413.46875 49.46875 l 1,145,-1
 417 53 l 1,140,-1
413 207 m 1,146,-1
 416.53125 210.546875 l 1,147,-1
 487.234375 139.828125 l 1,148,-1
 483.703125 136.296875 l 1,149,-1
 480.171875 132.765625 l 1,150,-1
 409.453125 203.46875 l 1,151,-1
 413 207 l 1,146,-1
314 373 m 1,152,-1
 317.53125 376.53125 l 1,153,-1
 388.25 305.828125 l 1,154,-1
 384.703125 302.28125 l 1,155,-1
 381.171875 298.75 l 1,156,-1
 310.46875 369.46875 l 1,157,-1
 314 373 l 1,152,-1
534 211 m 1,158,-1
 537.53125 214.546875 l 1,159,-1
 572.09375 179.984375 l 1,160,-1
 568.5625 176.453125 l 1,161,-1
 565.015625 172.90625 l 1,162,-1
 530.46875 207.46875 l 1,163,-1
 534 211 l 1,158,-1
605.984375 432 m 1,164,-1
 609.53125 435.53125 l 1,165,-1
 639.828125 405.234375 l 1,166,-1
 636.296875 401.6875 l 1,167,-1
 632.765625 398.15625 l 1,168,-1
 602.453125 428.46875 l 1,169,-1
 605.984375 432 l 1,164,-1
953 23 m 1,170,-1
 956.53125 26.53125 l 1,171,-1
 1027.25 -44.171875 l 1,172,-1
 1023.71875 -47.703125 l 1,173,-1
 1020.171875 -51.25 l 1,174,-1
 949.46875 19.46875 l 1,175,-1
 953 23 l 1,170,-1
439 406 m 1,176,-1
 442.53125 409.53125 l 1,177,-1
 496.6875 355.375 l 1,178,-1
 493.15625 351.84375 l 1,179,-1
 489.625 348.296875 l 1,180,-1
 435.453125 402.46875 l 1,181,-1
 439 406 l 1,176,-1
470 455 m 1,182,-1
 473.546875 458.53125 l 1,183,-1
 524.734375 407.34375 l 1,184,-1
 521.203125 403.8125 l 1,185,-1
 517.65625 400.28125 l 1,186,-1
 466.46875 451.46875 l 1,187,-1
 470 455 l 1,182,-1
259 797 m 1,188,-1
 262.53125 800.53125 l 1,189,-1
 327.828125 735.25 l 1,190,-1
 324.28125 731.703125 l 1,191,-1
 320.75 728.171875 l 1,192,-1
 255.46875 793.46875 l 1,193,-1
 259 797 l 1,188,-1
932 823 m 1,194,-1
 935.53125 826.53125 l 1,195,-1
 1006.28125 755.78125 l 1,196,-1
 1125.34375 630.734375 l 1,197,-1
 1127.265625 628.703125 l 1,198,-1
 1126.546875 626 l 1,199,-1
 1079.921875 451.609375 l 1,200,-1
 1075.09375 452.90625 l 1,201,-1
 1070.25 454.1875 l 1,202,-1
 1116.15625 625.875 l 1,203,-1
 999.125 748.796875 l 1,204,-1
 928.46875 819.453125 l 1,205,-1
 932 823 l 1,194,-1
1053 475 m 1,206,-1
 1056.53125 478.53125 l 1,207,-1
 1127.234375 407.828125 l 1,208,-1
 1128.71875 406.34375 l 1,209,-1
 1128.703125 404.265625 l 1,210,-1
 1126.71875 54.265625 l 1,211,-1
 1126.703125 52.265625 l 1,212,-1
 1125.3125 50.828125 l 1,213,-1
 1027.3125 -51.171875 l 1,214,-1
 1025.875 -52.671875 l 1,215,-1
 1023.8125 -52.703125 l 1,216,-1
 590.796875 -60.71875 l 1,217,-1
 588.671875 -60.75 l 1,218,-1
 587.171875 -59.25 l 1,219,-1
 516.46875 11.453125 l 1,220,-1
 520 15 l 1,221,-1
 523.53125 18.53125 l 1,222,-1
 592.75 -50.6875 l 1,223,-1
 1021.546875 -42.75 l 1,224,-1
 1116.71875 56.3125 l 1,225,-1
 1118.6875 402.234375 l 1,226,-1
 1049.453125 471.46875 l 1,227,-1
 1053 475 l 1,206,-1
556.265625 135.609375 m 1,228,-1
 556.75 130.625 l 1,229,-1
 543.203125 129.3125 l 1,230,-1
 542.71875 134.296875 l 1,231,-1
 542.234375 139.265625 l 1,232,-1
 555.796875 140.578125 l 1,233,-1
 556.265625 135.609375 l 1,228,-1
401.875 311.609375 m 1,234,-1
 404.265625 307.21875 l 1,235,-1
 391.671875 300.375 l 1,236,-1
 488 138.859375 l 1,237,-1
 488.671875 137.734375 l 1,238,-1
 488.703125 136.421875 l 1,239,-1
 492.71875 -17.578125 l 1,240,-1
 492.765625 -19.734375 l 1,241,-1
 491.25 -21.25 l 1,242,-1
 452.25 -60.25 l 1,243,-1
 450.5625 -61.9375 l 1,244,-1
 448.203125 -61.6875 l 1,245,-1
 187.1875 -34.6875 l 1,246,-1
 185.875 -34.546875 l 1,247,-1
 184.796875 -33.78125 l 1,248,-1
 44.796875 66.21875 l 1,249,-1
 44.46875 66.46875 l 1,250,-1
 -26.53125 137.46875 l 1,251,-1
 -23 141 l 1,252,-1
 -19.46875 144.53125 l 1,253,-1
 50.953125 74.125 l 1,254,-1
 189.53125 -24.875 l 1,255,-1
 446.859375 -51.5 l 1,256,-1
 482.65625 -15.6875 l 1,257,-1
 478.734375 134.859375 l 1,258,-1
 380.421875 299.734375 l 1,259,-1
 377.75 304.203125 l 1,260,-1
 382.328125 306.6875 l 1,261,-1
 399.5 316 l 1,262,-1
 401.875 311.609375 l 1,234,-1
EndSplineSet
Validated: 524293
EndChar

StartChar: N
Encoding: 78 78 13
Width: 1094
VWidth: 0
Flags: W
LayerCount: 2
Fore
SplineSet
-23 773.484375 m 1,0,-1
 -23 612.25 l 1,1,-1
 21.328125 572.734375 l 1,2,-1
 23.09375 571.171875 l 1,3,-1
 23 568.8125 l 1,4,-1
 17 402.828125 l 1,5,-1
 16.90625 400.375 l 1,6,-1
 14.90625 398.9375 l 1,7,-1
 -10.921875 380.484375 l 1,8,-1
 -1.09375 98.875 l 1,9,-1
 112.59375 29.890625 l 1,10,-1
 480.9375 -0.640625 l 1,11,-1
 513.5625 168.15625 l 1,12,-1
 323.6875 336.25 l 1,13,-1
 320.0625 339.46875 l 1,14,-1
 323.15625 343.203125 l 1,15,-1
 333.15625 355.203125 l 1,16,-1
 336.328125 359 l 1,17,-1
 340.15625 355.890625 l 1,18,-1
 647.15625 105.875 l 1,19,-1
 649.015625 104.359375 l 1,20,-1
 649 101.953125 l 1,21,-1
 648.0625 5.5 l 1,22,-1
 986.734375 37.796875 l 1,23,-1
 1030.90625 81.96875 l 1,24,-1
 1011 550.78125 l 1,25,-1
 1010.9375 552.21875 l 1,26,-1
 1011.65625 553.46875 l 1,27,-1
 1038.953125 601.25 l 1,28,-1
 1033.15625 769.453125 l 1,29,-1
 678.796875 804 l 1,30,-1
 295.078125 798.09375 l 1,31,-1
 331.5625 614.65625 l 1,32,-1
 729.265625 271.78125 l 1,33,-1
 732.515625 268.96875 l 1,34,-1
 730.234375 265.328125 l 1,35,-1
 703.234375 222.328125 l 1,36,-1
 700.421875 217.875 l 1,37,-1
 696.125 220.90625 l 1,38,-1
 449.109375 394.921875 l 1,39,-1
 445.234375 397.65625 l 1,40,-1
 447.765625 401.671875 l 1,41,-1
 467.40625 432.90625 l 1,42,-1
 13.859375 800.671875 l 1,43,-1
 -23 773.484375 l 1,0,-1
-30.96875 780.03125 m 1,44,-1
 11.03125 811.015625 l 1,45,-1
 14.140625 813.3125 l 1,46,-1
 17.140625 810.875 l 1,47,-1
 477.140625 437.875 l 1,48,-1
 480.59375 435.09375 l 1,49,-1
 478.21875 431.34375 l 1,50,-1
 458.75 400.359375 l 1,51,-1
 697.5625 232.109375 l 1,52,-1
 719.484375 267.015625 l 1,53,-1
 323.734375 608.21875 l 1,54,-1
 322.421875 609.34375 l 1,55,-1
 322.09375 611.03125 l 1,56,-1
 284.09375 802.015625 l 1,57,-1
 282.921875 807.90625 l 1,58,-1
 288.921875 808 l 1,59,-1
 678.921875 814 l 1,60,-1
 679.203125 814 l 1,61,-1
 1038.484375 778.984375 l 1,62,-1
 1042.84375 778.5625 l 1,63,-1
 1043 774.171875 l 1,64,-1
 1049 600.171875 l 1,65,-1
 1049.046875 598.75 l 1,66,-1
 1048.34375 597.515625 l 1,67,-1
 1021.0625 549.765625 l 1,68,-1
 1041 80.203125 l 1,69,-1
 1041.09375 78.015625 l 1,70,-1
 1039.53125 76.453125 l 1,71,-1
 992.53125 29.453125 l 1,72,-1
 991.265625 28.1875 l 1,73,-1
 989.46875 28.015625 l 1,74,-1
 643.484375 -4.984375 l 1,75,-1
 637.953125 -5.5 l 1,76,-1
 638 0.046875 l 1,77,-1
 638.96875 99.640625 l 1,78,-1
 337.6875 345 l 1,79,-1
 333.953125 340.53125 l 1,80,-1
 522.3125 173.75 l 1,81,-1
 524.453125 171.859375 l 1,82,-1
 523.90625 169.0625 l 1,83,-1
 489.90625 -6.953125 l 1,84,-1
 489.0625 -11.359375 l 1,85,-1
 484.578125 -10.984375 l 1,86,-1
 110.59375 20.015625 l 1,87,-1
 109.421875 20.125 l 1,88,-1
 108.40625 20.734375 l 1,89,-1
 -8.59375 91.71875 l 1,90,-1
 -10.90625 93.125 l 1,91,-1
 -11 95.828125 l 1,92,-1
 -21 382.828125 l 1,93,-1
 -21.09375 385.5 l 1,94,-1
 -18.921875 387.0625 l 1,95,-1
 7.09375 405.640625 l 1,96,-1
 12.921875 566.828125 l 1,97,-1
 -31.328125 606.265625 l 1,98,-1
 -33 607.765625 l 1,99,-1
 -33 610 l 1,100,-1
 -33 776 l 1,101,-1
 -33 778.53125 l 1,102,-1
 -30.96875 780.03125 l 1,44,-1
-28 610 m 1,103,-1
 -24.46875 613.53125 l 1,104,-1
 21.375 567.6875 l 1,105,-1
 17.828125 564.15625 l 1,106,-1
 14.296875 560.625 l 1,107,-1
 -31.546875 606.46875 l 1,108,-1
 -28 610 l 1,103,-1
111 25 m 1,109,-1
 114.546875 28.53125 l 1,110,-1
 185.25 -42.171875 l 1,111,-1
 181.71875 -45.703125 l 1,112,-1
 178.1875 -49.25 l 1,113,-1
 107.46875 21.46875 l 1,114,-1
 111 25 l 1,109,-1
485 -6 m 1,115,-1
 488.53125 -2.46875 l 1,116,-1
 559.25 -73.171875 l 1,117,-1
 555.703125 -76.703125 l 1,118,-1
 552.171875 -80.25 l 1,119,-1
 481.46875 -9.53125 l 1,120,-1
 485 -6 l 1,115,-1
337 352 m 1,121,-1
 340.53125 355.546875 l 1,122,-1
 411.25 284.828125 l 1,123,-1
 407.71875 281.296875 l 1,124,-1
 404.171875 277.765625 l 1,125,-1
 333.46875 348.46875 l 1,126,-1
 337 352 l 1,121,-1
989 32.984375 m 1,127,-1
 992.53125 36.53125 l 1,128,-1
 1063.25 -34.1875 l 1,129,-1
 1059.703125 -37.71875 l 1,130,-1
 1056.171875 -41.25 l 1,131,-1
 985.46875 29.453125 l 1,132,-1
 989 32.984375 l 1,127,-1
1036 79.984375 m 1,133,-1
 1039.53125 83.53125 l 1,134,-1
 1110.25 12.8125 l 1,135,-1
 1106.71875 9.28125 l 1,136,-1
 1103.171875 5.75 l 1,137,-1
 1032.46875 76.453125 l 1,138,-1
 1036 79.984375 l 1,133,-1
1016 550.984375 m 1,139,-1
 1019.53125 554.53125 l 1,140,-1
 1090.25 483.8125 l 1,141,-1
 1086.71875 480.28125 l 1,142,-1
 1083.171875 476.75 l 1,143,-1
 1012.46875 547.453125 l 1,144,-1
 1016 550.984375 l 1,139,-1
1044 600 m 1,145,-1
 1047.53125 603.53125 l 1,146,-1
 1118.25 532.828125 l 1,147,-1
 1114.703125 529.296875 l 1,148,-1
 1111.171875 525.75 l 1,149,-1
 1040.46875 596.46875 l 1,150,-1
 1044 600 l 1,145,-1
474 434 m 1,151,-1
 477.53125 437.53125 l 1,152,-1
 548.234375 366.828125 l 1,153,-1
 551.0625 364 l 1,154,-1
 548.9375 360.625 l 1,155,-1
 536.046875 340.109375 l 1,156,-1
 531.8125 342.78125 l 1,157,-1
 527.578125 345.4375 l 1,158,-1
 538.34375 362.578125 l 1,159,-1
 470.453125 430.46875 l 1,160,-1
 474 434 l 1,151,-1
722.03125 261.671875 m 1,161,-1
 718.765625 257.875 l 1,162,-1
 394.4375 537.5 l 1,163,-1
 394.171875 537.75 l 1,164,-1
 323.453125 608.46875 l 1,165,-1
 327 612 l 1,166,-1
 330.53125 615.53125 l 1,167,-1
 401.109375 544.953125 l 1,168,-1
 725.296875 265.453125 l 1,169,-1
 722.03125 261.671875 l 1,161,-1
1038 774 m 1,170,-1
 1041.53125 777.546875 l 1,171,-1
 1112.25 706.828125 l 1,172,-1
 1113.640625 705.4375 l 1,173,-1
 1113.703125 703.46875 l 1,174,-1
 1119.703125 529.46875 l 1,175,-1
 1119.75 528.046875 l 1,176,-1
 1119.046875 526.8125 l 1,177,-1
 1091.765625 479.046875 l 1,178,-1
 1111.703125 9.5 l 1,179,-1
 1111.796875 7.296875 l 1,180,-1
 1110.25 5.75 l 1,181,-1
 1063.25 -41.25 l 1,182,-1
 1061.96875 -42.53125 l 1,183,-1
 1060.1875 -42.703125 l 1,184,-1
 714.1875 -75.6875 l 1,185,-1
 711.84375 -75.90625 l 1,186,-1
 710.171875 -74.25 l 1,187,-1
 639.46875 -3.53125 l 1,188,-1
 643 0 l 1,189,-1
 646.53125 3.53125 l 1,190,-1
 715.578125 -65.515625 l 1,191,-1
 1057.4375 -32.90625 l 1,192,-1
 1101.625 11.265625 l 1,193,-1
 1081.71875 480.0625 l 1,194,-1
 1081.65625 481.515625 l 1,195,-1
 1082.375 482.765625 l 1,196,-1
 1109.65625 530.53125 l 1,197,-1
 1103.78125 701.15625 l 1,198,-1
 1034.46875 770.46875 l 1,199,-1
 1038 774 l 1,170,-1
643.875 88.984375 m 1,200,-1
 640.71875 85.09375 l 1,201,-1
 408.390625 274.296875 l 1,202,-1
 405.4375 270.75 l 1,203,-1
 401.59375 273.953125 l 1,204,-1
 397.75 277.15625 l 1,205,-1
 403.875 284.5 l 1,206,-1
 407.03125 288.296875 l 1,207,-1
 410.875 285.171875 l 1,208,-1
 647.03125 92.859375 l 1,209,-1
 643.875 88.984375 l 1,200,-1
519 170 m 1,210,-1
 522.546875 173.53125 l 1,211,-1
 593.25 102.828125 l 1,212,-1
 595.125 100.953125 l 1,213,-1
 594.625 98.34375 l 1,214,-1
 560.625 -77.65625 l 1,215,-1
 559.765625 -82.0625 l 1,216,-1
 555.296875 -81.6875 l 1,217,-1
 181.296875 -50.6875 l 1,218,-1
 180.125 -50.59375 l 1,219,-1
 179.125 -49.984375 l 1,220,-1
 62.125 21.015625 l 1,221,-1
 61.609375 21.328125 l 1,222,-1
 -9.53125 92.46875 l 1,223,-1
 -6 96 l 1,224,-1
 -2.46875 99.53125 l 1,225,-1
 67.8125 29.25 l 1,226,-1
 183.296875 -40.828125 l 1,227,-1
 551.65625 -71.359375 l 1,228,-1
 584.296875 97.640625 l 1,229,-1
 515.46875 166.46875 l 1,230,-1
 519 170 l 1,210,-1
EndSplineSet
Validated: 524293
EndChar

StartChar: O
Encoding: 79 79 14
Width: 1094
VWidth: 0
Flags: W
LayerCount: 2
Fore
SplineSet
-34.9375 695.0625 m 1,0,-1
 -25.03125 129.21875 l 1,1,-1
 75.046875 35.921875 l 1,2,-1
 967 3.078125 l 1,3,-1
 1019 55.078125 l 1,4,-1
 1021 612.015625 l 1,5,-1
 869.71875 771.140625 l 1,6,-1
 240.4375 811.78125 l 1,7,-1
 169.25 614.578125 l 1,8,-1
 463.40625 476.6875 l 1,9,-1
 467 545.265625 l 1,10,-1
 467.109375 547.3125 l 1,11,-1
 468.625 548.703125 l 1,12,-1
 501.625 578.703125 l 1,13,-1
 502.828125 579.78125 l 1,14,-1
 504.421875 579.96875 l 1,15,-1
 565.4375 586.96875 l 1,16,-1
 567.953125 587.265625 l 1,17,-1
 569.671875 585.40625 l 1,18,-1
 594.671875 558.390625 l 1,19,-1
 595.828125 557.140625 l 1,20,-1
 595.984375 555.4375 l 1,21,-1
 632.984375 137.4375 l 1,22,-1
 633.21875 134.78125 l 1,23,-1
 631.140625 133.109375 l 1,24,-1
 590.125 100.109375 l 1,25,-1
 588.1875 98.546875 l 1,26,-1
 585.78125 99.15625 l 1,27,-1
 470.765625 128.15625 l 1,28,-1
 467.09375 129.078125 l 1,29,-1
 467 132.875 l 1,30,-1
 459.078125 442.875 l 1,31,-1
 137.765625 603.53125 l 1,32,-1
 133.796875 605.515625 l 1,33,-1
 135.296875 609.703125 l 1,34,-1
 195.859375 777.6875 l 1,35,-1
 156.96875 799.296875 l 1,36,-1
 -34.9375 695.0625 l 1,0,-1
-42.375 702.390625 m 1,37,-1
 154.609375 809.390625 l 1,38,-1
 157.03125 810.703125 l 1,39,-1
 159.421875 809.375 l 1,40,-1
 204.421875 784.359375 l 1,41,-1
 208.140625 782.296875 l 1,42,-1
 206.703125 778.296875 l 1,43,-1
 146.21875 610.484375 l 1,44,-1
 466.25 450.46875 l 1,45,-1
 468.921875 449.125 l 1,46,-1
 469 446.125 l 1,47,-1
 476.890625 136.921875 l 1,48,-1
 585.8125 109.453125 l 1,49,-1
 622.78125 139.21875 l 1,50,-1
 586.171875 552.859375 l 1,51,-1
 564.0625 576.75 l 1,52,-1
 507.171875 570.21875 l 1,53,-1
 476.875 542.6875 l 1,54,-1
 473 468.734375 l 1,55,-1
 472.609375 461.3125 l 1,56,-1
 465.875 464.46875 l 1,57,-1
 160.875 607.46875 l 1,58,-1
 156.75 609.40625 l 1,59,-1
 158.296875 613.6875 l 1,60,-1
 232.296875 818.703125 l 1,61,-1
 233.578125 822.234375 l 1,62,-1
 237.328125 822 l 1,63,-1
 872.3125 781 l 1,64,-1
 874.265625 780.875 l 1,65,-1
 875.625 779.453125 l 1,66,-1
 1029.625 617.4375 l 1,67,-1
 1031 615.984375 l 1,68,-1
 1031 613.984375 l 1,69,-1
 1028.984375 52.984375 l 1,70,-1
 1028.984375 50.921875 l 1,71,-1
 1027.53125 49.46875 l 1,72,-1
 972.53125 -5.53125 l 1,73,-1
 970.984375 -7.078125 l 1,74,-1
 968.8125 -7 l 1,75,-1
 72.8125 26 l 1,76,-1
 70.953125 26.0625 l 1,77,-1
 69.59375 27.328125 l 1,78,-1
 -33.40625 123.34375 l 1,79,-1
 -34.953125 124.796875 l 1,80,-1
 -35 126.921875 l 1,81,-1
 -45 697.921875 l 1,82,-1
 -45.046875 700.953125 l 1,83,-1
 -42.375 702.390625 l 1,37,-1
73 30.984375 m 1,84,-1
 76.53125 34.53125 l 1,85,-1
 147.25 -36.1875 l 1,86,-1
 143.703125 -39.71875 l 1,87,-1
 140.171875 -43.25 l 1,88,-1
 69.46875 27.453125 l 1,89,-1
 73 30.984375 l 1,84,-1
968.984375 -2 m 1,90,-1
 972.53125 1.53125 l 1,91,-1
 1043.234375 -69.171875 l 1,92,-1
 1039.703125 -72.71875 l 1,93,-1
 1036.171875 -76.25 l 1,94,-1
 965.453125 -5.53125 l 1,95,-1
 968.984375 -2 l 1,90,-1
1023.984375 53 m 1,96,-1
 1027.53125 56.53125 l 1,97,-1
 1098.234375 -14.171875 l 1,98,-1
 1094.703125 -17.71875 l 1,99,-1
 1091.171875 -21.25 l 1,100,-1
 1020.453125 49.46875 l 1,101,-1
 1023.984375 53 l 1,96,-1
163 611.984375 m 1,102,-1
 166.53125 615.53125 l 1,103,-1
 197.5 584.5625 l 1,104,-1
 193.96875 581.015625 l 1,105,-1
 190.4375 577.484375 l 1,106,-1
 159.46875 608.453125 l 1,107,-1
 163 611.984375 l 1,102,-1
468 469 m 1,108,-1
 471.546875 472.53125 l 1,109,-1
 542.25 401.828125 l 1,110,-1
 538.71875 398.28125 l 1,111,-1
 535.1875 394.75 l 1,112,-1
 464.46875 465.46875 l 1,113,-1
 468 469 l 1,108,-1
472 545 m 1,114,-1
 475.53125 548.53125 l 1,115,-1
 546.234375 477.828125 l 1,116,-1
 542.703125 474.296875 l 1,117,-1
 539.171875 470.75 l 1,118,-1
 468.453125 541.46875 l 1,119,-1
 472 545 l 1,114,-1
505 575 m 1,120,-1
 508.53125 578.53125 l 1,121,-1
 579.25 507.828125 l 1,122,-1
 575.703125 504.28125 l 1,123,-1
 572.171875 500.75 l 1,124,-1
 501.453125 571.46875 l 1,125,-1
 505 575 l 1,120,-1
202 780 m 1,126,-1
 205.53125 783.53125 l 1,127,-1
 221.4375 767.625 l 1,128,-1
 217.90625 764.09375 l 1,129,-1
 214.375 760.5625 l 1,130,-1
 198.46875 776.453125 l 1,131,-1
 202 780 l 1,126,-1
464 446 m 1,132,-1
 467.546875 449.53125 l 1,133,-1
 538.25 378.828125 l 1,134,-1
 539.65625 377.40625 l 1,135,-1
 539.71875 375.40625 l 1,136,-1
 546.34375 115.640625 l 1,137,-1
 541.34375 115.515625 l 1,138,-1
 536.34375 115.390625 l 1,139,-1
 529.765625 373.15625 l 1,140,-1
 460.46875 442.46875 l 1,141,-1
 464 446 l 1,132,-1
595.28125 506.53125 m 1,142,-1
 595.859375 501.5625 l 1,143,-1
 577.875 499.5 l 1,144,-1
 547.59375 471.96875 l 1,145,-1
 543.703125 398.03125 l 1,146,-1
 543.3125 390.609375 l 1,147,-1
 536.59375 393.765625 l 1,148,-1
 485.765625 417.59375 l 1,149,-1
 487.875 422.125 l 1,150,-1
 490 426.640625 l 1,151,-1
 534.109375 405.96875 l 1,152,-1
 537.71875 474.546875 l 1,153,-1
 537.8125 476.609375 l 1,154,-1
 539.34375 478 l 1,155,-1
 572.34375 507.984375 l 1,156,-1
 573.53125 509.078125 l 1,157,-1
 575.140625 509.25 l 1,158,-1
 594.71875 511.5 l 1,159,-1
 595.28125 506.53125 l 1,142,-1
872 776 m 1,160,-1
 875.53125 779.546875 l 1,161,-1
 946.28125 708.78125 l 1,162,-1
 1100.328125 546.734375 l 1,163,-1
 1101.71875 545.28125 l 1,164,-1
 1101.71875 543.265625 l 1,165,-1
 1099.703125 -17.734375 l 1,166,-1
 1099.6875 -19.78125 l 1,167,-1
 1098.234375 -21.25 l 1,168,-1
 1043.234375 -76.25 l 1,169,-1
 1041.6875 -77.78125 l 1,170,-1
 1039.515625 -77.703125 l 1,171,-1
 143.53125 -44.71875 l 1,172,-1
 141.65625 -44.640625 l 1,173,-1
 140.296875 -43.375 l 1,174,-1
 37.234375 52.6875 l 1,175,-1
 -33.53125 123.46875 l 1,176,-1
 -30 127 l 1,177,-1
 -26.46875 130.53125 l 1,178,-1
 44.1875 59.890625 l 1,179,-1
 145.75 -34.796875 l 1,180,-1
 1037.703125 -67.640625 l 1,181,-1
 1089.703125 -15.625 l 1,182,-1
 1091.703125 541.296875 l 1,183,-1
 939.125 701.796875 l 1,184,-1
 868.453125 772.46875 l 1,185,-1
 872 776 l 1,160,-1
EndSplineSet
Validated: 524293
EndChar

StartChar: P
Encoding: 80 80 15
Width: 1094
VWidth: 0
Flags: W
LayerCount: 2
Fore
SplineSet
-25 709.265625 m 1,0,-1
 -25 411.171875 l 1,1,-1
 25.125 387.515625 l 1,2,-1
 28.1875 386.078125 l 1,3,-1
 27.984375 382.6875 l 1,4,-1
 24.984375 333.6875 l 1,5,-1
 24.875 331.71875 l 1,6,-1
 23.4375 330.359375 l 1,7,-1
 6.921875 314.765625 l 1,8,-1
 -1 103.8125 l 1,9,-1
 -1.09375 101.578125 l 1,10,-1
 -2.796875 100.15625 l 1,11,-1
 -23.453125 82.953125 l 1,12,-1
 10.84375 27.890625 l 1,13,-1
 849.34375 -6.84375 l 1,14,-1
 870.1875 61.140625 l 1,15,-1
 628.734375 245.453125 l 1,16,-1
 453.65625 294.171875 l 1,17,-1
 450.53125 295.046875 l 1,18,-1
 450.0625 298.265625 l 1,19,-1
 446.0625 325.265625 l 1,20,-1
 444.9375 332.8125 l 1,21,-1
 452.296875 330.828125 l 1,22,-1
 638.296875 280.828125 l 1,23,-1
 639.140625 280.609375 l 1,24,-1
 639.859375 280.109375 l 1,25,-1
 769.203125 189.953125 l 1,26,-1
 1011.90625 335.375 l 1,27,-1
 1041.796875 418.3125 l 1,28,-1
 962.546875 763.09375 l 1,29,-1
 918.28125 796.046875 l 1,30,-1
 159.9375 815.890625 l 1,31,-1
 148.8125 768.828125 l 1,32,-1
 608.828125 555.984375 l 1,33,-1
 628.203125 622.40625 l 1,34,-1
 629.5625 627.0625 l 1,35,-1
 634.25 625.84375 l 1,36,-1
 700.25 608.84375 l 1,37,-1
 702.625 608.234375 l 1,38,-1
 703.59375 605.96875 l 1,39,-1
 753.59375 488.96875 l 1,40,-1
 754.25 487.4375 l 1,41,-1
 753.859375 485.828125 l 1,42,-1
 722.859375 356.828125 l 1,43,-1
 721.78125 352.3125 l 1,44,-1
 717.203125 353.0625 l 1,45,-1
 624.203125 368.0625 l 1,46,-1
 620.484375 368.65625 l 1,47,-1
 620.03125 372.390625 l 1,48,-1
 601.375 524.65625 l 1,49,-1
 120.875 751.46875 l 1,50,-1
 118.109375 752.78125 l 1,51,-1
 118 755.828125 l 1,52,-1
 116.1875 807.859375 l 1,53,-1
 51.46875 806.0625 l 1,54,-1
 -25 709.265625 l 1,0,-1
-33.921875 714.109375 m 1,55,-1
 45.078125 814.09375 l 1,56,-1
 46.53125 815.9375 l 1,57,-1
 48.859375 816 l 1,58,-1
 120.859375 818 l 1,59,-1
 125.828125 818.125 l 1,60,-1
 126 813.171875 l 1,61,-1
 127.890625 759.21875 l 1,62,-1
 608.140625 532.515625 l 1,63,-1
 610.625 531.34375 l 1,64,-1
 610.96875 528.609375 l 1,65,-1
 629.5 377.34375 l 1,66,-1
 714.21875 363.671875 l 1,67,-1
 743.75 486.5625 l 1,68,-1
 695.359375 599.78125 l 1,69,-1
 636.453125 614.953125 l 1,70,-1
 616.796875 547.59375 l 1,71,-1
 615.171875 542.03125 l 1,72,-1
 609.90625 544.46875 l 1,73,-1
 140.90625 761.46875 l 1,74,-1
 137.1875 763.1875 l 1,75,-1
 138.140625 767.15625 l 1,76,-1
 151.140625 822.140625 l 1,77,-1
 152.078125 826.09375 l 1,78,-1
 156.140625 826 l 1,79,-1
 920.125 806 l 1,80,-1
 921.71875 805.96875 l 1,81,-1
 922.984375 805.015625 l 1,82,-1
 969.984375 770.015625 l 1,83,-1
 971.46875 768.921875 l 1,84,-1
 971.875 767.125 l 1,85,-1
 1051.859375 419.125 l 1,86,-1
 1052.1875 417.6875 l 1,87,-1
 1051.703125 416.3125 l 1,88,-1
 1020.703125 330.3125 l 1,89,-1
 1020.09375 328.640625 l 1,90,-1
 1018.578125 327.71875 l 1,91,-1
 771.5625 179.71875 l 1,92,-1
 768.796875 178.046875 l 1,93,-1
 766.140625 179.90625 l 1,94,-1
 634.859375 271.40625 l 1,95,-1
 457.0625 319.1875 l 1,96,-1
 459.46875 302.9375 l 1,97,-1
 632.34375 254.828125 l 1,98,-1
 633.265625 254.5625 l 1,99,-1
 634.03125 253.984375 l 1,100,-1
 879.03125 66.96875 l 1,101,-1
 881.796875 64.859375 l 1,102,-1
 880.78125 61.53125 l 1,103,-1
 857.765625 -13.46875 l 1,104,-1
 856.640625 -17.15625 l 1,105,-1
 852.78125 -17 l 1,106,-1
 7.796875 18 l 1,107,-1
 5.15625 18.125 l 1,108,-1
 3.75 20.359375 l 1,109,-1
 -34.234375 81.359375 l 1,110,-1
 -36.546875 85.0625 l 1,111,-1
 -33.203125 87.84375 l 1,112,-1
 -10.90625 106.40625 l 1,113,-1
 -3 317.1875 l 1,114,-1
 -2.921875 319.21875 l 1,115,-1
 -1.4375 320.625 l 1,116,-1
 15.125 336.28125 l 1,117,-1
 17.796875 379.921875 l 1,118,-1
 -32.140625 403.484375 l 1,119,-1
 -35 404.828125 l 1,120,-1
 -35 408 l 1,121,-1
 -35 711 l 1,122,-1
 -35 712.75 l 1,123,-1
 -33.921875 714.109375 l 1,55,-1
-30 408 m 1,124,-1
 -26.46875 411.53125 l 1,125,-1
 24.921875 360.15625 l 1,126,-1
 21.375 356.609375 l 1,127,-1
 17.84375 353.078125 l 1,128,-1
 -33.546875 404.46875 l 1,129,-1
 -30 408 l 1,124,-1
853 -12 m 1,130,-1
 856.53125 -8.46875 l 1,131,-1
 927.234375 -79.171875 l 1,132,-1
 923.703125 -82.703125 l 1,133,-1
 920.171875 -86.25 l 1,134,-1
 849.453125 -15.53125 l 1,135,-1
 853 -12 l 1,130,-1
451 326 m 1,136,-1
 454.53125 329.53125 l 1,137,-1
 490.40625 293.65625 l 1,138,-1
 486.875 290.125 l 1,139,-1
 483.34375 286.59375 l 1,140,-1
 447.46875 322.46875 l 1,141,-1
 451 326 l 1,136,-1
769 184 m 1,142,-1
 772.53125 187.53125 l 1,143,-1
 843.25 116.828125 l 1,144,-1
 839.71875 113.296875 l 1,145,-1
 836.171875 109.75 l 1,146,-1
 765.46875 180.46875 l 1,147,-1
 769 184 l 1,142,-1
1016 332.015625 m 1,148,-1
 1019.53125 335.546875 l 1,149,-1
 1090.25 264.828125 l 1,150,-1
 1086.71875 261.296875 l 1,151,-1
 1083.171875 257.765625 l 1,152,-1
 1012.46875 328.46875 l 1,153,-1
 1016 332.015625 l 1,148,-1
1047 418 m 1,154,-1
 1050.53125 421.53125 l 1,155,-1
 1121.234375 350.828125 l 1,156,-1
 1117.703125 347.28125 l 1,157,-1
 1114.171875 343.75 l 1,158,-1
 1043.453125 414.46875 l 1,159,-1
 1047 418 l 1,154,-1
143 766 m 1,160,-1
 146.53125 769.546875 l 1,161,-1
 183.375 732.703125 l 1,162,-1
 179.84375 729.171875 l 1,163,-1
 176.3125 725.625 l 1,164,-1
 139.46875 762.46875 l 1,165,-1
 143 766 l 1,160,-1
612 549 m 1,166,-1
 615.53125 552.53125 l 1,167,-1
 686.25 481.828125 l 1,168,-1
 682.71875 478.296875 l 1,169,-1
 679.171875 474.75 l 1,170,-1
 608.46875 545.46875 l 1,171,-1
 612 549 l 1,166,-1
633 621 m 1,172,-1
 636.546875 624.546875 l 1,173,-1
 707.25 553.828125 l 1,174,-1
 703.71875 550.296875 l 1,175,-1
 700.1875 546.765625 l 1,176,-1
 629.46875 617.46875 l 1,177,-1
 633 621 l 1,172,-1
121 813 m 1,178,-1
 124.53125 816.53125 l 1,179,-1
 151.3125 789.75 l 1,180,-1
 147.78125 786.21875 l 1,181,-1
 144.25 782.6875 l 1,182,-1
 117.46875 809.46875 l 1,183,-1
 121 813 l 1,178,-1
606 528 m 1,184,-1
 609.53125 531.53125 l 1,185,-1
 680.25 460.828125 l 1,186,-1
 681.46875 459.609375 l 1,187,-1
 681.671875 457.890625 l 1,188,-1
 693.25 363.390625 l 1,189,-1
 688.296875 362.78125 l 1,190,-1
 683.328125 362.1875 l 1,191,-1
 671.953125 454.96875 l 1,192,-1
 602.46875 524.46875 l 1,193,-1
 606 528 l 1,184,-1
724.203125 545.015625 m 1,194,-1
 722.953125 540.171875 l 1,195,-1
 707.15625 544.25 l 1,196,-1
 687.515625 476.890625 l 1,197,-1
 685.890625 471.3125 l 1,198,-1
 680.609375 473.75 l 1,199,-1
 630.359375 497 l 1,200,-1
 632.453125 501.546875 l 1,201,-1
 634.5625 506.078125 l 1,202,-1
 679.53125 485.265625 l 1,203,-1
 698.90625 551.6875 l 1,204,-1
 700.265625 556.34375 l 1,205,-1
 701.359375 556.0625 l 1,206,-1
 725.453125 549.859375 l 1,207,-1
 724.203125 545.015625 l 1,194,-1
967 766 m 1,208,-1
 970.53125 769.546875 l 1,209,-1
 1041.25 698.828125 l 1,210,-1
 1042.265625 697.8125 l 1,211,-1
 1042.578125 696.421875 l 1,212,-1
 1122.578125 348.40625 l 1,213,-1
 1122.90625 346.96875 l 1,214,-1
 1122.40625 345.59375 l 1,215,-1
 1091.421875 259.609375 l 1,216,-1
 1090.8125 257.921875 l 1,217,-1
 1089.28125 257.015625 l 1,218,-1
 842.28125 109 l 1,219,-1
 839.5 107.34375 l 1,220,-1
 836.859375 109.1875 l 1,221,-1
 705.578125 200.6875 l 1,222,-1
 678.421875 207.984375 l 1,223,-1
 679.71875 212.8125 l 1,224,-1
 681.03125 217.640625 l 1,225,-1
 709.015625 210.125 l 1,226,-1
 709.859375 209.890625 l 1,227,-1
 710.578125 209.390625 l 1,228,-1
 839.921875 119.25 l 1,229,-1
 1082.609375 264.671875 l 1,230,-1
 1112.5 347.59375 l 1,231,-1
 1033.15625 692.78125 l 1,232,-1
 963.46875 762.46875 l 1,233,-1
 967 766 l 1,208,-1
876 63 m 1,234,-1
 879.53125 66.53125 l 1,235,-1
 950.234375 -4.171875 l 1,236,-1
 952.375 -6.296875 l 1,237,-1
 951.484375 -9.171875 l 1,238,-1
 928.484375 -84.171875 l 1,239,-1
 927.34375 -87.859375 l 1,240,-1
 923.5 -87.703125 l 1,241,-1
 78.5 -52.703125 l 1,242,-1
 76.546875 -52.625 l 1,243,-1
 75.171875 -51.25 l 1,244,-1
 4.46875 19.46875 l 1,245,-1
 8 23 l 1,246,-1
 11.53125 26.53125 l 1,247,-1
 80.859375 -42.796875 l 1,248,-1
 920.046875 -77.546875 l 1,249,-1
 941.046875 -9.125 l 1,250,-1
 872.453125 59.46875 l 1,251,-1
 876 63 l 1,234,-1
EndSplineSet
Validated: 524293
EndChar

StartChar: Q
Encoding: 81 81 16
Width: 1094
VWidth: 0
Flags: W
LayerCount: 2
Fore
SplineSet
120.609375 828.90625 m 1,0,-1
 -35 706.578125 l 1,1,-1
 -35 267.09375 l 1,2,-1
 65.328125 47.75 l 1,3,-1
 586.234375 7.078125 l 1,4,-1
 720.171875 59.65625 l 1,5,-1
 722.78125 60.671875 l 1,6,-1
 725.015625 58.984375 l 1,7,-1
 829.671875 -20 l 1,8,-1
 978.3125 -20 l 1,9,-1
 909.4375 134.96875 l 1,10,-1
 907.75 138.765625 l 1,11,-1
 911.171875 141.125 l 1,12,-1
 1002.34375 203.875 l 1,13,-1
 1049.796875 554.796875 l 1,14,-1
 905.109375 770.359375 l 1,15,-1
 732.15625 610.875 l 1,16,-1
 916.46875 242.25 l 1,17,-1
 917.84375 239.5 l 1,18,-1
 916.03125 237.046875 l 1,19,-1
 888.03125 199.03125 l 1,20,-1
 883.875 193.390625 l 1,21,-1
 879.890625 199.15625 l 1,22,-1
 776.1875 349.28125 l 1,23,-1
 627.328125 365.609375 l 1,24,-1
 596.46875 283.359375 l 1,25,-1
 673.421875 137.328125 l 1,26,-1
 675.65625 133.109375 l 1,27,-1
 671.53125 130.6875 l 1,28,-1
 654.53125 120.6875 l 1,29,-1
 650.5 118.3125 l 1,30,-1
 647.859375 122.1875 l 1,31,-1
 537.859375 284.1875 l 1,32,-1
 536.609375 286.03125 l 1,33,-1
 537.140625 288.1875 l 1,34,-1
 593.140625 515.203125 l 1,35,-1
 593.5 516.65625 l 1,36,-1
 594.609375 517.671875 l 1,37,-1
 856.5625 758.859375 l 1,38,-1
 838.140625 788.15625 l 1,39,-1
 120.609375 828.90625 l 1,0,-1
119.28125 838.984375 m 1,40,-1
 841.28125 797.984375 l 1,41,-1
 843.859375 797.84375 l 1,42,-1
 845.21875 795.65625 l 1,43,-1
 867.234375 760.65625 l 1,44,-1
 869.453125 757.140625 l 1,45,-1
 866.390625 754.3125 l 1,46,-1
 602.484375 511.34375 l 1,47,-1
 547.390625 287.96875 l 1,48,-1
 653.5 131.6875 l 1,49,-1
 662.34375 136.890625 l 1,50,-1
 586.578125 280.671875 l 1,51,-1
 585.53125 282.65625 l 1,52,-1
 586.3125 284.765625 l 1,53,-1
 619.328125 372.75 l 1,54,-1
 620.6875 376.390625 l 1,55,-1
 624.5625 375.96875 l 1,56,-1
 779.546875 358.96875 l 1,57,-1
 781.8125 358.734375 l 1,58,-1
 783.109375 356.84375 l 1,59,-1
 884.140625 210.609375 l 1,60,-1
 906.15625 240.515625 l 1,61,-1
 721.53125 609.765625 l 1,62,-1
 719.84375 613.125 l 1,63,-1
 722.609375 615.671875 l 1,64,-1
 902.609375 781.671875 l 1,65,-1
 906.90625 785.625 l 1,66,-1
 910.15625 780.78125 l 1,67,-1
 1059.15625 558.796875 l 1,68,-1
 1060.21875 557.21875 l 1,69,-1
 1059.953125 555.34375 l 1,70,-1
 1011.953125 200.34375 l 1,71,-1
 1011.65625 198.140625 l 1,72,-1
 1009.828125 196.890625 l 1,73,-1
 920.25 135.234375 l 1,74,-1
 990.578125 -22.96875 l 1,75,-1
 993.703125 -30 l 1,76,-1
 986 -30 l 1,77,-1
 828 -30 l 1,78,-1
 826.328125 -29.984375 l 1,79,-1
 824.984375 -28.984375 l 1,80,-1
 721.21875 49.328125 l 1,81,-1
 588.828125 -2.65625 l 1,82,-1
 587.75 -3.078125 l 1,83,-1
 586.609375 -2.984375 l 1,84,-1
 61.609375 38.015625 l 1,85,-1
 58.6875 38.25 l 1,86,-1
 57.453125 40.921875 l 1,87,-1
 -44.546875 263.921875 l 1,88,-1
 -45 264.921875 l 1,89,-1
 -45 266 l 1,90,-1
 -45 709 l 1,91,-1
 -45 711.4375 l 1,92,-1
 -43.09375 712.9375 l 1,93,-1
 115.90625 837.9375 l 1,94,-1
 117.40625 839.09375 l 1,95,-1
 119.28125 838.984375 l 1,40,-1
587 2 m 1,96,-1
 590.53125 5.53125 l 1,97,-1
 661.25 -65.171875 l 1,98,-1
 657.703125 -68.71875 l 1,99,-1
 654.171875 -72.25 l 1,100,-1
 583.46875 -1.53125 l 1,101,-1
 587 2 l 1,96,-1
722 55 m 1,102,-1
 725.53125 58.53125 l 1,103,-1
 796.25 -12.171875 l 1,104,-1
 792.71875 -15.71875 l 1,105,-1
 789.171875 -19.25 l 1,106,-1
 718.46875 51.46875 l 1,107,-1
 722 55 l 1,102,-1
828 -25 m 1,108,-1
 831.53125 -21.453125 l 1,109,-1
 902.25 -92.171875 l 1,110,-1
 898.71875 -95.703125 l 1,111,-1
 895.171875 -99.234375 l 1,112,-1
 824.46875 -28.53125 l 1,113,-1
 828 -25 l 1,108,-1
986 -25 m 1,114,-1
 989.546875 -21.46875 l 1,115,-1
 1060.25 -92.171875 l 1,116,-1
 1056.71875 -95.71875 l 1,117,-1
 1053.1875 -99.25 l 1,118,-1
 982.46875 -28.53125 l 1,119,-1
 986 -25 l 1,114,-1
914 137 m 1,120,-1
 917.53125 140.53125 l 1,121,-1
 988.25 69.828125 l 1,122,-1
 984.71875 66.296875 l 1,123,-1
 981.171875 62.75 l 1,124,-1
 910.46875 133.46875 l 1,125,-1
 914 137 l 1,120,-1
1007 201 m 1,126,-1
 1010.53125 204.546875 l 1,127,-1
 1081.25 133.828125 l 1,128,-1
 1077.703125 130.296875 l 1,129,-1
 1074.171875 126.765625 l 1,130,-1
 1003.46875 197.46875 l 1,131,-1
 1007 201 l 1,126,-1
542 287 m 1,132,-1
 545.53125 290.53125 l 1,133,-1
 616.25 219.828125 l 1,134,-1
 612.703125 216.28125 l 1,135,-1
 609.171875 212.75 l 1,136,-1
 538.46875 283.46875 l 1,137,-1
 542 287 l 1,132,-1
597.984375 514 m 1,138,-1
 601.53125 517.53125 l 1,139,-1
 672.234375 446.828125 l 1,140,-1
 668.703125 443.296875 l 1,141,-1
 665.171875 439.75 l 1,142,-1
 594.453125 510.46875 l 1,143,-1
 597.984375 514 l 1,138,-1
841 793 m 1,144,-1
 844.53125 796.53125 l 1,145,-1
 883.53125 757.53125 l 1,146,-1
 879.984375 754 l 1,147,-1
 876.453125 750.46875 l 1,148,-1
 837.453125 789.46875 l 1,149,-1
 841 793 l 1,144,-1
765.703125 532.59375 m 1,150,-1
 769.09375 528.921875 l 1,151,-1
 673.203125 440.625 l 1,152,-1
 655.015625 366.9375 l 1,153,-1
 650.15625 368.125 l 1,154,-1
 645.3125 369.328125 l 1,155,-1
 663.84375 444.484375 l 1,156,-1
 664.203125 445.953125 l 1,157,-1
 665.3125 446.96875 l 1,158,-1
 762.3125 536.28125 l 1,159,-1
 765.703125 532.59375 l 1,150,-1
607.671875 216.765625 m 1,160,-1
 612.140625 234.875 l 1,161,-1
 621.84375 232.484375 l 1,162,-1
 618.09375 217.25 l 1,163,-1
 672.359375 137.34375 l 1,164,-1
 664.078125 131.734375 l 1,165,-1
 607.3125 215.3125 l 1,166,-1
 607.671875 216.765625 l 1,160,-1
779 354 m 1,167,-1
 782.53125 357.546875 l 1,168,-1
 853.25 286.828125 l 1,169,-1
 853.828125 286.140625 l 1,170,-1
 899.40625 220.15625 l 1,171,-1
 895.28125 217.3125 l 1,172,-1
 891.171875 214.46875 l 1,173,-1
 845.859375 280.078125 l 1,174,-1
 775.46875 350.46875 l 1,175,-1
 779 354 l 1,167,-1
906 778 m 1,176,-1
 909.53125 781.53125 l 1,177,-1
 980.25 710.8125 l 1,178,-1
 980.859375 710.0625 l 1,179,-1
 1129.859375 488.078125 l 1,180,-1
 1130.921875 486.5 l 1,181,-1
 1130.671875 484.625 l 1,182,-1
 1082.65625 129.625 l 1,183,-1
 1082.359375 127.4375 l 1,184,-1
 1080.546875 126.171875 l 1,185,-1
 990.96875 64.53125 l 1,186,-1
 1061.28125 -93.6875 l 1,187,-1
 1064.40625 -100.71875 l 1,188,-1
 1056.71875 -100.71875 l 1,189,-1
 898.703125 -100.703125 l 1,190,-1
 897.03125 -100.703125 l 1,191,-1
 895.703125 -99.6875 l 1,192,-1
 791.9375 -21.390625 l 1,193,-1
 659.53125 -73.359375 l 1,194,-1
 658.46875 -73.78125 l 1,195,-1
 657.3125 -73.6875 l 1,196,-1
 132.328125 -32.6875 l 1,197,-1
 130.484375 -32.546875 l 1,198,-1
 129.1875 -31.25 l 1,199,-1
 58.46875 39.46875 l 1,200,-1
 62 43 l 1,201,-1
 65.546875 46.53125 l 1,202,-1
 134.9375 -22.875 l 1,203,-1
 656.953125 -63.640625 l 1,204,-1
 790.890625 -11.0625 l 1,205,-1
 793.484375 -10.03125 l 1,206,-1
 795.71875 -11.71875 l 1,207,-1
 900.390625 -90.703125 l 1,208,-1
 1049.015625 -90.71875 l 1,209,-1
 980.140625 64.265625 l 1,210,-1
 978.453125 68.0625 l 1,211,-1
 981.875 70.40625 l 1,212,-1
 1073.046875 133.15625 l 1,213,-1
 1120.5 484.09375 l 1,214,-1
 972.828125 704.09375 l 1,215,-1
 902.46875 774.453125 l 1,216,-1
 906 778 l 1,176,-1
EndSplineSet
Validated: 524293
EndChar

StartChar: R
Encoding: 82 82 17
Width: 1094
VWidth: 0
Flags: W
LayerCount: 2
Fore
SplineSet
-18.90625 757.25 m 1,0,-1
 -7.109375 529.28125 l 1,1,-1
 91.40625 437.65625 l 1,2,-1
 99.125 430.484375 l 1,3,-1
 88.6875 429.046875 l 1,4,-1
 59.6875 425.0625 l 1,5,-1
 57.359375 424.734375 l 1,6,-1
 55.625 426.3125 l 1,7,-1
 12.265625 465.8125 l 1,8,-1
 -4.28125 464.3125 l 1,9,-1
 -33.96875 374.328125 l 1,10,-1
 -18.09375 55.09375 l 1,11,-1
 18.203125 16.9375 l 1,12,-1
 407.859375 6.0625 l 1,13,-1
 435.96875 36.828125 l 1,14,-1
 334.546875 235.71875 l 1,15,-1
 332.046875 240.625 l 1,16,-1
 337.171875 242.640625 l 1,17,-1
 409.15625 271.078125 l 1,18,-1
 374.125 423.890625 l 1,19,-1
 373 428.765625 l 1,20,-1
 377.890625 429.875 l 1,21,-1
 478.03125 452.765625 l 1,22,-1
 472.125 478.90625 l 1,23,-1
 470.921875 484.1875 l 1,24,-1
 476.296875 484.953125 l 1,25,-1
 736.296875 521.953125 l 1,26,-1
 739.359375 522.390625 l 1,27,-1
 741.125 519.84375 l 1,28,-1
 788.109375 451.84375 l 1,29,-1
 792.265625 445.8125 l 1,30,-1
 785.140625 444.140625 l 1,31,-1
 751.140625 436.125 l 1,32,-1
 746.640625 435.0625 l 1,33,-1
 745.234375 439.46875 l 1,34,-1
 739.53125 457.390625 l 1,35,-1
 415.15625 405.90625 l 1,36,-1
 499.859375 60.1875 l 1,37,-1
 500.390625 57.984375 l 1,38,-1
 499.09375 56.125 l 1,39,-1
 478.34375 26.609375 l 1,40,-1
 990.703125 5.1875 l 1,41,-1
 1026.515625 256.96875 l 1,42,-1
 921.234375 303.875 l 1,43,-1
 743.421875 282.25 l 1,44,-1
 717.65625 254.59375 l 1,45,-1
 716.546875 253.40625 l 1,46,-1
 714.9375 253.09375 l 1,47,-1
 630.9375 237.078125 l 1,48,-1
 629.625 236.828125 l 1,49,-1
 628.359375 237.28125 l 1,50,-1
 559.359375 261.28125 l 1,51,-1
 556.65625 262.21875 l 1,52,-1
 556.09375 265.03125 l 1,53,-1
 553.109375 280.015625 l 1,54,-1
 552.078125 285.171875 l 1,55,-1
 557.28125 285.9375 l 1,56,-1
 1034.546875 356.25 l 1,57,-1
 999.359375 701.078125 l 1,58,-1
 565.359375 820 l 1,59,-1
 31.28125 815.015625 l 1,60,-1
 -18.90625 757.25 l 1,0,-1
-27.78125 762.28125 m 1,61,-1
 25.21875 823.28125 l 1,62,-1
 26.6875 824.984375 l 1,63,-1
 28.9375 825 l 1,64,-1
 565.953125 830 l 1,65,-1
 566.65625 830.015625 l 1,66,-1
 1005.3125 709.8125 l 1,67,-1
 1008.625 708.90625 l 1,68,-1
 1008.96875 705.5 l 1,69,-1
 1044.96875 352.515625 l 1,70,-1
 1045.453125 347.75 l 1,71,-1
 1040.734375 347.0625 l 1,72,-1
 563.9375 276.8125 l 1,73,-1
 565.34375 269.78125 l 1,74,-1
 630.375 247.15625 l 1,75,-1
 711.453125 262.609375 l 1,76,-1
 737.34375 290.40625 l 1,77,-1
 738.59375 291.734375 l 1,78,-1
 740.40625 291.953125 l 1,79,-1
 921.390625 313.96875 l 1,80,-1
 922.765625 314.140625 l 1,81,-1
 924.03125 313.578125 l 1,82,-1
 1034.03125 264.5625 l 1,83,-1
 1037.484375 263.03125 l 1,84,-1
 1036.953125 259.296875 l 1,85,-1
 999.953125 -0.703125 l 1,86,-1
 999.328125 -5.1875 l 1,87,-1
 994.796875 -5 l 1,88,-1
 468.796875 17 l 1,89,-1
 459.640625 17.390625 l 1,90,-1
 464.90625 24.875 l 1,91,-1
 489.59375 60.015625 l 1,92,-1
 404.15625 408.8125 l 1,93,-1
 402.859375 414.09375 l 1,94,-1
 408.21875 414.9375 l 1,95,-1
 742.203125 467.9375 l 1,96,-1
 746.453125 468.609375 l 1,97,-1
 747.75 464.515625 l 1,98,-1
 753.359375 446.921875 l 1,99,-1
 775.71875 452.1875 l 1,100,-1
 734.65625 511.625 l 1,101,-1
 483.0625 475.8125 l 1,102,-1
 488.875 450.109375 l 1,103,-1
 489.984375 445.234375 l 1,104,-1
 485.125 444.125 l 1,105,-1
 384.984375 421.25 l 1,106,-1
 419.875 269.125 l 1,107,-1
 420.828125 264.9375 l 1,108,-1
 416.828125 263.359375 l 1,109,-1
 345.953125 235.375 l 1,110,-1
 446.453125 38.28125 l 1,111,-1
 448.03125 35.1875 l 1,112,-1
 445.6875 32.640625 l 1,113,-1
 413.6875 -2.375 l 1,114,-1
 412.140625 -4.0625 l 1,115,-1
 409.859375 -4 l 1,116,-1
 15.859375 7 l 1,117,-1
 13.796875 7.0625 l 1,118,-1
 12.375 8.546875 l 1,119,-1
 -26.609375 49.5625 l 1,120,-1
 -27.890625 50.90625 l 1,121,-1
 -27.984375 52.75 l 1,122,-1
 -44 374.765625 l 1,123,-1
 -44.046875 375.6875 l 1,124,-1
 -12.765625 470.5625 l 1,125,-1
 -11.734375 473.6875 l 1,126,-1
 -8.46875 473.984375 l 1,127,-1
 13.5625 475.984375 l 1,128,-1
 15.75 476.171875 l 1,129,-1
 17.375 474.6875 l 1,130,-1
 60.640625 435.28125 l 1,131,-1
 76.875 437.515625 l 1,132,-1
 -15.40625 523.328125 l 1,133,-1
 -16.890625 524.71875 l 1,134,-1
 -17 526.734375 l 1,135,-1
 -29 758.75 l 1,136,-1
 -29.109375 760.75 l 1,137,-1
 -27.78125 762.28125 l 1,61,-1
410 1 m 1,138,-1
 413.53125 4.546875 l 1,139,-1
 484.25 -66.171875 l 1,140,-1
 480.71875 -69.703125 l 1,141,-1
 477.171875 -73.234375 l 1,142,-1
 406.46875 -2.53125 l 1,143,-1
 410 1 l 1,138,-1
442 36 m 1,144,-1
 445.53125 39.546875 l 1,145,-1
 516.25 -31.171875 l 1,146,-1
 512.703125 -34.703125 l 1,147,-1
 509.171875 -38.234375 l 1,148,-1
 438.46875 32.46875 l 1,149,-1
 442 36 l 1,144,-1
339 238 m 1,150,-1
 342.53125 241.53125 l 1,151,-1
 413.25 170.828125 l 1,152,-1
 409.71875 167.28125 l 1,153,-1
 406.171875 163.75 l 1,154,-1
 335.46875 234.46875 l 1,155,-1
 339 238 l 1,150,-1
415 268 m 1,156,-1
 418.53125 271.546875 l 1,157,-1
 456.671875 233.390625 l 1,158,-1
 453.140625 229.859375 l 1,159,-1
 449.609375 226.328125 l 1,160,-1
 411.453125 264.46875 l 1,161,-1
 415 268 l 1,156,-1
379 425 m 1,162,-1
 382.53125 428.546875 l 1,163,-1
 417.40625 393.65625 l 1,164,-1
 413.875 390.125 l 1,165,-1
 410.34375 386.59375 l 1,166,-1
 375.46875 421.46875 l 1,167,-1
 379 425 l 1,162,-1
484 449 m 1,168,-1
 487.53125 452.53125 l 1,169,-1
 510.921875 429.15625 l 1,170,-1
 507.390625 425.609375 l 1,171,-1
 503.859375 422.078125 l 1,172,-1
 480.46875 445.46875 l 1,173,-1
 484 449 l 1,168,-1
477 480 m 1,174,-1
 480.53125 483.53125 l 1,175,-1
 531.640625 432.4375 l 1,176,-1
 528.109375 428.90625 l 1,177,-1
 524.5625 425.359375 l 1,178,-1
 473.46875 476.46875 l 1,179,-1
 477 480 l 1,174,-1
750 440.984375 m 1,180,-1
 753.53125 444.53125 l 1,181,-1
 824.25 373.8125 l 1,182,-1
 820.703125 370.28125 l 1,183,-1
 817.171875 366.75 l 1,184,-1
 746.46875 437.453125 l 1,185,-1
 750 440.984375 l 1,180,-1
743 463 m 1,186,-1
 746.53125 466.53125 l 1,187,-1
 765.671875 447.390625 l 1,188,-1
 762.140625 443.859375 l 1,189,-1
 758.609375 440.3125 l 1,190,-1
 739.453125 459.46875 l 1,191,-1
 743 463 l 1,186,-1
995.015625 0 m 1,192,-1
 998.546875 3.53125 l 1,193,-1
 1069.25 -67.171875 l 1,194,-1
 1065.71875 -70.71875 l 1,195,-1
 1062.1875 -74.25 l 1,196,-1
 991.46875 -3.53125 l 1,197,-1
 995.015625 0 l 1,192,-1
558 281 m 1,198,-1
 561.546875 284.53125 l 1,199,-1
 582.9375 263.140625 l 1,200,-1
 579.40625 259.59375 l 1,201,-1
 575.875 256.0625 l 1,202,-1
 554.46875 277.46875 l 1,203,-1
 558 281 l 1,198,-1
1040 352 m 1,204,-1
 1043.53125 355.546875 l 1,205,-1
 1114.25 284.828125 l 1,206,-1
 1110.703125 281.296875 l 1,207,-1
 1107.171875 277.765625 l 1,208,-1
 1036.46875 348.46875 l 1,209,-1
 1040 352 l 1,204,-1
1004 705 m 1,210,-1
 1007.53125 708.53125 l 1,211,-1
 1078.234375 637.828125 l 1,212,-1
 1079.5 636.5625 l 1,213,-1
 1079.671875 634.796875 l 1,214,-1
 1115.6875 281.796875 l 1,215,-1
 1116.171875 277.046875 l 1,216,-1
 1111.4375 276.34375 l 1,217,-1
 1016.359375 262.34375 l 1,218,-1
 1015.625 267.28125 l 1,219,-1
 1014.90625 272.234375 l 1,220,-1
 1105.25 285.546875 l 1,221,-1
 1069.90625 632.015625 l 1,222,-1
 1000.453125 701.46875 l 1,223,-1
 1004 705 l 1,210,-1
1032 260 m 1,224,-1
 1035.53125 263.53125 l 1,225,-1
 1106.25 192.8125 l 1,226,-1
 1108.015625 191.046875 l 1,227,-1
 1107.65625 188.578125 l 1,228,-1
 1070.671875 -71.421875 l 1,229,-1
 1070.03125 -75.890625 l 1,230,-1
 1065.515625 -75.703125 l 1,231,-1
 539.5 -53.703125 l 1,232,-1
 537.546875 -53.625 l 1,233,-1
 536.171875 -52.25 l 1,234,-1
 465.46875 18.46875 l 1,235,-1
 469 22 l 1,236,-1
 472.53125 25.53125 l 1,237,-1
 541.875 -43.796875 l 1,238,-1
 1061.40625 -65.53125 l 1,239,-1
 1097.40625 187.515625 l 1,240,-1
 1028.46875 256.453125 l 1,241,-1
 1032 260 l 1,224,-1
463.28125 188.4375 m 1,242,-1
 465.125 183.796875 l 1,243,-1
 416.671875 164.65625 l 1,244,-1
 482.03125 36.46875 l 1,245,-1
 477.578125 34.203125 l 1,246,-1
 473.125 31.9375 l 1,247,-1
 405.265625 165.015625 l 1,248,-1
 402.765625 169.921875 l 1,249,-1
 407.875 171.9375 l 1,250,-1
 461.453125 193.09375 l 1,251,-1
 463.28125 188.4375 l 1,242,-1
499.1875 -8.1875 m 1,252,-1
 503.640625 -5.921875 l 1,253,-1
 517.15625 -32.4375 l 1,254,-1
 518.734375 -35.515625 l 1,255,-1
 516.65625 -37.796875 l 1,256,-1
 484.40625 -73.078125 l 1,257,-1
 482.859375 -74.765625 l 1,258,-1
 480.578125 -74.703125 l 1,259,-1
 86.5625 -63.703125 l 1,260,-1
 84.578125 -63.65625 l 1,261,-1
 83.171875 -62.25 l 1,262,-1
 12.46875 8.46875 l 1,263,-1
 16 12 l 1,264,-1
 19.53125 15.53125 l 1,265,-1
 88.84375 -53.765625 l 1,266,-1
 478.5625 -64.640625 l 1,267,-1
 506.671875 -33.890625 l 1,268,-1
 494.734375 -10.46875 l 1,269,-1
 499.1875 -8.1875 l 1,252,-1
83.359375 433.359375 m 1,270,-1
 79.953125 429.703125 l 1,271,-1
 55.234375 452.6875 l 1,272,-1
 -15.53125 523.453125 l 1,273,-1
 -12 527 l 1,274,-1
 -8.46875 530.53125 l 1,275,-1
 62.1875 459.875 l 1,276,-1
 86.765625 437.015625 l 1,277,-1
 83.359375 433.359375 l 1,270,-1
EndSplineSet
Validated: 524293
EndChar

StartChar: S
Encoding: 83 83 18
Width: 1094
VWidth: 0
Flags: W
LayerCount: 2
Fore
SplineSet
444.390625 286.65625 m 1,0,-1
 453.734375 278 l 1,1,-1
 440.984375 278 l 1,2,-1
 383.015625 278 l 1,3,-1
 381.1875 278 l 1,4,-1
 379.796875 279.15625 l 1,5,-1
 296.171875 349.015625 l 1,6,-1
 38.078125 350.984375 l 1,7,-1
 -46.375 264.59375 l 1,8,-1
 25.828125 16.78125 l 1,9,-1
 617.171875 -17.9375 l 1,10,-1
 1067.96875 164.53125 l 1,11,-1
 946.5625 390.84375 l 1,12,-1
 522.515625 523.21875 l 1,13,-1
 520.21875 523.9375 l 1,14,-1
 519.34375 526.1875 l 1,15,-1
 503.328125 567.1875 l 1,16,-1
 500.75 573.8125 l 1,17,-1
 507.859375 574 l 1,18,-1
 585.875 576 l 1,19,-1
 588.59375 576.0625 l 1,20,-1
 590.140625 573.8125 l 1,21,-1
 621.21875 528.15625 l 1,22,-1
 913.40625 423.875 l 1,23,-1
 1029 562.796875 l 1,24,-1
 1029 739.484375 l 1,25,-1
 946.8125 769.125 l 1,26,-1
 464.84375 832.96875 l 1,27,-1
 45.265625 804.203125 l 1,28,-1
 -40.265625 625.390625 l 1,29,-1
 115.6875 388 l 1,30,-1
 331.78125 388 l 1,31,-1
 470.71875 459.4375 l 1,32,-1
 472.71875 460.46875 l 1,33,-1
 474.8125 459.65625 l 1,34,-1
 829.8125 321.671875 l 1,35,-1
 833.78125 320.125 l 1,36,-1
 832.890625 315.953125 l 1,37,-1
 826.890625 287.953125 l 1,38,-1
 825.65625 282.203125 l 1,39,-1
 820.1875 284.34375 l 1,40,-1
 487.1875 414.546875 l 1,41,-1
 367.8125 357.65625 l 1,42,-1
 444.390625 286.65625 l 1,0,-1
428.25 288 m 1,43,-1
 355.59375 355.328125 l 1,44,-1
 350.203125 360.34375 l 1,45,-1
 356.84375 363.515625 l 1,46,-1
 484.84375 424.515625 l 1,47,-1
 486.796875 425.4375 l 1,48,-1
 488.8125 424.65625 l 1,49,-1
 818.34375 295.796875 l 1,50,-1
 822.21875 313.890625 l 1,51,-1
 473.28125 449.515625 l 1,52,-1
 335.28125 378.546875 l 1,53,-1
 334.203125 378 l 1,54,-1
 333 378 l 1,55,-1
 113 378 l 1,56,-1
 110.296875 378 l 1,57,-1
 108.8125 380.25 l 1,58,-1
 -50.171875 622.265625 l 1,59,-1
 -51.71875 624.625 l 1,60,-1
 -50.5 627.15625 l 1,61,-1
 37.5 811.15625 l 1,62,-1
 38.75 813.78125 l 1,63,-1
 41.65625 813.984375 l 1,64,-1
 464.65625 842.984375 l 1,65,-1
 465.15625 843.015625 l 1,66,-1
 948.65625 778.96875 l 1,67,-1
 949.6875 778.703125 l 1,68,-1
 1035.6875 747.703125 l 1,69,-1
 1039 746.515625 l 1,70,-1
 1039 743 l 1,71,-1
 1039 560.984375 l 1,72,-1
 1039 559.1875 l 1,73,-1
 1037.84375 557.796875 l 1,74,-1
 918.84375 414.796875 l 1,75,-1
 916.609375 412.109375 l 1,76,-1
 913.328125 413.296875 l 1,77,-1
 616.3125 519.296875 l 1,78,-1
 614.78125 519.84375 l 1,79,-1
 613.875 521.1875 l 1,80,-1
 583.40625 565.9375 l 1,81,-1
 515.234375 564.1875 l 1,82,-1
 527.78125 532.0625 l 1,83,-1
 951.484375 399.78125 l 1,84,-1
 953.4375 399.171875 l 1,85,-1
 954.40625 397.375 l 1,86,-1
 1079.40625 164.359375 l 1,87,-1
 1082.046875 159.453125 l 1,88,-1
 1076.875 157.359375 l 1,89,-1
 619.875 -27.625 l 1,90,-1
 618.828125 -28.046875 l 1,91,-1
 617.703125 -27.984375 l 1,92,-1
 21.71875 7 l 1,93,-1
 18.1875 7.21875 l 1,94,-1
 17.203125 10.59375 l 1,95,-1
 -56.796875 264.609375 l 1,96,-1
 -57.609375 267.40625 l 1,97,-1
 -55.5625 269.5 l 1,98,-1
 32.421875 359.5 l 1,99,-1
 33.90625 361.015625 l 1,100,-1
 36.03125 361 l 1,101,-1
 298.046875 359 l 1,102,-1
 299.828125 358.984375 l 1,103,-1
 301.203125 357.828125 l 1,104,-1
 384.828125 288 l 1,105,-1
 428.25 288 l 1,43,-1
618 -23 m 1,106,-1
 621.53125 -19.453125 l 1,107,-1
 692.25 -90.171875 l 1,108,-1
 688.71875 -93.703125 l 1,109,-1
 685.171875 -97.234375 l 1,110,-1
 614.46875 -26.53125 l 1,111,-1
 618 -23 l 1,106,-1
1075 162 m 1,112,-1
 1078.53125 165.53125 l 1,113,-1
 1149.25 94.8125 l 1,114,-1
 1145.71875 91.28125 l 1,115,-1
 1142.171875 87.75 l 1,116,-1
 1071.46875 158.453125 l 1,117,-1
 1075 162 l 1,112,-1
507.984375 569 m 1,118,-1
 511.53125 572.53125 l 1,119,-1
 563.875 520.1875 l 1,120,-1
 560.328125 516.65625 l 1,121,-1
 556.796875 513.125 l 1,122,-1
 504.453125 565.46875 l 1,123,-1
 507.984375 569 l 1,118,-1
618 524 m 1,124,-1
 621.53125 527.53125 l 1,125,-1
 658.390625 490.6875 l 1,126,-1
 654.84375 487.15625 l 1,127,-1
 651.3125 483.609375 l 1,128,-1
 614.46875 520.46875 l 1,129,-1
 618 524 l 1,124,-1
915 418 m 1,130,-1
 918.546875 421.53125 l 1,131,-1
 936.09375 403.984375 l 1,132,-1
 932.546875 400.453125 l 1,133,-1
 929.015625 396.921875 l 1,134,-1
 911.46875 414.46875 l 1,135,-1
 915 418 l 1,130,-1
1034 560.984375 m 1,136,-1
 1037.53125 564.53125 l 1,137,-1
 1108.25 493.8125 l 1,138,-1
 1104.71875 490.28125 l 1,139,-1
 1101.171875 486.75 l 1,140,-1
 1030.46875 557.453125 l 1,141,-1
 1034 560.984375 l 1,136,-1
113 383 m 1,142,-1
 116.53125 386.53125 l 1,143,-1
 144.328125 358.734375 l 1,144,-1
 140.78125 355.203125 l 1,145,-1
 137.25 351.671875 l 1,146,-1
 109.453125 379.46875 l 1,147,-1
 113 383 l 1,142,-1
333 383 m 1,148,-1
 336.53125 386.53125 l 1,149,-1
 407.234375 315.828125 l 1,150,-1
 403.703125 312.28125 l 1,151,-1
 400.171875 308.75 l 1,152,-1
 329.453125 379.46875 l 1,153,-1
 333 383 l 1,148,-1
473 454.984375 m 1,154,-1
 476.53125 458.53125 l 1,155,-1
 525 410.0625 l 1,156,-1
 521.46875 406.515625 l 1,157,-1
 517.9375 402.984375 l 1,158,-1
 469.46875 451.453125 l 1,159,-1
 473 454.984375 l 1,154,-1
435.421875 283 m 1,160,-1
 432.015625 279.328125 l 1,161,-1
 426.25 284.6875 l 1,162,-1
 355.46875 355.46875 l 1,163,-1
 359 359 l 1,164,-1
 362.53125 362.53125 l 1,165,-1
 433.1875 291.890625 l 1,166,-1
 438.8125 286.65625 l 1,167,-1
 435.421875 283 l 1,160,-1
405.03125 312.96875 m 1,168,-1
 407.3125 308.53125 l 1,169,-1
 405.984375 307.84375 l 1,170,-1
 404.90625 307.28125 l 1,171,-1
 403.703125 307.28125 l 1,172,-1
 347.9375 307.28125 l 1,173,-1
 347.9375 312.28125 l 1,174,-1
 347.9375 317.28125 l 1,175,176
 357.078125 317.28125 357.078125 317.28125 375.3125 317.34375 c 128,-1,177
 393.546875 317.421875 393.546875 317.421875 402.75 317.421875 c 1,178,-1
 405.03125 312.96875 l 1,168,-1
1034 743 m 1,179,-1
 1037.53125 746.53125 l 1,180,-1
 1108.25 675.828125 l 1,181,-1
 1109.71875 674.359375 l 1,182,-1
 1109.71875 672.296875 l 1,183,-1
 1109.71875 490.28125 l 1,184,-1
 1109.71875 488.46875 l 1,185,-1
 1108.546875 487.078125 l 1,186,-1
 995.015625 350.640625 l 1,187,-1
 991.171875 353.84375 l 1,188,-1
 987.328125 357.03125 l 1,189,-1
 1099.71875 492.09375 l 1,190,-1
 1099.71875 670.21875 l 1,191,-1
 1030.46875 739.46875 l 1,192,-1
 1034 743 l 1,179,-1
642.078125 499.90625 m 1,193,-1
 642.21875 494.921875 l 1,194,-1
 616.21875 494.25 l 1,195,-1
 616.09375 499.25 l 1,196,-1
 615.96875 504.25 l 1,197,-1
 641.953125 504.90625 l 1,198,-1
 642.078125 499.90625 l 1,193,-1
950 395 m 1,199,-1
 953.53125 398.546875 l 1,200,-1
 1024.25 327.828125 l 1,201,-1
 1024.765625 327.3125 l 1,202,-1
 1025.109375 326.65625 l 1,203,-1
 1150.125 93.640625 l 1,204,-1
 1152.75 88.734375 l 1,205,-1
 1147.59375 86.65625 l 1,206,-1
 690.59375 -98.34375 l 1,207,-1
 689.546875 -98.765625 l 1,208,-1
 688.421875 -98.6875 l 1,209,-1
 92.421875 -63.703125 l 1,210,-1
 90.53125 -63.59375 l 1,211,-1
 89.1875 -62.25 l 1,212,-1
 18.46875 8.46875 l 1,213,-1
 22.015625 12 l 1,214,-1
 25.546875 15.53125 l 1,215,-1
 94.90625 -53.828125 l 1,216,-1
 687.875 -88.640625 l 1,217,-1
 1138.671875 93.828125 l 1,218,-1
 1016.65625 321.28125 l 1,219,-1
 946.46875 391.46875 l 1,220,-1
 950 395 l 1,199,-1
EndSplineSet
Validated: 524293
EndChar

StartChar: T
Encoding: 84 84 19
Width: 1094
VWidth: 0
Flags: W
LayerCount: 2
Fore
SplineSet
-22.5 796.234375 m 1,0,-1
 -42.90625 612.546875 l 1,1,-1
 -1.40625 488.03125 l 1,2,-1
 99.53125 488.96875 l 1,3,-1
 161.3125 652.765625 l 1,4,-1
 163.140625 657.59375 l 1,5,-1
 167.890625 655.625 l 1,6,-1
 201.90625 641.609375 l 1,7,-1
 206.484375 639.734375 l 1,8,-1
 204.640625 635.125 l 1,9,-1
 127.640625 443.140625 l 1,10,-1
 126.921875 441.34375 l 1,11,-1
 125.1875 440.5 l 1,12,-1
 -0.46875 379.640625 l 1,13,-1
 -16.875 274.359375 l 1,14,-1
 56.1875 38.34375 l 1,15,-1
 110.40625 6.96875 l 1,16,-1
 524.78125 -4.984375 l 1,17,-1
 979.5625 45.53125 l 1,18,-1
 1005.6875 240.03125 l 1,19,-1
 892.59375 340.5625 l 1,20,-1
 717.0625 302.125 l 1,21,-1
 711.9375 301 l 1,22,-1
 711.0625 306.171875 l 1,23,-1
 645.0625 699.171875 l 1,24,-1
 644.171875 704.515625 l 1,25,-1
 649.5625 704.984375 l 1,26,-1
 672.5625 706.96875 l 1,27,-1
 677.046875 707.359375 l 1,28,-1
 677.90625 702.953125 l 1,29,-1
 749.953125 335.796875 l 1,30,-1
 1052.53125 391.078125 l 1,31,-1
 1010.484375 788.296875 l 1,32,-1
 475.96875 824 l 1,33,-1
 -22.5 796.234375 l 1,0,-1
-27.28125 805.984375 m 1,34,-1
 475.71875 834 l 1,35,-1
 476.34375 834 l 1,36,-1
 1015.34375 797.984375 l 1,37,-1
 1019.53125 797.703125 l 1,38,-1
 1019.984375 793.53125 l 1,39,-1
 1062.96875 387.53125 l 1,40,-1
 1063.453125 382.90625 l 1,41,-1
 1058.890625 382.078125 l 1,42,-1
 746.890625 325.078125 l 1,43,-1
 742.046875 324.1875 l 1,44,-1
 741.09375 329.03125 l 1,45,-1
 668.953125 696.625 l 1,46,-1
 655.828125 695.484375 l 1,47,-1
 720.0625 313.015625 l 1,48,-1
 892.9375 350.875 l 1,49,-1
 895.421875 351.421875 l 1,50,-1
 897.328125 349.734375 l 1,51,-1
 1014.3125 245.734375 l 1,52,-1
 1016.3125 243.96875 l 1,53,-1
 1015.953125 241.328125 l 1,54,-1
 988.953125 40.328125 l 1,55,-1
 988.4375 36.46875 l 1,56,-1
 984.546875 36.03125 l 1,57,-1
 525.546875 -14.96875 l 1,58,-1
 524.84375 -15 l 1,59,-1
 108.84375 -3 l 1,60,-1
 107.578125 -2.96875 l 1,61,-1
 106.484375 -2.328125 l 1,62,-1
 49.484375 30.671875 l 1,63,-1
 47.796875 31.65625 l 1,64,-1
 47.21875 33.53125 l 1,65,-1
 -26.78125 272.515625 l 1,66,-1
 -27.109375 273.625 l 1,67,-1
 -26.9375 274.765625 l 1,68,-1
 -9.9375 383.765625 l 1,69,-1
 -9.546875 386.359375 l 1,70,-1
 -7.1875 387.5 l 1,71,-1
 119.078125 448.65625 l 1,72,-1
 193.515625 634.25 l 1,73,-1
 168.859375 644.421875 l 1,74,-1
 107.6875 482.234375 l 1,75,-1
 106.46875 479.03125 l 1,76,-1
 103.046875 479 l 1,77,-1
 -4.953125 478 l 1,78,-1
 -8.59375 477.96875 l 1,79,-1
 -9.734375 481.421875 l 1,80,-1
 -52.734375 610.421875 l 1,81,-1
 -53.09375 611.46875 l 1,82,-1
 -52.96875 612.546875 l 1,83,-1
 -31.96875 801.546875 l 1,84,-1
 -31.5 805.75 l 1,85,-1
 -27.28125 805.984375 l 1,34,-1
-5 483 m 1,86,-1
 -1.453125 486.53125 l 1,87,-1
 65.90625 419.171875 l 1,88,-1
 62.375 415.625 l 1,89,-1
 58.84375 412.09375 l 1,90,-1
 -8.53125 479.46875 l 1,91,-1
 -5 483 l 1,86,-1
103 484 m 1,92,-1
 106.546875 487.53125 l 1,93,-1
 131.984375 462.09375 l 1,94,-1
 128.4375 458.5625 l 1,95,-1
 124.90625 455.03125 l 1,96,-1
 99.46875 480.46875 l 1,97,-1
 103 484 l 1,92,-1
166 651 m 1,98,-1
 169.53125 654.53125 l 1,99,-1
 197.8125 626.25 l 1,100,-1
 194.28125 622.71875 l 1,101,-1
 190.734375 619.1875 l 1,102,-1
 162.453125 647.46875 l 1,103,-1
 166 651 l 1,98,-1
109 2 m 1,104,-1
 112.53125 5.53125 l 1,105,-1
 183.234375 -65.171875 l 1,106,-1
 179.703125 -68.71875 l 1,107,-1
 176.171875 -72.25 l 1,108,-1
 105.453125 -1.53125 l 1,109,-1
 109 2 l 1,104,-1
525 -10 m 1,110,-1
 528.53125 -6.46875 l 1,111,-1
 599.234375 -77.171875 l 1,112,-1
 595.703125 -80.703125 l 1,113,-1
 592.171875 -84.25 l 1,114,-1
 521.453125 -13.53125 l 1,115,-1
 525 -10 l 1,110,-1
650 700 m 1,116,-1
 653.53125 703.53125 l 1,117,-1
 682.640625 674.4375 l 1,118,-1
 679.09375 670.890625 l 1,119,-1
 675.5625 667.359375 l 1,120,-1
 646.46875 696.46875 l 1,121,-1
 650 700 l 1,116,-1
746 330 m 1,122,-1
 749.53125 333.53125 l 1,123,-1
 763 320.0625 l 1,124,-1
 759.46875 316.53125 l 1,125,-1
 755.9375 312.984375 l 1,126,-1
 742.46875 326.46875 l 1,127,-1
 746 330 l 1,122,-1
1058 387 m 1,128,-1
 1061.53125 390.53125 l 1,129,-1
 1132.25 319.828125 l 1,130,-1
 1128.703125 316.28125 l 1,131,-1
 1125.171875 312.75 l 1,132,-1
 1054.46875 383.46875 l 1,133,-1
 1058 387 l 1,128,-1
1015 793 m 1,134,-1
 1018.546875 796.53125 l 1,135,-1
 1089.25 725.828125 l 1,136,-1
 1090.5 724.578125 l 1,137,-1
 1090.6875 722.8125 l 1,138,-1
 1133.6875 316.8125 l 1,139,-1
 1134.171875 312.203125 l 1,140,-1
 1129.609375 311.375 l 1,141,-1
 962.640625 280.859375 l 1,142,-1
 961.734375 285.78125 l 1,143,-1
 960.84375 290.703125 l 1,144,-1
 1123.25 320.375 l 1,145,-1
 1080.9375 720 l 1,146,-1
 1011.46875 789.46875 l 1,147,-1
 1015 793 l 1,134,-1
1011 242 m 1,148,-1
 1014.53125 245.53125 l 1,149,-1
 1085.25 174.828125 l 1,150,-1
 1087 173.078125 l 1,151,-1
 1086.65625 170.625 l 1,152,-1
 1059.65625 -30.375 l 1,153,-1
 1059.140625 -34.25 l 1,154,-1
 1055.25 -34.671875 l 1,155,-1
 596.25 -85.671875 l 1,156,-1
 595.5625 -85.703125 l 1,157,-1
 179.5625 -73.703125 l 1,158,-1
 178.296875 -73.671875 l 1,159,-1
 177.203125 -73.03125 l 1,160,-1
 120.203125 -40.03125 l 1,161,-1
 119.171875 -39.25 l 1,162,-1
 48.453125 31.46875 l 1,163,-1
 52 35 l 1,164,-1
 55.53125 38.53125 l 1,165,-1
 125.78125 -31.703125 l 1,166,-1
 181.109375 -63.75 l 1,167,-1
 595.5 -75.703125 l 1,168,-1
 1050.265625 -25.171875 l 1,169,-1
 1076.421875 169.5 l 1,170,-1
 1007.46875 238.46875 l 1,171,-1
 1011 242 l 1,148,-1
EndSplineSet
Validated: 524293
EndChar

StartChar: U
Encoding: 85 85 20
Width: 1094
VWidth: 0
Flags: W
LayerCount: 2
Fore
SplineSet
6.203125 802.046875 m 1,0,-1
 -37.921875 708.046875 l 1,1,-1
 4.8125 52 l 1,2,-1
 116.734375 -12.90625 l 1,3,-1
 155.453125 72.078125 l 1,4,-1
 157.109375 75.703125 l 1,5,-1
 161.015625 74.90625 l 1,6,-1
 499.4375 5.015625 l 1,7,-1
 926.71875 16.90625 l 1,8,-1
 1039.015625 267.109375 l 1,9,-1
 1043.96875 697.6875 l 1,10,-1
 928.21875 793.984375 l 1,11,-1
 611.21875 790.03125 l 1,12,-1
 550.890625 724.921875 l 1,13,-1
 529.1875 306.609375 l 1,14,-1
 595.5 285.765625 l 1,15,-1
 599.15625 284.625 l 1,16,-1
 599 280.796875 l 1,17,-1
 597 230.796875 l 1,18,-1
 596.90625 228.3125 l 1,19,-1
 594.859375 226.890625 l 1,20,-1
 545.859375 192.90625 l 1,21,-1
 544.21875 191.765625 l 1,22,-1
 542.25 192.0625 l 1,23,-1
 411.25 212.046875 l 1,24,-1
 406.484375 212.78125 l 1,25,-1
 407.03125 217.5625 l 1,26,-1
 411.03125 252.5625 l 1,27,-1
 411.3125 255 l 1,28,-1
 413.40625 256.265625 l 1,29,-1
 462.078125 285.859375 l 1,30,-1
 475.984375 759.40625 l 1,31,-1
 467.28125 791.578125 l 1,32,-1
 156.515625 759.015625 l 1,33,-1
 154 758.765625 l 1,34,-1
 152.296875 760.625 l 1,35,-1
 112.8125 803.953125 l 1,36,-1
 6.203125 802.046875 l 1,0,-1
2.90625 812 m 1,37,-1
 114.90625 814 l 1,38,-1
 117.171875 814.03125 l 1,39,-1
 118.6875 812.359375 l 1,40,-1
 157.984375 769.234375 l 1,41,-1
 470.484375 801.96875 l 1,42,-1
 474.71875 802.40625 l 1,43,-1
 475.828125 798.296875 l 1,44,-1
 485.828125 761.296875 l 1,45,-1
 486.015625 760.59375 l 1,46,-1
 472 282.84375 l 1,47,-1
 471.921875 280.140625 l 1,48,-1
 469.59375 278.71875 l 1,49,-1
 420.6875 249 l 1,50,-1
 417.515625 221.203125 l 1,51,-1
 541.78125 202.25 l 1,52,-1
 587.109375 233.6875 l 1,53,-1
 588.859375 277.375 l 1,54,-1
 522.5 298.234375 l 1,55,-1
 518.8125 299.40625 l 1,56,-1
 519 303.265625 l 1,57,-1
 541 727.25 l 1,58,-1
 541.09375 729.0625 l 1,59,-1
 542.328125 730.390625 l 1,60,-1
 605.34375 798.390625 l 1,61,-1
 606.796875 799.96875 l 1,62,-1
 608.9375 800 l 1,63,-1
 929.9375 804 l 1,64,-1
 931.78125 804.03125 l 1,65,-1
 933.203125 802.859375 l 1,66,-1
 1052.203125 703.84375 l 1,67,-1
 1054.03125 702.328125 l 1,68,-1
 1054 699.9375 l 1,69,-1
 1049 265.953125 l 1,70,-1
 1048.984375 264.90625 l 1,71,-1
 1048.5625 263.953125 l 1,72,-1
 934.5625 9.953125 l 1,73,-1
 933.28125 7.09375 l 1,74,-1
 930.140625 7 l 1,75,-1
 499.140625 -5 l 1,76,-1
 497.984375 -4.890625 l 1,77,-1
 162.90625 64.296875 l 1,78,-1
 123.546875 -22.078125 l 1,79,-1
 121.25 -27.09375 l 1,80,-1
 116.484375 -24.328125 l 1,81,-1
 -2.515625 44.6875 l 1,82,-1
 -4.8125 46.03125 l 1,83,-1
 -4.984375 48.6875 l 1,84,-1
 -47.984375 708.6875 l 1,85,-1
 -48.078125 709.96875 l 1,86,-1
 -47.53125 711.125 l 1,87,-1
 -1.53125 809.125 l 1,88,-1
 -0.203125 811.9375 l 1,89,-1
 2.90625 812 l 1,37,-1
119 -20 m 1,90,-1
 122.53125 -16.46875 l 1,91,-1
 193.234375 -87.171875 l 1,92,-1
 189.703125 -90.703125 l 1,93,-1
 186.171875 -94.25 l 1,94,-1
 115.453125 -23.53125 l 1,95,-1
 119 -20 l 1,90,-1
160 70 m 1,96,-1
 163.546875 73.53125 l 1,97,-1
 234.25 2.828125 l 1,98,-1
 230.71875 -0.703125 l 1,99,-1
 227.1875 -4.25 l 1,100,-1
 156.46875 66.46875 l 1,101,-1
 160 70 l 1,96,-1
499 0 m 1,102,-1
 502.53125 3.53125 l 1,103,-1
 573.25 -67.171875 l 1,104,-1
 569.703125 -70.71875 l 1,105,-1
 566.171875 -74.25 l 1,106,-1
 495.46875 -3.53125 l 1,107,-1
 499 0 l 1,102,-1
930 12 m 1,108,-1
 933.53125 15.53125 l 1,109,-1
 1004.25 -55.171875 l 1,110,-1
 1000.71875 -58.71875 l 1,111,-1
 997.171875 -62.25 l 1,112,-1
 926.46875 8.46875 l 1,113,-1
 930 12 l 1,108,-1
1044 266 m 1,114,-1
 1047.53125 269.546875 l 1,115,-1
 1118.25 198.828125 l 1,116,-1
 1114.703125 195.296875 l 1,117,-1
 1111.171875 191.765625 l 1,118,-1
 1040.46875 262.46875 l 1,119,-1
 1044 266 l 1,114,-1
524 303 m 1,120,-1
 527.53125 306.546875 l 1,121,-1
 595.6875 238.390625 l 1,122,-1
 592.15625 234.84375 l 1,123,-1
 588.625 231.3125 l 1,124,-1
 520.46875 299.46875 l 1,125,-1
 524 303 l 1,120,-1
416 252 m 1,126,-1
 419.53125 255.53125 l 1,127,-1
 461.5625 213.5 l 1,128,-1
 458.03125 209.96875 l 1,129,-1
 454.484375 206.4375 l 1,130,-1
 412.46875 248.453125 l 1,131,-1
 416 252 l 1,126,-1
467 283 m 1,132,-1
 470.53125 286.53125 l 1,133,-1
 541.25 215.828125 l 1,134,-1
 537.71875 212.28125 l 1,135,-1
 534.171875 208.75 l 1,136,-1
 463.46875 279.46875 l 1,137,-1
 467 283 l 1,132,-1
481 760 m 1,138,-1
 484.53125 763.53125 l 1,139,-1
 547.953125 700.109375 l 1,140,-1
 544.421875 696.578125 l 1,141,-1
 540.875 693.046875 l 1,142,-1
 477.46875 756.46875 l 1,143,-1
 481 760 l 1,138,-1
471 797 m 1,144,-1
 474.53125 800.53125 l 1,145,-1
 545.25 729.828125 l 1,146,-1
 546.1875 728.875 l 1,147,-1
 546.53125 727.59375 l 1,148,-1
 550.109375 714.390625 l 1,149,-1
 545.28125 713.09375 l 1,150,-1
 540.453125 711.78125 l 1,151,-1
 537.234375 723.6875 l 1,152,-1
 467.46875 793.46875 l 1,153,-1
 471 797 l 1,144,-1
539.90625 287.09375 m 1,154,-1
 544.90625 286.953125 l 1,155,-1
 542.703125 212.140625 l 1,156,-1
 542.625 209.421875 l 1,157,-1
 540.3125 208.015625 l 1,158,-1
 521.28125 196.4375 l 1,159,-1
 518.671875 200.71875 l 1,160,-1
 516.078125 204.984375 l 1,161,-1
 532.796875 215.15625 l 1,162,-1
 534.90625 287.25 l 1,163,-1
 539.90625 287.09375 l 1,154,-1
1049 700 m 1,164,-1
 1052.53125 703.53125 l 1,165,-1
 1123.25 632.828125 l 1,166,-1
 1124.734375 631.34375 l 1,167,-1
 1124.71875 629.234375 l 1,168,-1
 1119.703125 195.234375 l 1,169,-1
 1119.703125 194.203125 l 1,170,-1
 1119.265625 193.25 l 1,171,-1
 1005.265625 -60.765625 l 1,172,-1
 1003.984375 -63.625 l 1,173,-1
 1000.84375 -63.703125 l 1,174,-1
 569.84375 -75.703125 l 1,175,-1
 568.703125 -75.609375 l 1,176,-1
 233.609375 -6.40625 l 1,177,-1
 194.25 -92.78125 l 1,178,-1
 191.96875 -97.796875 l 1,179,-1
 187.1875 -95.03125 l 1,180,-1
 68.203125 -26.03125 l 1,181,-1
 67.640625 -25.703125 l 1,182,-1
 67.171875 -25.234375 l 1,183,-1
 -3.53125 45.46875 l 1,184,-1
 -0 49.015625 l 1,185,-1
 3.53125 52.546875 l 1,186,-1
 73.78125 -17.703125 l 1,187,-1
 187.4375 -83.609375 l 1,188,-1
 226.171875 1.359375 l 1,189,-1
 227.8125 5 l 1,190,-1
 231.71875 4.1875 l 1,191,-1
 570.15625 -65.703125 l 1,192,-1
 997.4375 -53.796875 l 1,193,-1
 1109.71875 196.390625 l 1,194,-1
 1114.6875 627.25 l 1,195,-1
 1045.46875 696.46875 l 1,196,-1
 1049 700 l 1,164,-1
EndSplineSet
Validated: 524293
EndChar

StartChar: V
Encoding: 86 86 21
Width: 1094
VWidth: 0
Flags: W
LayerCount: 2
Fore
SplineSet
85.796875 798.5 m 1,0,-1
 -21.9375 662.34375 l 1,1,-1
 -5.125 247.046875 l 1,2,-1
 495.5 -24.125 l 1,3,-1
 512.96875 -25.875 l 1,4,-1
 992.390625 236.171875 l 1,5,-1
 1048.890625 642.609375 l 1,6,-1
 1003.25 796.046875 l 1,7,-1
 657.796875 799.96875 l 1,8,-1
 543.578125 384.4375 l 1,9,-1
 577.578125 349.484375 l 1,10,-1
 579.71875 347.296875 l 1,11,-1
 578.734375 344.390625 l 1,12,-1
 513.734375 152.40625 l 1,13,-1
 512.578125 149 l 1,14,-1
 509 149 l 1,15,-1
 462 149 l 1,16,-1
 459.4375 149 l 1,17,-1
 457.9375 151.09375 l 1,18,-1
 434.9375 183.078125 l 1,19,-1
 433.515625 185.0625 l 1,20,-1
 434.203125 187.421875 l 1,21,-1
 534.71875 525.75 l 1,22,-1
 441.390625 759.5625 l 1,23,-1
 148.09375 811.90625 l 1,24,-1
 85.796875 798.5 l 1,0,-1
81.9375 807.890625 m 1,25,-1
 146.9375 821.890625 l 1,26,-1
 147.90625 822.09375 l 1,27,-1
 148.875 821.921875 l 1,28,-1
 445.875 768.921875 l 1,29,-1
 448.609375 768.4375 l 1,30,-1
 449.640625 765.84375 l 1,31,-1
 544.65625 527.859375 l 1,32,-1
 545.296875 526.234375 l 1,33,-1
 544.796875 524.578125 l 1,34,-1
 444.5 186.921875 l 1,35,-1
 464.5625 159 l 1,36,-1
 505.40625 159 l 1,37,-1
 568.28125 344.703125 l 1,38,-1
 534.40625 379.515625 l 1,39,-1
 532.421875 381.578125 l 1,40,-1
 533.171875 384.328125 l 1,41,-1
 649.171875 806.328125 l 1,42,-1
 650.203125 810.046875 l 1,43,-1
 654.046875 810 l 1,44,-1
 1007.046875 806 l 1,45,-1
 1010.734375 805.96875 l 1,46,-1
 1011.796875 802.4375 l 1,47,-1
 1058.796875 644.421875 l 1,48,-1
 1059.09375 643.375 l 1,49,-1
 1058.953125 642.296875 l 1,50,-1
 1001.953125 232.296875 l 1,51,-1
 1001.609375 229.8125 l 1,52,-1
 999.390625 228.609375 l 1,53,-1
 516.40625 -35.390625 l 1,54,-1
 515.046875 -36.125 l 1,55,-1
 513.5 -35.984375 l 1,56,-1
 493.5 -33.96875 l 1,57,-1
 492.5 -33.859375 l 1,58,-1
 491.625 -33.390625 l 1,59,-1
 -12.375 239.609375 l 1,60,-1
 -14.875 240.96875 l 1,61,-1
 -15 243.8125 l 1,62,-1
 -32 663.796875 l 1,63,-1
 -32.078125 665.640625 l 1,64,-1
 -30.921875 667.09375 l 1,65,-1
 79.078125 806.109375 l 1,66,-1
 80.1875 807.515625 l 1,67,-1
 81.9375 807.890625 l 1,25,-1
494 -28.984375 m 1,68,-1
 497.53125 -25.453125 l 1,69,-1
 568.25 -96.171875 l 1,70,-1
 564.71875 -99.703125 l 1,71,-1
 561.171875 -103.234375 l 1,72,-1
 490.46875 -32.53125 l 1,73,-1
 494 -28.984375 l 1,68,-1
514 -31 m 1,74,-1
 517.53125 -27.46875 l 1,75,-1
 588.25 -98.171875 l 1,76,-1
 584.71875 -101.71875 l 1,77,-1
 581.171875 -105.25 l 1,78,-1
 510.46875 -34.53125 l 1,79,-1
 514 -31 l 1,74,-1
997 232.984375 m 1,80,-1
 1000.53125 236.53125 l 1,81,-1
 1071.25 165.8125 l 1,82,-1
 1067.703125 162.28125 l 1,83,-1
 1064.171875 158.75 l 1,84,-1
 993.46875 229.453125 l 1,85,-1
 997 232.984375 l 1,80,-1
1054 643 m 1,86,-1
 1057.53125 646.53125 l 1,87,-1
 1128.25 575.8125 l 1,88,-1
 1124.703125 572.28125 l 1,89,-1
 1121.171875 568.75 l 1,90,-1
 1050.46875 639.453125 l 1,91,-1
 1054 643 l 1,86,-1
439 185.984375 m 1,92,-1
 442.53125 189.53125 l 1,93,-1
 474.53125 157.546875 l 1,94,-1
 470.984375 154 l 1,95,-1
 467.453125 150.46875 l 1,96,-1
 435.46875 182.453125 l 1,97,-1
 439 185.984375 l 1,92,-1
540.015625 526 m 1,98,-1
 543.546875 529.53125 l 1,99,-1
 572.796875 500.28125 l 1,100,-1
 569.265625 496.75 l 1,101,-1
 565.71875 493.203125 l 1,102,-1
 536.46875 522.46875 l 1,103,-1
 540.015625 526 l 1,98,-1
445 764 m 1,104,-1
 448.53125 767.53125 l 1,105,-1
 519.25 696.8125 l 1,106,-1
 519.96875 696.09375 l 1,107,-1
 520.359375 695.140625 l 1,108,-1
 584.0625 535.546875 l 1,109,-1
 579.421875 533.703125 l 1,110,-1
 574.78125 531.84375 l 1,111,-1
 511.453125 690.46875 l 1,112,-1
 441.46875 760.453125 l 1,113,-1
 445 764 l 1,104,-1
1007 801.015625 m 1,114,-1
 1010.53125 804.546875 l 1,115,-1
 1081.25 733.828125 l 1,116,-1
 1082.140625 732.9375 l 1,117,-1
 1082.5 731.71875 l 1,118,-1
 1129.5 573.703125 l 1,119,-1
 1129.8125 572.671875 l 1,120,-1
 1129.65625 571.59375 l 1,121,-1
 1072.65625 161.59375 l 1,122,-1
 1072.3125 159.09375 l 1,123,-1
 1070.109375 157.890625 l 1,124,-1
 587.109375 -106.09375 l 1,125,-1
 585.75 -106.84375 l 1,126,-1
 584.21875 -106.6875 l 1,127,-1
 564.21875 -104.671875 l 1,128,-1
 563.21875 -104.578125 l 1,129,-1
 562.328125 -104.09375 l 1,130,-1
 58.328125 168.90625 l 1,131,-1
 57.6875 169.25 l 1,132,-1
 57.171875 169.765625 l 1,133,-1
 -13.53125 240.46875 l 1,134,-1
 -10 244 l 1,135,-1
 -6.46875 247.546875 l 1,136,-1
 63.734375 177.34375 l 1,137,-1
 566.21875 -94.828125 l 1,138,-1
 583.671875 -96.578125 l 1,139,-1
 1063.109375 165.46875 l 1,140,-1
 1119.609375 571.890625 l 1,141,-1
 1073.28125 727.65625 l 1,142,-1
 1003.46875 797.46875 l 1,143,-1
 1007 801.015625 l 1,114,-1
EndSplineSet
Validated: 524293
EndChar

StartChar: W
Encoding: 87 87 22
Width: 1094
VWidth: 0
Flags: W
LayerCount: 2
Fore
SplineSet
-19.9375 593.875 m 1,0,-1
 -18 524.4375 l 1,1,-1
 53.453125 43.078125 l 1,2,-1
 298.953125 -14.375 l 1,3,-1
 459 199.984375 l 1,4,-1
 463.859375 206.5 l 1,5,-1
 467.46875 199.21875 l 1,6,-1
 573.84375 -14.484375 l 1,7,-1
 1019.453125 57.328125 l 1,8,-1
 1074.875 542.140625 l 1,9,-1
 932.046875 840.609375 l 1,10,-1
 630.453125 804.5 l 1,11,-1
 594.09375 530.421875 l 1,12,-1
 671.78125 275.46875 l 1,13,-1
 672.6875 272.5 l 1,14,-1
 670.4375 270.375 l 1,15,-1
 651.4375 252.359375 l 1,16,-1
 646.609375 247.796875 l 1,17,-1
 643.5625 253.703125 l 1,18,-1
 536.703125 460.5 l 1,19,-1
 473.078125 471.390625 l 1,20,-1
 353.625 184.078125 l 1,21,-1
 352.34375 180.984375 l 1,22,-1
 349 180.984375 l 1,23,-1
 323 181 l 1,24,-1
 315.875 181 l 1,25,-1
 318.296875 187.703125 l 1,26,-1
 445.296875 538.6875 l 1,27,-1
 446.359375 541.625 l 1,28,-1
 449.46875 541.96875 l 1,29,-1
 539.15625 551.515625 l 1,30,-1
 548.796875 809.859375 l 1,31,-1
 201.03125 800.046875 l 1,32,-1
 -19.9375 593.875 l 1,0,-1
-28.40625 599.640625 m 1,33,-1
 195.59375 808.65625 l 1,34,-1
 196.96875 809.9375 l 1,35,-1
 198.859375 810 l 1,36,-1
 553.859375 820 l 1,37,-1
 559.1875 820.15625 l 1,38,-1
 559 814.8125 l 1,39,-1
 549 546.8125 l 1,40,-1
 548.828125 542.484375 l 1,41,-1
 544.53125 542.03125 l 1,42,-1
 453.640625 532.34375 l 1,43,-1
 330.125 191 l 1,44,-1
 345.671875 191 l 1,45,-1
 465.375 478.921875 l 1,46,-1
 466.90625 482.59375 l 1,47,-1
 470.84375 481.921875 l 1,48,-1
 540.84375 469.921875 l 1,49,-1
 543.296875 469.5 l 1,50,-1
 544.4375 467.296875 l 1,51,-1
 649.390625 264.203125 l 1,52,-1
 661.3125 275.5 l 1,53,-1
 584.21875 528.546875 l 1,54,-1
 583.90625 529.578125 l 1,55,-1
 584.046875 530.65625 l 1,56,-1
 621.046875 809.671875 l 1,57,-1
 621.546875 813.515625 l 1,58,-1
 625.40625 813.96875 l 1,59,-1
 934.40625 850.96875 l 1,60,-1
 937.96875 851.390625 l 1,61,-1
 939.515625 848.15625 l 1,62,-1
 1084.515625 545.15625 l 1,63,-1
 1085.140625 543.859375 l 1,64,-1
 1084.96875 542.4375 l 1,65,-1
 1028.953125 52.4375 l 1,66,-1
 1028.53125 48.671875 l 1,67,-1
 1024.78125 48.0625 l 1,68,-1
 571.796875 -24.9375 l 1,69,-1
 568.15625 -25.53125 l 1,70,-1
 566.53125 -22.234375 l 1,71,-1
 462.140625 187.5 l 1,72,-1
 305.015625 -22.984375 l 1,73,-1
 303.0625 -25.609375 l 1,74,-1
 299.875 -24.859375 l 1,75,-1
 47.859375 34.125 l 1,76,-1
 44.546875 34.890625 l 1,77,-1
 44.0625 38.25 l 1,78,-1
 -27.9375 523.265625 l 1,79,-1
 -27.984375 523.859375 l 1,80,-1
 -30 595.84375 l 1,81,-1
 -30.0625 598.109375 l 1,82,-1
 -28.40625 599.640625 l 1,33,-1
301 -20 m 1,83,-1
 304.546875 -16.46875 l 1,84,-1
 375.25 -87.171875 l 1,85,-1
 371.71875 -90.703125 l 1,86,-1
 368.1875 -94.25 l 1,87,-1
 297.46875 -23.53125 l 1,88,-1
 301 -20 l 1,83,-1
1023.984375 53 m 1,89,-1
 1027.53125 56.53125 l 1,90,-1
 1098.234375 -14.171875 l 1,91,-1
 1094.703125 -17.71875 l 1,92,-1
 1091.171875 -21.25 l 1,93,-1
 1020.453125 49.46875 l 1,94,-1
 1023.984375 53 l 1,89,-1
1080 543 m 1,95,-1
 1083.546875 546.53125 l 1,96,-1
 1154.25 475.828125 l 1,97,-1
 1150.71875 472.296875 l 1,98,-1
 1147.1875 468.75 l 1,99,-1
 1076.46875 539.46875 l 1,100,-1
 1080 543 l 1,95,-1
450 537 m 1,101,-1
 453.53125 540.53125 l 1,102,-1
 521.796875 472.265625 l 1,103,-1
 518.265625 468.71875 l 1,104,-1
 514.734375 465.1875 l 1,105,-1
 446.46875 533.453125 l 1,106,-1
 450 537 l 1,101,-1
544 547 m 1,107,-1
 547.53125 550.53125 l 1,108,-1
 604.796875 493.265625 l 1,109,-1
 601.265625 489.734375 l 1,110,-1
 597.734375 486.203125 l 1,111,-1
 540.46875 543.46875 l 1,112,-1
 544 547 l 1,107,-1
554 815 m 1,113,-1
 557.53125 818.546875 l 1,114,-1
 621.8125 754.265625 l 1,115,-1
 618.265625 750.734375 l 1,116,-1
 614.734375 747.203125 l 1,117,-1
 550.46875 811.46875 l 1,118,-1
 554 815 l 1,113,-1
605.65625 475.328125 m 1,119,-1
 606.1875 470.359375 l 1,120,-1
 528.515625 462.09375 l 1,121,-1
 528 467.0625 l 1,122,-1
 527.46875 472.03125 l 1,123,-1
 605.125 480.296875 l 1,124,-1
 605.65625 475.328125 l 1,119,-1
540 465 m 1,125,-1
 543.53125 468.53125 l 1,126,-1
 614.25 397.828125 l 1,127,-1
 614.796875 397.28125 l 1,128,-1
 615.15625 396.578125 l 1,129,-1
 663.015625 303.953125 l 1,130,-1
 658.578125 301.65625 l 1,131,-1
 654.125 299.359375 l 1,132,-1
 606.625 391.296875 l 1,133,-1
 536.46875 461.46875 l 1,134,-1
 540 465 l 1,125,-1
935 846 m 1,135,-1
 938.546875 849.53125 l 1,136,-1
 1009.25 778.828125 l 1,137,-1
 1009.859375 778.21875 l 1,138,-1
 1010.21875 777.4375 l 1,139,-1
 1155.21875 474.453125 l 1,140,-1
 1155.84375 473.15625 l 1,141,-1
 1155.6875 471.71875 l 1,142,-1
 1099.671875 -18.28125 l 1,143,-1
 1099.234375 -22.046875 l 1,144,-1
 1095.5 -22.640625 l 1,145,-1
 642.5 -95.65625 l 1,146,-1
 639.984375 -96.0625 l 1,147,-1
 638.171875 -94.25 l 1,148,-1
 567.46875 -23.546875 l 1,149,-1
 571 -20.015625 l 1,150,-1
 574.53125 -16.46875 l 1,151,-1
 643.4375 -85.375 l 1,152,-1
 1090.15625 -13.375 l 1,153,-1
 1145.59375 471.4375 l 1,154,-1
 1001.578125 772.359375 l 1,155,-1
 931.46875 842.46875 l 1,156,-1
 935 846 l 1,135,-1
512.40625 97.734375 m 1,157,-1
 516.40625 94.75 l 1,158,-1
 376.140625 -93.140625 l 1,159,-1
 373.765625 -96.328125 l 1,160,-1
 370.578125 -95.578125 l 1,161,-1
 118.578125 -36.59375 l 1,162,-1
 117.1875 -36.265625 l 1,163,-1
 116.171875 -35.25 l 1,164,-1
 45.46875 35.453125 l 1,165,-1
 49 38.984375 l 1,166,-1
 52.53125 42.53125 l 1,167,-1
 122.234375 -27.171875 l 1,168,-1
 369.671875 -85.09375 l 1,169,-1
 508.390625 100.734375 l 1,170,-1
 512.40625 97.734375 l 1,157,-1
EndSplineSet
Validated: 524293
EndChar

StartChar: X
Encoding: 88 88 23
Width: 1094
VWidth: 0
Flags: W
LayerCount: 2
Fore
SplineSet
426.703125 677.71875 m 1,0,-1
 525.359375 441.90625 l 1,1,-1
 550.359375 441.25 l 1,2,-1
 514.875 493.1875 l 1,3,-1
 514.296875 494.296875 l 1,4,-1
 432.296875 721.3125 l 1,5,-1
 430.953125 725.046875 l 1,6,-1
 434.296875 727.203125 l 1,7,-1
 606.296875 838.203125 l 1,8,-1
 607.828125 839.1875 l 1,9,-1
 609.640625 838.953125 l 1,10,-1
 930.640625 797.953125 l 1,11,-1
 932.5625 797.71875 l 1,12,-1
 933.8125 796.234375 l 1,13,-1
 1060.8125 646.21875 l 1,14,-1
 1062.0625 644.75 l 1,15,-1
 1062 642.8125 l 1,16,-1
 1053 380.828125 l 1,17,-1
 1052.84375 376.609375 l 1,18,-1
 1048.671875 376.046875 l 1,19,-1
 664.25 323.796875 l 1,20,-1
 668.75 306.4375 l 1,21,-1
 947.453125 336.96875 l 1,22,-1
 949.890625 337.234375 l 1,23,-1
 951.59375 335.46875 l 1,24,-1
 1042.59375 241.46875 l 1,25,-1
 1043.921875 240.09375 l 1,26,-1
 1043.984375 238.15625 l 1,27,-1
 1051 23.15625 l 1,28,-1
 1051.109375 19.546875 l 1,29,-1
 1047.71875 18.296875 l 1,30,-1
 952.71875 -16.6875 l 1,31,-1
 951.984375 -16.96875 l 1,32,-1
 646.203125 -30 l 1,33,-1
 642.53125 -30.15625 l 1,34,-1
 641.28125 -26.6875 l 1,35,-1
 515.375 325.265625 l 1,36,-1
 495.375 326.796875 l 1,37,-1
 454.96875 272.359375 l 1,38,-1
 528.75 244.671875 l 1,39,-1
 531.03125 243.828125 l 1,40,-1
 531.765625 241.5 l 1,41,-1
 597.765625 32.5 l 1,42,-1
 598.421875 30.421875 l 1,43,-1
 597.34375 28.53125 l 1,44,-1
 568.359375 -22.46875 l 1,45,-1
 566.796875 -25.21875 l 1,46,-1
 563.640625 -24.984375 l 1,47,-1
 99.640625 9.015625 l 1,48,-1
 97.28125 9.1875 l 1,49,-1
 95.921875 11.109375 l 1,50,-1
 -9.078125 159.109375 l 1,51,-1
 -10.28125 160.796875 l 1,52,-1
 -9.9375 162.828125 l 1,53,-1
 14.0625 307.8125 l 1,54,-1
 14.625 311.15625 l 1,55,-1
 17.921875 311.875 l 1,56,-1
 386.59375 393.15625 l 1,57,-1
 389.5 411.296875 l 1,58,-1
 361.203125 426.734375 l 1,59,-1
 115 376.09375 l 1,60,-1
 112.234375 375.53125 l 1,61,-1
 110.3125 377.625 l 1,62,-1
 1.3125 496.625 l 1,63,-1
 0.203125 497.84375 l 1,64,-1
 0.03125 499.484375 l 1,65,-1
 -24.96875 736.484375 l 1,66,-1
 -25.140625 738.03125 l 1,67,-1
 -24.375 739.40625 l 1,68,-1
 19.609375 819.40625 l 1,69,-1
 20.78125 821.53125 l 1,70,-1
 23.1875 821.9375 l 1,71,-1
 260.1875 860.9375 l 1,72,-1
 261.4375 861.15625 l 1,73,-1
 262.640625 860.734375 l 1,74,-1
 380.640625 819.71875 l 1,75,-1
 383.03125 818.890625 l 1,76,-1
 383.78125 816.46875 l 1,77,-1
 426.703125 677.71875 l 1,0,-1
27.203125 812.453125 m 1,78,-1
 -14.859375 735.96875 l 1,79,-1
 9.8125 502.15625 l 1,80,-1
 115.765625 386.46875 l 1,81,-1
 360.984375 436.890625 l 1,82,-1
 362.78125 437.265625 l 1,83,-1
 364.390625 436.390625 l 1,84,-1
 397.390625 418.390625 l 1,85,-1
 400.5 416.703125 l 1,86,-1
 399.9375 413.203125 l 1,87,-1
 395.9375 388.21875 l 1,88,-1
 395.390625 384.859375 l 1,89,-1
 392.078125 384.125 l 1,90,-1
 23.390625 302.84375 l 1,91,-1
 0.265625 163.21875 l 1,92,-1
 102.71875 18.8125 l 1,93,-1
 561.21875 -14.78125 l 1,94,-1
 587.578125 31.578125 l 1,95,-1
 522.953125 236.171875 l 1,96,-1
 445.25 265.328125 l 1,97,-1
 439.03125 267.65625 l 1,98,-1
 442.984375 272.984375 l 1,99,-1
 488.984375 334.96875 l 1,100,-1
 490.625 337.1875 l 1,101,-1
 493.375 336.984375 l 1,102,-1
 519.375 334.984375 l 1,103,-1
 522.609375 334.734375 l 1,104,-1
 523.703125 331.6875 l 1,105,-1
 649.46875 -19.84375 l 1,106,-1
 950 -7.03125 l 1,107,-1
 1040.890625 26.4375 l 1,108,-1
 1034.0625 235.90625 l 1,109,-1
 946.109375 326.765625 l 1,110,-1
 665.546875 296.03125 l 1,111,-1
 661.25 295.5625 l 1,112,-1
 660.15625 299.734375 l 1,113,-1
 653.15625 326.75 l 1,114,-1
 651.75 332.1875 l 1,115,-1
 657.328125 332.953125 l 1,116,-1
 1043.140625 385.390625 l 1,117,-1
 1051.9375 641.234375 l 1,118,-1
 927.4375 788.28125 l 1,119,-1
 610.1875 828.8125 l 1,120,-1
 443.0625 720.96875 l 1,121,-1
 523.5 498.296875 l 1,122,-1
 564.140625 438.8125 l 1,123,-1
 569.65625 430.75 l 1,124,-1
 559.875 431 l 1,125,-1
 521.875 432 l 1,126,-1
 518.640625 432.078125 l 1,127,-1
 517.390625 435.0625 l 1,128,-1
 417.390625 674.078125 l 1,129,-1
 417.21875 674.53125 l 1,130,-1
 374.96875 811.109375 l 1,131,-1
 260.5625 850.875 l 1,132,-1
 27.203125 812.453125 l 1,78,-1
114 381 m 1,133,-1
 117.53125 384.53125 l 1,134,-1
 161.015625 341.0625 l 1,135,-1
 157.46875 337.53125 l 1,136,-1
 153.9375 333.984375 l 1,137,-1
 110.46875 377.46875 l 1,138,-1
 114 381 l 1,133,-1
362 432 m 1,139,-1
 365.53125 435.53125 l 1,140,-1
 396.46875 404.59375 l 1,141,-1
 392.921875 401.0625 l 1,142,-1
 389.390625 397.53125 l 1,143,-1
 358.453125 428.46875 l 1,144,-1
 362 432 l 1,139,-1
564 -20 m 1,145,-1
 567.546875 -16.46875 l 1,146,-1
 638.25 -87.171875 l 1,147,-1
 634.71875 -90.703125 l 1,148,-1
 631.1875 -94.25 l 1,149,-1
 560.46875 -23.53125 l 1,150,-1
 564 -20 l 1,145,-1
593 31 m 1,151,-1
 596.53125 34.53125 l 1,152,-1
 647.859375 -16.78125 l 1,153,-1
 644.328125 -20.328125 l 1,154,-1
 640.78125 -23.859375 l 1,155,-1
 589.46875 27.46875 l 1,156,-1
 593 31 l 1,151,-1
527 240 m 1,157,-1
 530.53125 243.53125 l 1,158,-1
 568.203125 205.859375 l 1,159,-1
 564.671875 202.3125 l 1,160,-1
 561.140625 198.78125 l 1,161,-1
 523.453125 236.46875 l 1,162,-1
 527 240 l 1,157,-1
493 332 m 1,163,-1
 496.53125 335.53125 l 1,164,-1
 535.890625 296.171875 l 1,165,-1
 532.359375 292.625 l 1,166,-1
 528.828125 289.09375 l 1,167,-1
 489.46875 328.46875 l 1,168,-1
 493 332 l 1,163,-1
951 -12 m 1,169,-1
 954.53125 -8.46875 l 1,170,-1
 1025.234375 -79.171875 l 1,171,-1
 1021.703125 -82.703125 l 1,172,-1
 1018.171875 -86.25 l 1,173,-1
 947.453125 -15.53125 l 1,174,-1
 951 -12 l 1,169,-1
658 328 m 1,175,-1
 661.53125 331.53125 l 1,176,-1
 686.5625 306.5 l 1,177,-1
 683.03125 302.96875 l 1,178,-1
 679.484375 299.4375 l 1,179,-1
 654.46875 324.46875 l 1,180,-1
 658 328 l 1,175,-1
1048 381 m 1,181,-1
 1051.53125 384.53125 l 1,182,-1
 1122.25 313.828125 l 1,183,-1
 1118.703125 310.28125 l 1,184,-1
 1115.171875 306.75 l 1,185,-1
 1044.46875 377.46875 l 1,186,-1
 1048 381 l 1,181,-1
1057 643 m 1,187,-1
 1060.53125 646.53125 l 1,188,-1
 1131.25 575.8125 l 1,189,-1
 1127.71875 572.28125 l 1,190,-1
 1124.171875 568.75 l 1,191,-1
 1053.46875 639.453125 l 1,192,-1
 1057 643 l 1,187,-1
422 676 m 1,193,-1
 425.53125 679.546875 l 1,194,-1
 475.609375 629.46875 l 1,195,-1
 472.0625 625.9375 l 1,196,-1
 468.53125 622.40625 l 1,197,-1
 418.46875 672.46875 l 1,198,-1
 422 676 l 1,193,-1
379 815 m 1,199,-1
 382.53125 818.53125 l 1,200,-1
 453.25 747.8125 l 1,201,-1
 454.125 746.9375 l 1,202,-1
 454.484375 745.765625 l 1,203,-1
 457.859375 734.859375 l 1,204,-1
 453.078125 733.375 l 1,205,-1
 448.3125 731.90625 l 1,206,-1
 445.296875 741.625 l 1,207,-1
 375.46875 811.453125 l 1,208,-1
 379 815 l 1,199,-1
930 793 m 1,209,-1
 933.53125 796.53125 l 1,210,-1
 1004.25 725.828125 l 1,211,-1
 1004.53125 725.515625 l 1,212,-1
 1131.53125 575.515625 l 1,213,-1
 1132.78125 574.03125 l 1,214,-1
 1132.71875 572.109375 l 1,215,-1
 1123.703125 310.109375 l 1,216,-1
 1123.5625 305.90625 l 1,217,-1
 1119.375 305.328125 l 1,218,-1
 987.09375 287.359375 l 1,219,-1
 986.421875 292.3125 l 1,220,-1
 985.75 297.265625 l 1,221,-1
 1113.859375 314.671875 l 1,222,-1
 1122.65625 570.53125 l 1,223,-1
 997.03125 718.90625 l 1,224,-1
 926.46875 789.46875 l 1,225,-1
 930 793 l 1,209,-1
1046 23 m 1,226,-1
 1049.53125 26.53125 l 1,227,-1
 1120.25 -44.1875 l 1,228,-1
 1125.765625 -49.703125 l 1,229,-1
 1118.4375 -52.40625 l 1,230,-1
 1023.4375 -87.40625 l 1,231,-1
 1022.703125 -87.671875 l 1,232,-1
 716.921875 -100.703125 l 1,233,-1
 714.71875 -100.796875 l 1,234,-1
 713.171875 -99.25 l 1,235,-1
 642.46875 -28.53125 l 1,236,-1
 646 -25 l 1,237,-1
 649.53125 -21.46875 l 1,238,-1
 718.6875 -90.625 l 1,239,-1
 1020.703125 -77.75 l 1,240,-1
 1107.640625 -45.734375 l 1,241,-1
 1042.46875 19.453125 l 1,242,-1
 1046 23 l 1,226,-1
550.125 242.984375 m 1,243,-1
 554.140625 240 l 1,244,-1
 543.015625 225.015625 l 1,245,-1
 539 227.984375 l 1,246,-1
 534.984375 230.96875 l 1,247,-1
 546.109375 245.953125 l 1,248,-1
 550.125 242.984375 l 1,243,-1
662.625 -41.625 m 1,249,-1
 666.96875 -44.09375 l 1,250,-1
 639.0625 -93.1875 l 1,251,-1
 637.5 -95.921875 l 1,252,-1
 634.34375 -95.6875 l 1,253,-1
 170.34375 -61.703125 l 1,254,-1
 168.484375 -61.5625 l 1,255,-1
 167.171875 -60.25 l 1,256,-1
 96.46875 10.46875 l 1,257,-1
 100 14 l 1,258,-1
 103.53125 17.53125 l 1,259,-1
 172.9375 -51.859375 l 1,260,-1
 631.9375 -85.484375 l 1,261,-1
 658.265625 -39.15625 l 1,262,-1
 662.625 -41.625 l 1,249,-1
EndSplineSet
Validated: 524293
EndChar

StartChar: Y
Encoding: 89 89 24
Width: 1094
VWidth: 0
Flags: W
LayerCount: 2
Fore
SplineSet
95.265625 234.40625 m 1,0,-1
 30.328125 406.234375 l 1,1,-1
 26.546875 416.234375 l 1,2,-1
 33.5 413.8125 l 1,3,-1
 -31.40625 534.640625 l 1,4,-1
 -32 535.75 l 1,5,-1
 -32 537 l 1,6,-1
 -32 793 l 1,7,-1
 -32 794.40625 l 1,8,-1
 -31.265625 795.609375 l 1,9,-1
 -9.265625 831.609375 l 1,10,-1
 -7.71875 834.140625 l 1,11,-1
 -4.765625 834 l 1,12,-1
 364.234375 815.984375 l 1,13,-1
 367.90625 815.8125 l 1,14,-1
 368.828125 812.25 l 1,15,-1
 466.828125 433.171875 l 1,16,-1
 505.484375 434.8125 l 1,17,-1
 545.03125 809.515625 l 1,18,-1
 545.453125 813.5625 l 1,19,-1
 549.5 813.96875 l 1,20,-1
 894.5 848.96875 l 1,21,-1
 896.046875 849.125 l 1,22,-1
 897.421875 848.375 l 1,23,-1
 1038.421875 770.375 l 1,24,-1
 1042.109375 768.328125 l 1,25,-1
 1040.71875 764.34375 l 1,26,-1
 920.71875 421.34375 l 1,27,-1
 920.203125 419.859375 l 1,28,-1
 957.59375 430.796875 l 1,29,-1
 959.453125 431.34375 l 1,30,-1
 961.1875 430.5 l 1,31,-1
 994.171875 414.5 l 1,32,-1
 998.375 412.46875 l 1,33,-1
 996.625 408.125 l 1,34,-1
 863.640625 78.125 l 1,35,-1
 862.65625 75.671875 l 1,36,-1
 860.0625 75.109375 l 1,37,-1
 540.078125 5.109375 l 1,38,-1
 539.40625 4.96875 l 1,39,-1
 538.734375 5 l 1,40,-1
 222.734375 22.015625 l 1,41,-1
 221.203125 22.09375 l 1,42,-1
 219.984375 23.015625 l 1,43,-1
 141.984375 82.015625 l 1,44,-1
 140.6875 83 l 1,45,-1
 140.21875 84.5625 l 1,46,-1
 95.265625 234.40625 l 1,0,-1
388 287 m 1,47,-1
 388 279.96875 l 1,48,-1
 381.359375 282.28125 l 1,49,-1
 43.453125 399.765625 l 1,50,-1
 104.671875 237.78125 l 1,51,-1
 104.78125 237.4375 l 1,52,-1
 149.3125 89 l 1,53,-1
 224.796875 31.90625 l 1,54,-1
 538.59375 15.03125 l 1,55,-1
 855.359375 84.3125 l 1,56,-1
 985.609375 407.53125 l 1,57,-1
 958.5625 420.65625 l 1,58,-1
 659.40625 333.203125 l 1,59,-1
 653.875 331.578125 l 1,60,-1
 653.0625 337.28125 l 1,61,-1
 652.046875 344.28125 l 1,62,-1
 651.4375 348.53125 l 1,63,-1
 655.5625 349.78125 l 1,64,-1
 912.125 427.046875 l 1,65,-1
 1029.890625 763.65625 l 1,66,-1
 893.953125 838.859375 l 1,67,-1
 554.546875 804.4375 l 1,68,-1
 514.96875 429.484375 l 1,69,-1
 514.515625 425.203125 l 1,70,-1
 510.21875 425.015625 l 1,71,-1
 463.21875 423 l 1,72,-1
 459.171875 422.828125 l 1,73,-1
 458.15625 426.75 l 1,74,-1
 360.078125 806.1875 l 1,75,-1
 -2.28125 823.859375 l 1,76,-1
 -22 791.59375 l 1,77,-1
 -22 538.265625 l 1,78,-1
 41.5 420.078125 l 1,79,-1
 384.65625 299.71875 l 1,80,-1
 388 298.546875 l 1,81,-1
 388 295 l 1,82,-1
 388 287 l 1,47,-1
223 27 m 1,83,-1
 226.53125 30.53125 l 1,84,-1
 297.25 -40.171875 l 1,85,-1
 293.71875 -43.703125 l 1,86,-1
 290.171875 -47.25 l 1,87,-1
 219.46875 23.46875 l 1,88,-1
 223 27 l 1,83,-1
539 10 m 1,89,-1
 542.53125 13.53125 l 1,90,-1
 613.25 -57.171875 l 1,91,-1
 609.71875 -60.71875 l 1,92,-1
 606.171875 -64.25 l 1,93,-1
 535.46875 6.46875 l 1,94,-1
 539 10 l 1,89,-1
859 79.984375 m 1,95,-1
 862.53125 83.53125 l 1,96,-1
 933.25 12.8125 l 1,97,-1
 929.71875 9.28125 l 1,98,-1
 926.171875 5.75 l 1,99,-1
 855.46875 76.453125 l 1,100,-1
 859 79.984375 l 1,95,-1
657 344.984375 m 1,101,-1
 660.53125 348.53125 l 1,102,-1
 666.171875 342.890625 l 1,103,-1
 662.640625 339.34375 l 1,104,-1
 659.109375 335.8125 l 1,105,-1
 653.46875 341.453125 l 1,106,-1
 657 344.984375 l 1,101,-1
916 423 m 1,107,-1
 919.53125 426.53125 l 1,108,-1
 926.9375 419.125 l 1,109,-1
 923.40625 415.59375 l 1,110,-1
 919.875 412.0625 l 1,111,-1
 912.46875 419.453125 l 1,112,-1
 916 423 l 1,107,-1
38 416 m 1,113,-1
 41.546875 419.53125 l 1,114,-1
 55.40625 405.671875 l 1,115,-1
 51.875 402.140625 l 1,116,-1
 48.34375 398.59375 l 1,117,-1
 34.46875 412.46875 l 1,118,-1
 38 416 l 1,113,-1
364 811 m 1,119,-1
 367.53125 814.53125 l 1,120,-1
 438.234375 743.828125 l 1,121,-1
 439.203125 742.859375 l 1,122,-1
 439.546875 741.53125 l 1,123,-1
 516.265625 444.75 l 1,124,-1
 511.421875 443.5 l 1,125,-1
 506.578125 442.25 l 1,126,-1
 430.203125 737.71875 l 1,127,-1
 360.453125 807.46875 l 1,128,-1
 364 811 l 1,119,-1
1036 766 m 1,129,-1
 1039.53125 769.53125 l 1,130,-1
 1110.25 698.8125 l 1,131,-1
 1112.46875 696.59375 l 1,132,-1
 1111.4375 693.640625 l 1,133,-1
 1007.765625 397.296875 l 1,134,-1
 1003.046875 398.953125 l 1,135,-1
 998.3125 400.609375 l 1,136,-1
 1100.953125 693.96875 l 1,137,-1
 1032.46875 762.453125 l 1,138,-1
 1036 766 l 1,129,-1
992 410 m 1,139,-1
 995.53125 413.53125 l 1,140,-1
 1066.234375 342.828125 l 1,141,-1
 1068.578125 340.484375 l 1,142,-1
 1067.34375 337.421875 l 1,143,-1
 934.34375 7.40625 l 1,144,-1
 933.359375 4.96875 l 1,145,-1
 930.78125 4.390625 l 1,146,-1
 610.78125 -65.59375 l 1,147,-1
 610.125 -65.734375 l 1,148,-1
 609.4375 -65.703125 l 1,149,-1
 293.453125 -48.703125 l 1,150,-1
 291.921875 -48.625 l 1,151,-1
 290.703125 -47.703125 l 1,152,-1
 212.6875 11.296875 l 1,153,-1
 212.171875 11.75 l 1,154,-1
 141.46875 82.46875 l 1,155,-1
 145 86 l 1,156,-1
 148.53125 89.53125 l 1,157,-1
 219 19.0625 l 1,158,-1
 295.515625 -38.796875 l 1,159,-1
 609.3125 -55.6875 l 1,160,-1
 926.0625 13.59375 l 1,161,-1
 1056.828125 338.09375 l 1,162,-1
 988.453125 406.46875 l 1,163,-1
 992 410 l 1,139,-1
EndSplineSet
Validated: 524293
EndChar

StartChar: Z
Encoding: 90 90 25
Width: 1094
VWidth: 0
Flags: W
LayerCount: 2
Fore
SplineSet
0.078125 793.125 m 1,0,-1
 -31.921875 732.90625 l 1,1,-1
 -17.140625 478.578125 l 1,2,-1
 119 374.53125 l 1,3,-1
 444.625 472.609375 l 1,4,-1
 438.03125 540.515625 l 1,5,-1
 437.1875 549.078125 l 1,6,-1
 445.046875 545.5625 l 1,7,-1
 550.046875 498.5625 l 1,8,-1
 551.875 497.75 l 1,9,-1
 552.625 495.90625 l 1,10,-1
 564.609375 466.90625 l 1,11,-1
 566.75 461.734375 l 1,12,-1
 561.375 460.1875 l 1,13,-1
 5 301.234375 l 1,14,-1
 5 173.953125 l 1,15,-1
 153.3125 12.875 l 1,16,-1
 471.078125 -7 l 1,17,-1
 884.125 4.953125 l 1,18,-1
 1062.65625 155.03125 l 1,19,-1
 1038.21875 323.171875 l 1,20,-1
 939.078125 472.84375 l 1,21,-1
 762.390625 401.96875 l 1,22,-1
 732.25 353.359375 l 1,23,-1
 731.359375 351.921875 l 1,24,-1
 729.78125 351.328125 l 1,25,-1
 483.78125 257.328125 l 1,26,-1
 482.046875 256.671875 l 1,27,-1
 480.28125 257.3125 l 1,28,-1
 428.28125 276.296875 l 1,29,-1
 416.34375 280.65625 l 1,30,-1
 428.0625 285.609375 l 1,31,-1
 1006.0625 529.34375 l 1,32,-1
 1007.953125 661.328125 l 1,33,-1
 806.421875 794.046875 l 1,34,-1
 362.015625 808 l 1,35,-1
 0.078125 793.125 l 1,0,-1
362.015625 808 m 1,36,-1
 362.015625 808 l 1,36,-1
471.078125 -7 m 1,37,-1
 471.078125 -7 l 1,37,-1
-3.203125 803 m 1,38,-1
 361.78125 818 l 1,39,-1
 361.96875 818 l 1,40,-1
 808.140625 804 l 1,41,-1
 809.5625 803.953125 l 1,42,-1
 810.734375 803.171875 l 1,43,-1
 1015.75 668.171875 l 1,44,-1
 1018.03125 666.65625 l 1,45,-1
 1018 663.921875 l 1,46,-1
 1016 525.921875 l 1,47,-1
 1015.953125 522.65625 l 1,48,-1
 1012.953125 521.390625 l 1,49,-1
 443.65625 281.328125 l 1,50,-1
 481.96875 267.34375 l 1,51,-1
 724.640625 360.0625 l 1,52,-1
 754.75 408.640625 l 1,53,-1
 755.625 410.03125 l 1,54,-1
 757.140625 410.640625 l 1,55,-1
 939.140625 483.640625 l 1,56,-1
 942.921875 485.15625 l 1,57,-1
 945.171875 481.765625 l 1,58,-1
 1047.171875 327.765625 l 1,59,-1
 1047.796875 326.828125 l 1,60,-1
 1047.953125 325.71875 l 1,61,-1
 1072.9375 153.71875 l 1,62,-1
 1073.34375 150.96875 l 1,63,-1
 1071.21875 149.171875 l 1,64,-1
 889.21875 -3.828125 l 1,65,-1
 887.890625 -4.953125 l 1,66,-1
 886.15625 -5 l 1,67,-1
 471.140625 -17 l 1,68,-1
 470.6875 -16.984375 l 1,69,-1
 150.6875 3.015625 l 1,70,-1
 148.6875 3.140625 l 1,71,-1
 147.328125 4.625 l 1,72,-1
 -3.671875 168.625 l 1,73,-1
 -5 170.046875 l 1,74,-1
 -5 172 l 1,75,-1
 -5 305 l 1,76,-1
 -5 308.78125 l 1,77,-1
 -1.375 309.8125 l 1,78,-1
 553.234375 468.265625 l 1,79,-1
 544.140625 490.25 l 1,80,-1
 448.8125 532.921875 l 1,81,-1
 454.96875 469.484375 l 1,82,-1
 455.375 465.390625 l 1,83,-1
 451.4375 464.21875 l 1,84,-1
 119.4375 364.21875 l 1,85,-1
 117 363.46875 l 1,86,-1
 114.96875 365.03125 l 1,87,-1
 -25.03125 472.03125 l 1,88,-1
 -26.859375 473.421875 l 1,89,-1
 -26.984375 475.71875 l 1,90,-1
 -42 733.71875 l 1,91,-1
 -42.078125 735.125 l 1,92,-1
 -41.421875 736.359375 l 1,93,-1
 -7.40625 800.34375 l 1,94,-1
 -6.0625 802.875 l 1,95,-1
 -3.203125 803 l 1,38,-1
118 369 m 1,96,-1
 121.53125 372.53125 l 1,97,-1
 145.09375 348.984375 l 1,98,-1
 141.546875 345.453125 l 1,99,-1
 138.015625 341.90625 l 1,100,-1
 114.46875 365.46875 l 1,101,-1
 118 369 l 1,96,-1
450 469 m 1,102,-1
 453.53125 472.53125 l 1,103,-1
 481.09375 444.984375 l 1,104,-1
 477.546875 441.4375 l 1,105,-1
 474.015625 437.90625 l 1,106,-1
 446.46875 465.46875 l 1,107,-1
 450 469 l 1,102,-1
443 541 m 1,108,-1
 446.53125 544.53125 l 1,109,-1
 517.25 473.828125 l 1,110,-1
 513.71875 470.296875 l 1,111,-1
 510.171875 466.75 l 1,112,-1
 439.46875 537.46875 l 1,113,-1
 443 541 l 1,108,-1
471 -12 m 1,114,-1
 474.53125 -8.46875 l 1,115,-1
 545.25 -79.171875 l 1,116,-1
 541.703125 -82.703125 l 1,117,-1
 538.171875 -86.25 l 1,118,-1
 467.46875 -15.53125 l 1,119,-1
 471 -12 l 1,114,-1
886 0 m 1,120,-1
 889.546875 3.53125 l 1,121,-1
 960.25 -67.171875 l 1,122,-1
 956.71875 -70.71875 l 1,123,-1
 953.1875 -74.25 l 1,124,-1
 882.46875 -3.53125 l 1,125,-1
 886 0 l 1,120,-1
1068 153 m 1,126,-1
 1071.53125 156.53125 l 1,127,-1
 1142.25 85.828125 l 1,128,-1
 1138.703125 82.296875 l 1,129,-1
 1135.171875 78.75 l 1,130,-1
 1064.46875 149.46875 l 1,131,-1
 1068 153 l 1,126,-1
1043 325 m 1,132,-1
 1046.546875 328.53125 l 1,133,-1
 1117.25 257.828125 l 1,134,-1
 1113.71875 254.296875 l 1,135,-1
 1110.1875 250.75 l 1,136,-1
 1039.46875 321.46875 l 1,137,-1
 1043 325 l 1,132,-1
1011 526 m 1,138,-1
 1014.546875 529.53125 l 1,139,-1
 1085.25 458.828125 l 1,140,-1
 1081.71875 455.28125 l 1,141,-1
 1078.1875 451.75 l 1,142,-1
 1007.46875 522.46875 l 1,143,-1
 1011 526 l 1,138,-1
1013 664 m 1,144,-1
 1016.53125 667.53125 l 1,145,-1
 1087.25 596.8125 l 1,146,-1
 1088.734375 595.328125 l 1,147,-1
 1088.703125 593.21875 l 1,148,-1
 1086.71875 455.21875 l 1,149,-1
 1086.671875 451.953125 l 1,150,-1
 1083.65625 450.6875 l 1,151,-1
 1001.359375 415.96875 l 1,152,-1
 999.421875 420.578125 l 1,153,-1
 997.46875 425.1875 l 1,154,-1
 1076.765625 458.625 l 1,155,-1
 1078.671875 591.25 l 1,156,-1
 1009.46875 660.453125 l 1,157,-1
 1013 664 l 1,144,-1
941 479 m 1,158,-1
 944.546875 482.53125 l 1,159,-1
 1015.25 411.828125 l 1,160,-1
 1015.890625 411.046875 l 1,161,-1
 1117.890625 257.0625 l 1,162,-1
 1118.5 256.125 l 1,163,-1
 1118.65625 255.015625 l 1,164,-1
 1143.65625 83.015625 l 1,165,-1
 1144.0625 80.25 l 1,166,-1
 1141.921875 78.46875 l 1,167,-1
 959.9375 -74.53125 l 1,168,-1
 958.59375 -75.65625 l 1,169,-1
 956.859375 -75.703125 l 1,170,-1
 541.859375 -87.703125 l 1,171,-1
 541.40625 -87.703125 l 1,172,-1
 221.40625 -67.6875 l 1,173,-1
 219.515625 -67.578125 l 1,174,-1
 218.171875 -66.234375 l 1,175,-1
 147.46875 4.46875 l 1,176,-1
 151 8.015625 l 1,177,-1
 154.53125 11.546875 l 1,178,-1
 223.90625 -57.828125 l 1,179,-1
 541.796875 -77.703125 l 1,180,-1
 954.828125 -65.765625 l 1,181,-1
 1133.359375 84.328125 l 1,182,-1
 1108.921875 252.46875 l 1,183,-1
 1007.828125 405.109375 l 1,184,-1
 937.46875 475.46875 l 1,185,-1
 941 479 l 1,158,-1
538.96875 458.984375 m 1,186,-1
 536.921875 454.421875 l 1,187,-1
 519.515625 462.21875 l 1,188,-1
 520.4375 452.765625 l 1,189,-1
 515.46875 452.28125 l 1,190,-1
 510.484375 451.796875 l 1,191,-1
 508.734375 469.8125 l 1,192,-1
 507.90625 478.375 l 1,193,-1
 515.75 474.859375 l 1,194,-1
 541 463.5625 l 1,195,-1
 538.96875 458.984375 l 1,186,-1
130.96875 342.421875 m 1,196,-1
 127.9375 338.453125 l 1,197,-1
 45.671875 401.328125 l 1,198,-1
 45.40625 401.53125 l 1,199,-1
 -25.53125 472.46875 l 1,200,-1
 -22 476 l 1,201,-1
 -18.46875 479.546875 l 1,202,-1
 52.015625 409.0625 l 1,203,-1
 134 346.390625 l 1,204,-1
 130.96875 342.421875 l 1,196,-1
EndSplineSet
Validated: 524293
EndChar

StartChar: q
Encoding: 113 113 26
Width: 1094
VWidth: 0
Flags: W
LayerCount: 2
Fore
SplineSet
360.328125 871.875 m 1,0,-1
 -18.125 754.28125 l 1,1,-1
 -34.953125 267.015625 l 1,2,-1
 65.328125 47.765625 l 1,3,-1
 598.53125 7.046875 l 1,4,-1
 712.703125 37.8125 l 1,5,-1
 716.0625 38.71875 l 1,6,-1
 718.078125 35.890625 l 1,7,-1
 783.9375 -56.5 l 1,8,-1
 897.046875 -79.671875 l 1,9,-1
 874.046875 82.296875 l 1,10,-1
 873.5625 85.6875 l 1,11,-1
 876.5625 87.359375 l 1,12,-1
 958.59375 133.265625 l 1,13,-1
 1049.625 554.796875 l 1,14,-1
 889.53125 763.09375 l 1,15,-1
 798.34375 609.203125 l 1,16,-1
 901.859375 183.1875 l 1,17,-1
 902.484375 180.609375 l 1,18,-1
 900.703125 178.640625 l 1,19,-1
 871.703125 146.640625 l 1,20,-1
 865.859375 140.1875 l 1,21,-1
 863.234375 148.484375 l 1,22,-1
 812 310.078125 l 1,23,-1
 701.421875 347.890625 l 1,24,-1
 661.265625 272.25 l 1,25,-1
 692.890625 119.015625 l 1,26,-1
 693.6875 115.140625 l 1,27,-1
 690.109375 113.46875 l 1,28,-1
 675.109375 106.46875 l 1,29,-1
 669.921875 104.046875 l 1,30,-1
 668.21875 109.515625 l 1,31,-1
 614.21875 283.515625 l 1,32,-1
 613.6875 285.234375 l 1,33,-1
 614.375 286.890625 l 1,34,-1
 701.375 498.90625 l 1,35,-1
 701.71875 499.578125 l 1,36,-1
 857.125 757.9375 l 1,37,-1
 837.9375 788.453125 l 1,38,-1
 360.328125 871.875 l 1,0,-1
360.859375 881.921875 m 1,39,-1
 841.859375 797.921875 l 1,40,-1
 844.046875 797.546875 l 1,41,-1
 845.21875 795.65625 l 1,42,-1
 867.234375 760.65625 l 1,43,-1
 868.875 758.0625 l 1,44,-1
 867.28125 755.421875 l 1,45,-1
 710.484375 494.75 l 1,46,-1
 624.296875 284.765625 l 1,47,-1
 676.078125 117.953125 l 1,48,-1
 682.296875 120.859375 l 1,49,-1
 651.109375 271.984375 l 1,50,-1
 650.75 273.75 l 1,51,-1
 651.59375 275.34375 l 1,52,-1
 694.578125 356.34375 l 1,53,-1
 696.578125 360.109375 l 1,54,-1
 700.609375 358.71875 l 1,55,-1
 817.625 318.734375 l 1,56,-1
 820 317.921875 l 1,57,-1
 820.765625 315.515625 l 1,58,-1
 870.125 159.796875 l 1,59,-1
 891.515625 183.390625 l 1,60,-1
 788.15625 608.8125 l 1,61,-1
 787.671875 610.796875 l 1,62,-1
 788.703125 612.546875 l 1,63,-1
 884.703125 774.546875 l 1,64,-1
 888.46875 780.890625 l 1,65,-1
 892.96875 775.046875 l 1,66,-1
 1058.96875 559.046875 l 1,67,-1
 1060.375 557.21875 l 1,68,-1
 1059.890625 554.953125 l 1,69,-1
 967.890625 128.953125 l 1,70,-1
 967.40625 126.75 l 1,71,-1
 965.4375 125.640625 l 1,72,-1
 884.4375 80.3125 l 1,73,-1
 907.953125 -85.296875 l 1,74,-1
 908.9375 -92.328125 l 1,75,-1
 902 -90.90625 l 1,76,-1
 780 -65.890625 l 1,77,-1
 778.078125 -65.5 l 1,78,-1
 776.9375 -63.90625 l 1,79,-1
 711.953125 27.265625 l 1,80,-1
 600.296875 -2.828125 l 1,81,-1
 598.609375 -2.984375 l 1,82,-1
 61.625 38.015625 l 1,83,-1
 58.6875 38.234375 l 1,84,-1
 57.453125 40.921875 l 1,85,-1
 -44.546875 263.921875 l 1,86,-1
 -45.03125 265 l 1,87,-1
 -45 266.171875 l 1,88,-1
 -28 758.171875 l 1,89,-1
 -27.875 761.71875 l 1,90,-1
 -24.484375 762.765625 l 1,91,-1
 358.515625 881.78125 l 1,92,-1
 359.671875 882.140625 l 1,93,-1
 360.859375 881.921875 l 1,39,-1
599 2 m 1,94,-1
 602.53125 5.53125 l 1,95,-1
 673.25 -65.171875 l 1,96,-1
 669.703125 -68.71875 l 1,97,-1
 666.171875 -72.25 l 1,98,-1
 595.46875 -1.53125 l 1,99,-1
 599 2 l 1,94,-1
903 -86 m 1,100,-1
 906.53125 -82.46875 l 1,101,-1
 977.25 -153.171875 l 1,102,-1
 973.703125 -156.71875 l 1,103,-1
 970.171875 -160.25 l 1,104,-1
 899.46875 -89.53125 l 1,105,-1
 903 -86 l 1,100,-1
879 83 m 1,106,-1
 882.53125 86.53125 l 1,107,-1
 953.25 15.828125 l 1,108,-1
 949.71875 12.28125 l 1,109,-1
 946.171875 8.75 l 1,110,-1
 875.46875 79.46875 l 1,111,-1
 879 83 l 1,106,-1
963 130 m 1,112,-1
 966.53125 133.546875 l 1,113,-1
 1037.25 62.828125 l 1,114,-1
 1033.71875 59.296875 l 1,115,-1
 1030.171875 55.765625 l 1,116,-1
 959.46875 126.46875 l 1,117,-1
 963 130 l 1,112,-1
1055 556 m 1,118,-1
 1058.53125 559.546875 l 1,119,-1
 1129.25 488.828125 l 1,120,-1
 1125.71875 485.296875 l 1,121,-1
 1122.171875 481.765625 l 1,122,-1
 1051.46875 552.46875 l 1,123,-1
 1055 556 l 1,118,-1
816 314 m 1,124,-1
 819.53125 317.53125 l 1,125,-1
 884.171875 252.90625 l 1,126,-1
 880.625 249.375 l 1,127,-1
 877.09375 245.828125 l 1,128,-1
 812.46875 310.46875 l 1,129,-1
 816 314 l 1,124,-1
619 285 m 1,130,-1
 622.53125 288.53125 l 1,131,-1
 666.046875 245.015625 l 1,132,-1
 662.515625 241.484375 l 1,133,-1
 658.96875 237.9375 l 1,134,-1
 615.453125 281.46875 l 1,135,-1
 619 285 l 1,130,-1
706 497 m 1,136,-1
 709.53125 500.546875 l 1,137,-1
 780.25 429.828125 l 1,138,-1
 776.71875 426.296875 l 1,139,-1
 773.171875 422.765625 l 1,140,-1
 702.46875 493.46875 l 1,141,-1
 706 497 l 1,136,-1
841 793 m 1,142,-1
 844.53125 796.53125 l 1,143,-1
 882.484375 758.578125 l 1,144,-1
 878.953125 755.03125 l 1,145,-1
 875.421875 751.5 l 1,146,-1
 837.453125 789.46875 l 1,147,-1
 841 793 l 1,142,-1
820.109375 498.4375 m 1,148,-1
 824.40625 495.875 l 1,149,-1
 781.1875 424.046875 l 1,150,-1
 745.75 337.6875 l 1,151,-1
 741.125 339.59375 l 1,152,-1
 736.5 341.484375 l 1,153,-1
 772.09375 428.1875 l 1,154,-1
 772.421875 428.875 l 1,155,-1
 815.828125 501.015625 l 1,156,-1
 820.109375 498.4375 l 1,148,-1
889 772 m 1,157,-1
 892.53125 775.53125 l 1,158,-1
 963.25 704.8125 l 1,159,-1
 963.671875 704.328125 l 1,160,-1
 1129.671875 488.34375 l 1,161,-1
 1131.09375 486.5 l 1,162,-1
 1130.59375 484.234375 l 1,163,-1
 1038.59375 58.25 l 1,164,-1
 1038.125 56.03125 l 1,165,-1
 1036.15625 54.9375 l 1,166,-1
 955.140625 9.59375 l 1,167,-1
 978.65625 -156.015625 l 1,168,-1
 979.65625 -163.03125 l 1,169,-1
 972.703125 -161.609375 l 1,170,-1
 850.71875 -136.609375 l 1,171,-1
 849.25 -136.3125 l 1,172,-1
 848.1875 -135.25 l 1,173,-1
 777.46875 -64.53125 l 1,174,-1
 781.015625 -61 l 1,175,-1
 784.546875 -57.46875 l 1,176,-1
 854.1875 -127.109375 l 1,177,-1
 967.765625 -150.390625 l 1,178,-1
 944.765625 11.578125 l 1,179,-1
 944.28125 14.96875 l 1,180,-1
 947.265625 16.65625 l 1,181,-1
 1029.296875 62.5625 l 1,182,-1
 1120.34375 484.09375 l 1,183,-1
 955.9375 697.984375 l 1,184,-1
 885.46875 768.453125 l 1,185,-1
 889 772 l 1,157,-1
767.6875 -42.3125 m 1,186,-1
 768.984375 -47.140625 l 1,187,-1
 671.0625 -73.53125 l 1,188,-1
 670.1875 -73.765625 l 1,189,-1
 669.328125 -73.703125 l 1,190,-1
 132.328125 -32.6875 l 1,191,-1
 130.484375 -32.5625 l 1,192,-1
 129.1875 -31.25 l 1,193,-1
 58.46875 39.46875 l 1,194,-1
 62 43 l 1,195,-1
 65.546875 46.53125 l 1,196,-1
 134.9375 -22.859375 l 1,197,-1
 669.234375 -63.65625 l 1,198,-1
 766.390625 -37.484375 l 1,199,-1
 767.6875 -42.3125 l 1,186,-1
EndSplineSet
Validated: 524293
EndChar

StartChar: bracketleft
Encoding: 91 91 27
Width: 1094
VWidth: 0
Flags: W
LayerCount: 2
Fore
SplineSet
134 800 m 1,0,-1
 133.3125 800.046875 l 1,1,-1
 109.640625 803.3125 l 1,2,-1
 102.28125 692.28125 l 1,3,-1
 138.71875 686.953125 l 1,4,-1
 143.125 686.3125 l 1,5,-1
 143 681.84375 l 1,6,-1
 121 -36.15625 l 1,7,-1
 120.84375 -41.328125 l 1,8,-1
 115.671875 -41 l 1,9,-1
 89.734375 -39.3125 l 1,10,-1
 86.234375 -110.171875 l 1,11,-1
 868.0625 -135.828125 l 1,12,-1
 870.953125 125.6875 l 1,13,-1
 609.296875 110 l 1,14,-1
 603.859375 109.671875 l 1,15,-1
 604 115.125 l 1,16,-1
 612 428.125 l 1,17,-1
 612.125 432.96875 l 1,18,-1
 616.953125 433 l 1,19,-1
 879.1875 434.96875 l 1,20,-1
 892.8125 800 l 1,21,-1
 134 800 l 1,0,-1
134.34375 810 m 1,22,-1
 898 810 l 1,23,-1
 903.1875 810 l 1,24,-1
 903 804.8125 l 1,25,-1
 889 429.8125 l 1,26,-1
 888.828125 425.03125 l 1,27,-1
 884.046875 425 l 1,28,-1
 621.875 423.03125 l 1,29,-1
 614.125 120.3125 l 1,30,-1
 875.703125 136 l 1,31,-1
 881.0625 136.3125 l 1,32,-1
 881 130.953125 l 1,33,-1
 878 -141.046875 l 1,34,-1
 877.9375 -146.15625 l 1,35,-1
 872.84375 -145.984375 l 1,36,-1
 80.828125 -120 l 1,37,-1
 75.75 -119.828125 l 1,38,-1
 76 -114.75 l 1,39,-1
 80 -33.75 l 1,40,-1
 80.25 -28.671875 l 1,41,-1
 85.3125 -29 l 1,42,-1
 111.15625 -30.6875 l 1,43,-1
 132.859375 677.703125 l 1,44,-1
 96.265625 683.0625 l 1,45,-1
 91.703125 683.71875 l 1,46,-1
 92 688.328125 l 1,47,-1
 100.015625 809.328125 l 1,48,-1
 100.375 814.6875 l 1,49,-1
 105.6875 813.953125 l 1,50,-1
 134.34375 810 l 1,22,-1
97 688 m 1,51,-1
 100.53125 691.53125 l 1,52,-1
 140.484375 651.578125 l 1,53,-1
 136.953125 648.046875 l 1,54,-1
 133.421875 644.5 l 1,55,-1
 93.453125 684.46875 l 1,56,-1
 97 688 l 1,51,-1
617 428 m 1,57,-1
 620.53125 431.53125 l 1,58,-1
 691.234375 360.828125 l 1,59,-1
 687.703125 357.28125 l 1,60,-1
 684.171875 353.75 l 1,61,-1
 613.453125 424.46875 l 1,62,-1
 617 428 l 1,57,-1
884 430 m 1,63,-1
 887.546875 433.53125 l 1,64,-1
 958.25 362.828125 l 1,65,-1
 954.71875 359.28125 l 1,66,-1
 951.1875 355.75 l 1,67,-1
 880.46875 426.46875 l 1,68,-1
 884 430 l 1,63,-1
898 805 m 1,69,-1
 901.53125 808.53125 l 1,70,-1
 972.25 737.828125 l 1,71,-1
 973.796875 736.28125 l 1,72,-1
 973.71875 734.09375 l 1,73,-1
 959.71875 359.09375 l 1,74,-1
 959.53125 354.328125 l 1,75,-1
 954.75 354.28125 l 1,76,-1
 692.578125 352.328125 l 1,77,-1
 686.625 119.21875 l 1,78,-1
 681.625 119.34375 l 1,79,-1
 676.625 119.46875 l 1,80,-1
 682.703125 357.421875 l 1,81,-1
 682.828125 362.25 l 1,82,-1
 687.671875 362.28125 l 1,83,-1
 949.890625 364.25 l 1,84,-1
 963.640625 732.296875 l 1,85,-1
 894.46875 801.46875 l 1,86,-1
 898 805 l 1,69,-1
876 131 m 1,87,-1
 879.546875 134.53125 l 1,88,-1
 950.25 63.828125 l 1,89,-1
 951.734375 62.34375 l 1,90,-1
 951.71875 60.234375 l 1,91,-1
 948.71875 -211.75 l 1,92,-1
 948.65625 -216.859375 l 1,93,-1
 943.546875 -216.703125 l 1,94,-1
 151.546875 -190.71875 l 1,95,-1
 149.5625 -190.640625 l 1,96,-1
 148.171875 -189.25 l 1,97,-1
 77.46875 -118.546875 l 1,98,-1
 81 -115 l 1,99,-1
 84.53125 -111.46875 l 1,100,-1
 153.84375 -180.78125 l 1,101,-1
 938.765625 -206.53125 l 1,102,-1
 941.6875 58.25 l 1,103,-1
 872.46875 127.46875 l 1,104,-1
 876 131 l 1,87,-1
EndSplineSet
Validated: 524293
EndChar

StartChar: bracketright
Encoding: 93 93 28
Width: 1064
VWidth: 0
Flags: W
LayerCount: 2
Fore
SplineSet
903.9375 769.046875 m 1,0,-1
 158.109375 774.96875 l 1,1,-1
 165.890625 412.96875 l 1,2,-1
 506.03125 410.984375 l 1,3,-1
 511.28125 410.953125 l 1,4,-1
 511 405.71875 l 1,5,-1
 493.984375 95.71875 l 1,6,-1
 493.71875 90.84375 l 1,7,-1
 488.84375 91 l 1,8,-1
 175.078125 100.84375 l 1,9,-1
 178.90625 -132.015625 l 1,10,-1
 894.046875 -133.984375 l 1,11,-1
 903.9375 769.046875 l 1,0,-1
914 773.953125 m 1,12,-1
 904 -139.046875 l 1,13,-1
 903.9375 -144 l 1,14,-1
 898.984375 -143.984375 l 1,15,-1
 173.984375 -142 l 1,16,-1
 169.078125 -141.984375 l 1,17,-1
 169 -137.078125 l 1,18,-1
 165 105.921875 l 1,19,-1
 164.90625 111.15625 l 1,20,-1
 170.15625 111 l 1,21,-1
 484.265625 101.15625 l 1,22,-1
 500.71875 401.015625 l 1,23,-1
 160.96875 403 l 1,24,-1
 156.109375 403.03125 l 1,25,-1
 156 407.890625 l 1,26,-1
 148 779.890625 l 1,27,-1
 147.890625 785.046875 l 1,28,-1
 153.046875 785 l 1,29,-1
 909.03125 779 l 1,30,-1
 914.046875 778.96875 l 1,31,-1
 914 773.953125 l 1,12,-1
899 -138.984375 m 1,32,-1
 902.53125 -135.453125 l 1,33,-1
 973.25 -206.171875 l 1,34,-1
 969.703125 -209.703125 l 1,35,-1
 966.171875 -213.234375 l 1,36,-1
 895.46875 -142.53125 l 1,37,-1
 899 -138.984375 l 1,32,-1
909 774 m 1,38,-1
 912.53125 777.546875 l 1,39,-1
 983.25 706.828125 l 1,40,-1
 984.734375 705.34375 l 1,41,-1
 984.703125 703.234375 l 1,42,-1
 974.703125 -209.75 l 1,43,-1
 974.65625 -214.71875 l 1,44,-1
 969.6875 -214.703125 l 1,45,-1
 244.6875 -212.71875 l 1,46,-1
 242.625 -212.703125 l 1,47,-1
 241.171875 -211.25 l 1,48,-1
 170.453125 -140.53125 l 1,49,-1
 174 -137 l 1,50,-1
 177.53125 -133.46875 l 1,51,-1
 246.78125 -202.71875 l 1,52,-1
 964.765625 -204.6875 l 1,53,-1
 974.6875 701.25 l 1,54,-1
 905.46875 770.46875 l 1,55,-1
 909 774 l 1,38,-1
502.140625 335.71875 m 1,56,-1
 502.125 330.71875 l 1,57,-1
 230.640625 332.296875 l 1,58,-1
 229.625 332.296875 l 1,59,-1
 228.171875 333.75 l 1,60,-1
 157.46875 404.46875 l 1,61,-1
 161 408 l 1,62,-1
 164.53125 411.53125 l 1,63,-1
 233.796875 342.28125 l 1,64,-1
 502.171875 340.71875 l 1,65,-1
 502.140625 335.71875 l 1,56,-1
EndSplineSet
Validated: 524293
EndChar

StartChar: backslash
Encoding: 92 92 29
Width: 889
VWidth: 0
Flags: W
LayerCount: 2
Fore
SplineSet
48.90625 773.09375 m 1,0,-1
 45.03125 599.296875 l 1,1,-1
 431.890625 -65.03125 l 1,2,-1
 779.828125 -68.9375 l 1,3,-1
 772.046875 168.5 l 1,4,-1
 395.234375 778.953125 l 1,5,-1
 48.90625 773.09375 l 1,0,-1
43.921875 783 m 1,6,-1
 397.921875 789 l 1,7,-1
 400.765625 789.046875 l 1,8,-1
 402.25 786.625 l 1,9,-1
 781.25 172.625 l 1,10,-1
 781.953125 171.484375 l 1,11,-1
 782 170.15625 l 1,12,-1
 790 -73.84375 l 1,13,-1
 790.171875 -79.0625 l 1,14,-1
 784.9375 -79 l 1,15,-1
 428.9375 -75 l 1,16,-1
 426.09375 -74.96875 l 1,17,-1
 424.671875 -72.515625 l 1,18,-1
 35.6875 595.484375 l 1,19,-1
 34.96875 596.703125 l 1,20,-1
 35 598.109375 l 1,21,-1
 39 778.109375 l 1,22,-1
 39.109375 782.921875 l 1,23,-1
 43.921875 783 l 1,6,-1
785 -74 m 1,24,-1
 788.53125 -70.46875 l 1,25,-1
 859.25 -141.171875 l 1,26,-1
 855.703125 -144.71875 l 1,27,-1
 852.171875 -148.25 l 1,28,-1
 781.46875 -77.53125 l 1,29,-1
 785 -74 l 1,24,-1
777 170 m 1,30,-1
 780.53125 173.53125 l 1,31,-1
 851.25 102.8125 l 1,32,-1
 847.71875 99.28125 l 1,33,-1
 844.171875 95.75 l 1,34,-1
 773.46875 166.453125 l 1,35,-1
 777 170 l 1,30,-1
398 784 m 1,36,-1
 401.53125 787.53125 l 1,37,-1
 472.25 716.8125 l 1,38,-1
 472.65625 716.40625 l 1,39,-1
 851.96875 101.90625 l 1,40,-1
 852.65625 100.78125 l 1,41,-1
 852.703125 99.453125 l 1,42,-1
 860.703125 -144.546875 l 1,43,-1
 860.875 -149.765625 l 1,44,-1
 855.65625 -149.71875 l 1,45,-1
 499.640625 -145.71875 l 1,46,-1
 497.609375 -145.6875 l 1,47,-1
 496.171875 -144.25 l 1,48,-1
 425.453125 -73.53125 l 1,49,-1
 429 -70 l 1,50,-1
 432.53125 -66.46875 l 1,51,-1
 501.796875 -135.734375 l 1,52,-1
 850.546875 -139.65625 l 1,53,-1
 842.75 97.78125 l 1,54,-1
 464.765625 710.15625 l 1,55,-1
 394.46875 780.453125 l 1,56,-1
 398 784 l 1,36,-1
EndSplineSet
Validated: 524293
EndChar

StartChar: a
Encoding: 97 97 30
Width: 1094
VWidth: 0
Flags: W
LayerCount: 2
Fore
SplineSet
22.765625 452.515625 m 1,0,-1
 23.078125 451.515625 l 1,1,-1
 22.96875 450.46875 l 1,2,-1
 -9.03125 149.171875 l 1,3,-1
 44.015625 222.65625 l 1,4,-1
 46 375.078125 l 1,5,-1
 46.03125 377.640625 l 1,6,-1
 48.140625 379.109375 l 1,7,-1
 71.15625 395.109375 l 1,8,-1
 79.46875 400.90625 l 1,9,-1
 79 390.78125 l 1,10,-1
 71 220.75 l 1,11,-1
 70.921875 219.21875 l 1,12,-1
 70 217.984375 l 1,13,-1
 -20.78125 97.28125 l 1,14,-1
 -31.125 78.3125 l 1,15,-1
 18.828125 6.6875 l 1,16,-1
 602.34375 -64.515625 l 1,17,-1
 612.953125 -26.5 l 1,18,-1
 580.015625 407.625 l 1,19,-1
 579.609375 413 l 1,20,-1
 585 413 l 1,21,-1
 723.984375 413 l 1,22,-1
 729.34375 413 l 1,23,-1
 728.984375 407.671875 l 1,24,-1
 720.984375 288.65625 l 1,25,-1
 720.84375 286.59375 l 1,26,-1
 719.28125 285.21875 l 1,27,-1
 689.625 259.390625 l 1,28,-1
 645.0625 -4.0625 l 1,29,-1
 1037 53.328125 l 1,30,-1
 1037 274.28125 l 1,31,-1
 783.390625 599.9375 l 1,32,-1
 476.890625 474.375 l 1,33,-1
 472.46875 472.5625 l 1,34,-1
 470.46875 476.90625 l 1,35,-1
 433.453125 556.90625 l 1,36,-1
 432.46875 559.03125 l 1,37,-1
 433.484375 561.140625 l 1,38,-1
 505.484375 713.140625 l 1,39,-1
 507.28125 716.9375 l 1,40,-1
 511.328125 715.8125 l 1,41,-1
 793.34375 637.8125 l 1,42,-1
 794.953125 637.359375 l 1,43,-1
 795.96875 636.03125 l 1,44,-1
 1011.265625 354.421875 l 1,45,-1
 1016.984375 658.390625 l 1,46,-1
 981.9375 792.734375 l 1,47,-1
 516.296875 889.84375 l 1,48,-1
 105.625 753.921875 l 1,49,-1
 -0.65625 525.65625 l 1,50,-1
 22.765625 452.515625 l 1,0,-1
12.921875 450.46875 m 1,51,-1
 -10.765625 524.46875 l 1,52,-1
 -11.375 526.34375 l 1,53,-1
 -10.546875 528.109375 l 1,54,-1
 97.46875 760.109375 l 1,55,-1
 98.375 762.0625 l 1,56,-1
 100.4375 762.75 l 1,57,-1
 514.421875 899.75 l 1,58,-1
 515.703125 900.171875 l 1,59,-1
 517.015625 899.90625 l 1,60,-1
 987.015625 801.890625 l 1,61,-1
 990.046875 801.265625 l 1,62,-1
 990.828125 798.265625 l 1,63,-1
 1026.84375 660.25 l 1,64,-1
 1027.015625 659.59375 l 1,65,-1
 1027 658.890625 l 1,66,-1
 1021 339.90625 l 1,67,-1
 1020.734375 325.59375 l 1,68,-1
 1012.03125 336.96875 l 1,69,-1
 789.046875 628.625 l 1,70,-1
 512.71875 705.0625 l 1,71,-1
 443.515625 558.96875 l 1,72,-1
 477.53125 485.4375 l 1,73,-1
 783.109375 610.625 l 1,74,-1
 786.625 612.0625 l 1,75,-1
 788.953125 609.078125 l 1,76,-1
 1045.9375 279.078125 l 1,77,-1
 1047 277.71875 l 1,78,-1
 1047 276 l 1,79,-1
 1047 49 l 1,80,-1
 1047 44.671875 l 1,81,-1
 1042.71875 44.046875 l 1,82,-1
 639.71875 -14.953125 l 1,83,-1
 632.921875 -15.9375 l 1,84,-1
 634.0625 -9.171875 l 1,85,-1
 680.0625 262.828125 l 1,86,-1
 680.375 264.59375 l 1,87,-1
 681.71875 265.765625 l 1,88,-1
 711.15625 291.40625 l 1,89,-1
 718.640625 403 l 1,90,-1
 590.390625 403 l 1,91,-1
 622.984375 -26.609375 l 1,92,-1
 623.046875 -27.484375 l 1,93,-1
 622.8125 -28.328125 l 1,94,-1
 610.8125 -71.34375 l 1,95,-1
 609.65625 -75.46875 l 1,96,-1
 605.390625 -74.953125 l 1,97,-1
 15.40625 -2.96875 l 1,98,-1
 13.1875 -2.6875 l 1,99,-1
 11.90625 -0.859375 l 1,100,-1
 -41.109375 75.125 l 1,101,-1
 -42.875 77.671875 l 1,102,-1
 -41.390625 80.390625 l 1,103,-1
 -29.390625 102.390625 l 1,104,-1
 -29 103 l 1,105,-1
 61.078125 222.765625 l 1,106,-1
 68.53125 381.109375 l 1,107,-1
 55.96875 372.375 l 1,108,-1
 54 220.9375 l 1,109,-1
 53.984375 219.359375 l 1,110,-1
 53.046875 218.078125 l 1,111,-1
 -11.9375 128.0625 l 1,112,-1
 -22.953125 112.8125 l 1,113,-1
 -20.96875 131.515625 l 1,114,-1
 12.921875 450.46875 l 1,51,-1
-16 130.984375 m 1,115,-1
 -12.46875 134.53125 l 1,116,-1
 -4.296875 126.359375 l 1,117,-1
 -7.828125 122.828125 l 1,118,-1
 -11.375 119.296875 l 1,119,-1
 -19.53125 127.453125 l 1,120,-1
 -16 130.984375 l 1,115,-1
49 221 m 1,121,-1
 52.53125 224.53125 l 1,122,-1
 62.25 214.828125 l 1,123,-1
 58.703125 211.296875 l 1,124,-1
 55.171875 207.765625 l 1,125,-1
 45.46875 217.46875 l 1,126,-1
 49 221 l 1,121,-1
51 375.015625 m 1,127,-1
 54.53125 378.546875 l 1,128,-1
 75.78125 357.296875 l 1,129,-1
 72.25 353.765625 l 1,130,-1
 68.71875 350.21875 l 1,131,-1
 47.46875 371.46875 l 1,132,-1
 51 375.015625 l 1,127,-1
606 -70 m 1,133,-1
 609.53125 -66.453125 l 1,134,-1
 680.25 -137.171875 l 1,135,-1
 676.71875 -140.703125 l 1,136,-1
 673.171875 -144.234375 l 1,137,-1
 602.46875 -73.53125 l 1,138,-1
 606 -70 l 1,133,-1
618 -26.984375 m 1,139,-1
 621.53125 -23.453125 l 1,140,-1
 692.25 -94.171875 l 1,141,-1
 688.71875 -97.703125 l 1,142,-1
 685.171875 -101.234375 l 1,143,-1
 614.46875 -30.53125 l 1,144,-1
 618 -26.984375 l 1,139,-1
585 408 m 1,145,-1
 588.53125 411.53125 l 1,146,-1
 659.25 340.828125 l 1,147,-1
 655.703125 337.296875 l 1,148,-1
 652.171875 333.75 l 1,149,-1
 581.46875 404.46875 l 1,150,-1
 585 408 l 1,145,-1
1042 49 m 1,151,-1
 1045.53125 52.53125 l 1,152,-1
 1116.25 -18.171875 l 1,153,-1
 1112.703125 -21.703125 l 1,154,-1
 1109.171875 -25.25 l 1,155,-1
 1038.46875 45.46875 l 1,156,-1
 1042 49 l 1,151,-1
1042 276 m 1,157,-1
 1045.53125 279.53125 l 1,158,-1
 1116.25 208.828125 l 1,159,-1
 1112.703125 205.296875 l 1,160,-1
 1109.171875 201.75 l 1,161,-1
 1038.46875 272.46875 l 1,162,-1
 1042 276 l 1,157,-1
438 559 m 1,163,-1
 441.53125 562.53125 l 1,164,-1
 509.03125 495.03125 l 1,165,-1
 505.5 491.5 l 1,166,-1
 501.96875 487.953125 l 1,167,-1
 434.46875 555.46875 l 1,168,-1
 438 559 l 1,163,-1
510 711 m 1,169,-1
 513.53125 714.53125 l 1,170,-1
 584.25 643.8125 l 1,171,-1
 580.71875 640.28125 l 1,172,-1
 577.171875 636.75 l 1,173,-1
 506.46875 707.453125 l 1,174,-1
 510 711 l 1,169,-1
1022 658.984375 m 1,175,-1
 1025.53125 662.53125 l 1,176,-1
 1096.25 591.8125 l 1,177,-1
 1092.71875 588.28125 l 1,178,-1
 1089.171875 584.75 l 1,179,-1
 1018.46875 655.453125 l 1,180,-1
 1022 658.984375 l 1,175,-1
986 797 m 1,181,-1
 989.53125 800.53125 l 1,182,-1
 1060.234375 729.828125 l 1,183,-1
 1061.203125 728.859375 l 1,184,-1
 1061.546875 727.546875 l 1,185,-1
 1097.546875 589.546875 l 1,186,-1
 1097.71875 588.875 l 1,187,-1
 1097.71875 588.1875 l 1,188,-1
 1091.71875 269.203125 l 1,189,-1
 1091.484375 257.453125 l 1,190,-1
 1083.171875 265.765625 l 1,191,-1
 1012.46875 336.46875 l 1,192,-1
 1016 340 l 1,193,-1
 1019.53125 343.546875 l 1,194,-1
 1081.9375 281.140625 l 1,195,-1
 1087.703125 587.6875 l 1,196,-1
 1052.203125 723.71875 l 1,197,-1
 982.453125 793.46875 l 1,198,-1
 986 797 l 1,181,-1
841.59375 568.125 m 1,199,-1
 840.265625 563.296875 l 1,200,-1
 814.40625 570.453125 l 1,201,-1
 815.734375 575.28125 l 1,202,-1
 817.0625 580.09375 l 1,203,-1
 842.9375 572.9375 l 1,204,-1
 841.59375 568.125 l 1,199,-1
752.625 592.734375 m 1,205,-1
 751.296875 587.921875 l 1,206,-1
 583.4375 634.34375 l 1,207,-1
 515.875 491.75 l 1,208,-1
 511.359375 493.890625 l 1,209,-1
 506.84375 496.03125 l 1,210,-1
 576.1875 642.421875 l 1,211,-1
 578 646.21875 l 1,212,-1
 583.703125 644.640625 l 1,213,-1
 753.953125 597.546875 l 1,214,-1
 752.625 592.734375 l 1,205,-1
785.015625 606 m 1,215,-1
 788.546875 609.53125 l 1,216,-1
 859.25 538.828125 l 1,217,-1
 859.671875 538.359375 l 1,218,-1
 1116.65625 208.359375 l 1,219,-1
 1117.703125 207.015625 l 1,220,-1
 1117.703125 205.296875 l 1,221,-1
 1117.703125 -21.703125 l 1,222,-1
 1117.703125 -26.03125 l 1,223,-1
 1113.4375 -26.65625 l 1,224,-1
 710.421875 -85.65625 l 1,225,-1
 707.9375 -86.015625 l 1,226,-1
 706.171875 -84.25 l 1,227,-1
 635.453125 -13.53125 l 1,228,-1
 639 -10 l 1,229,-1
 642.53125 -6.46875 l 1,230,-1
 711.46875 -75.40625 l 1,231,-1
 1107.703125 -17.390625 l 1,232,-1
 1107.703125 203.578125 l 1,233,-1
 851.96875 531.96875 l 1,234,-1
 781.46875 602.46875 l 1,235,-1
 785.015625 606 l 1,215,-1
719.25 337.296875 m 1,236,-1
 719.25 332.296875 l 1,237,-1
 661.109375 332.296875 l 1,238,-1
 673.703125 166.140625 l 1,239,-1
 668.71875 165.765625 l 1,240,-1
 663.734375 165.390625 l 1,241,-1
 650.71875 336.90625 l 1,242,-1
 650.3125 342.296875 l 1,243,-1
 655.703125 342.296875 l 1,244,-1
 719.25 342.296875 l 1,245,-1
 719.25 337.296875 l 1,236,-1
685.59375 -56.59375 m 1,246,-1
 690.578125 -56.21875 l 1,247,-1
 693.703125 -97.328125 l 1,248,-1
 693.765625 -98.203125 l 1,249,-1
 693.53125 -99.046875 l 1,250,-1
 681.53125 -142.046875 l 1,251,-1
 680.375 -146.1875 l 1,252,-1
 676.109375 -145.671875 l 1,253,-1
 86.109375 -73.671875 l 1,254,-1
 84.40625 -73.46875 l 1,255,-1
 83.1875 -72.25 l 1,256,-1
 12.46875 -1.53125 l 1,257,-1
 16.015625 2 l 1,258,-1
 19.546875 5.53125 l 1,259,-1
 89.03125 -63.953125 l 1,260,-1
 673.046875 -135.21875 l 1,261,-1
 683.65625 -97.203125 l 1,262,-1
 680.609375 -56.984375 l 1,263,-1
 685.59375 -56.59375 l 1,246,-1
EndSplineSet
Validated: 524293
EndChar

